<svg width="65" height="66" viewBox="0 0 65 66" fill="none" xmlns="http://www.w3.org/2000/svg">
<path d="M0.0148104 32.869C-0.178824 0.721034 42.9272 -13.4742 61.5164 16.397L47.2524 24.6419C38.6416 10.4154 17.2616 15.5024 16.4942 32.8688C16.7246 48.8743 37.7384 56.3093 47.2532 41.0949L61.5172 49.3396C45.135 77.748 0.841072 67.5272 0.0148104 32.869Z" fill="#FFDA3A"/>
<path d="M54.3826 23.5342H57.0991L55.243 41.4437H52.4753L54.3826 23.5342Z" fill="#FFDA3A"/>
<path d="M60.2012 23.5342H62.9177L61.0616 41.4437H58.2939L60.2012 23.5342Z" fill="#FFDA3A"/>
<path d="M64.9229 27.7872H51.3402V30.4079H64.9229V27.7872Z" fill="#FFDA3A"/>
<path d="M64.1619 34.1713H50.5792V36.7919H64.1619V34.1713Z" fill="#FFDA3A"/>
</svg>
