<svg width="31" height="30" viewBox="0 0 31 30" fill="none" xmlns="http://www.w3.org/2000/svg">
<path d="M13.466 20.8823L7.70119 15.0969L9.62279 13.1684L13.466 17.0254L21.1524 9.31146L23.074 11.2399L13.466 20.8823Z" fill="#FFDA3A"/>
<path fill-rule="evenodd" clip-rule="evenodd" d="M0.907318 15C0.907318 6.71573 7.59911 0 15.8538 0C24.1086 0 30.8004 6.71573 30.8004 15C30.8004 23.2843 24.1086 30 15.8538 30C7.59911 30 0.907318 23.2843 0.907318 15ZM15.8538 27.2727C9.09997 27.2727 3.62487 21.778 3.62487 15C3.62487 8.22196 9.09997 2.72727 15.8538 2.72727C22.6077 2.72727 28.0828 8.22196 28.0828 15C28.0828 21.778 22.6077 27.2727 15.8538 27.2727Z" fill="#FFDA3A"/>
</svg>
