<svg width="18" height="30" viewBox="0 0 18 30" fill="none" xmlns="http://www.w3.org/2000/svg">
<path d="M10.5531 6H7.78798V7.5C7.78798 8.32843 8.40697 9 9.17053 9C9.9341 9 10.5531 8.32843 10.5531 7.5V6Z" fill="#FFDA3A"/>
<path fill-rule="evenodd" clip-rule="evenodd" d="M0.875214 0V3H2.25777V7.5C2.25777 11.6421 5.35272 15 9.17053 15C5.35272 15 2.25777 18.3579 2.25777 22.5V27H0.875214V30H17.4659V27H16.0833V22.5C16.0833 18.3579 12.9883 15 9.17053 15C12.9883 15 16.0833 11.6421 16.0833 7.5V3H17.4659V0H0.875214ZM5.02287 3H13.3182V7.5C13.3182 9.98528 11.4612 12 9.17053 12C6.87985 12 5.02287 9.98528 5.02287 7.5V3ZM5.02287 22.5V27H13.3182V22.5C13.3182 20.0147 11.4612 18 9.17053 18C6.87985 18 5.02287 20.0147 5.02287 22.5Z" fill="#FFDA3A"/>
</svg>
