<svg width="31" height="30" viewBox="0 0 31 30" fill="none" xmlns="http://www.w3.org/2000/svg">
<path d="M6.877 0C6.12254 0 5.51092 0.706919 5.51092 1.57895V4.73684C5.51092 5.60887 6.12254 6.31579 6.877 6.31579C7.63147 6.31579 8.24308 5.60887 8.24308 4.73684V1.57895C8.24308 0.706919 7.63147 0 6.877 0Z" fill="#FFDA3A"/>
<path fill-rule="evenodd" clip-rule="evenodd" d="M16.4396 30C20.5009 30 23.8724 26.5859 24.5227 22.1053H24.636C27.6539 22.1053 30.1004 19.2776 30.1004 15.7895C30.1004 12.3014 27.6539 9.47368 24.636 9.47368V7.89474H0.0466003V20.5263C0.0466003 25.7585 3.71629 30 8.24308 30H16.4396ZM2.77876 11.0526V20.5263C2.77876 24.0144 5.22522 26.8421 8.24308 26.8421H16.4396C19.4574 26.8421 21.9039 24.0144 21.9039 20.5263V11.0526H2.77876ZM27.3682 15.7895C27.3682 17.5335 26.145 18.9474 24.636 18.9474V12.6316C26.145 12.6316 27.3682 14.0454 27.3682 15.7895Z" fill="#FFDA3A"/>
<path d="M10.9752 1.57895C10.9752 0.706919 11.5869 0 12.3413 0C13.0958 0 13.7074 0.706919 13.7074 1.57895V4.73684C13.7074 5.60887 13.0958 6.31579 12.3413 6.31579C11.5869 6.31579 10.9752 5.60887 10.9752 4.73684V1.57895Z" fill="#FFDA3A"/>
<path d="M17.8056 0C17.0512 0 16.4396 0.706919 16.4396 1.57895V4.73684C16.4396 5.60887 17.0512 6.31579 17.8056 6.31579C18.5601 6.31579 19.1717 5.60887 19.1717 4.73684V1.57895C19.1717 0.706919 18.5601 0 17.8056 0Z" fill="#FFDA3A"/>
</svg>
