<svg width="124" height="127" viewBox="0 0 124 127" fill="none" xmlns="http://www.w3.org/2000/svg">
<path d="M0.00124004 63.2988C-0.368051 1.38856 81.8416 -25.9484 117.294 31.5772L90.0904 47.4551C73.6683 20.0579 32.8934 29.8543 31.4299 63.2984C31.8693 94.1216 71.9458 108.44 90.092 79.14L117.296 95.0175C86.0522 149.726 1.57705 130.043 0.00124004 63.2988Z" fill="white"/>
<path d="M103.688 45.3218H108.869L105.329 79.8118H100.051L103.688 45.3218Z" fill="white"/>
<path d="M114.786 45.3218H119.967L116.427 79.8118H111.148L114.786 45.3218Z" fill="white"/>
<path d="M123.79 53.5122H97.8861V58.5591H123.79V53.5122Z" fill="white"/>
<path d="M122.339 65.8064H96.4352V70.8533H122.339V65.8064Z" fill="white"/>
</svg>
