<svg width="800" height="274" viewBox="0 0 800 274" fill="none" xmlns="http://www.w3.org/2000/svg">
<path fill-rule="evenodd" clip-rule="evenodd" d="M345.207 33.7372C332.813 51.5252 324.312 72.9478 318.615 87.4824C312.912 102.034 305.744 117.144 295.511 128.624C285.249 140.136 271.884 148.014 253.868 148.014C244.697 148.014 236.538 143.66 228.728 137.425C222.868 132.747 217.113 126.93 211.224 120.979C209.28 119.015 207.322 117.036 205.34 115.078C189.276 99.2055 171.543 84.5822 146.448 88.1078C133.909 89.8695 121.711 96.6921 109.66 107.714C97.6096 118.735 85.7632 133.904 73.9334 152.248C50.2712 188.94 26.7801 238.168 1.90775 291.906C1.67577 292.407 1.08141 292.625 0.580205 292.393C0.0790021 292.161 -0.139246 291.567 0.092733 291.066C24.955 237.35 48.5021 187.993 72.2526 151.164C84.1292 132.747 96.0827 117.421 108.31 106.238C120.537 95.0555 133.093 87.9644 146.17 86.1272C172.309 82.4549 190.678 97.7799 206.746 113.655C208.77 115.655 210.755 117.661 212.714 119.641C218.58 125.568 224.216 131.264 229.976 135.862C237.642 141.982 245.362 146.014 253.868 146.014C271.205 146.014 284.056 138.468 294.018 127.294C304.007 116.087 311.071 101.25 316.753 86.7526C322.442 72.2386 331.018 50.6025 343.566 32.5938C356.102 14.6025 372.767 0 394.683 0C416.632 0 432.847 15.5445 444.844 33.9695C454.857 49.3475 462.072 66.954 467.305 79.7226C468.349 82.2685 469.313 84.622 470.206 86.7273C475.578 99.4043 485.421 118.91 498.893 135.227C512.389 151.573 529.361 164.523 548.98 164.523C568.232 164.523 580.897 157.613 593.334 150.827C593.682 150.637 594.03 150.447 594.379 150.257C607.171 143.285 619.912 136.657 639.26 138.564C657.894 140.401 670.738 152.093 683.245 163.478C683.768 163.954 684.29 164.429 684.812 164.904C697.902 176.792 710.897 187.916 730.242 187.916C739.969 187.916 746.753 185.77 752.043 182.596C757.359 179.407 761.228 175.148 765.109 170.772L765.547 170.278C769.261 166.087 773.048 161.814 778.113 158.575C783.412 155.187 790.062 152.955 799.451 152.955C800.003 152.955 800.451 153.403 800.451 153.955C800.451 154.507 800.003 154.955 799.451 154.955C790.413 154.955 784.143 157.093 779.19 160.26C774.365 163.346 770.744 167.431 766.985 171.671L766.606 172.099C762.734 176.464 758.683 180.945 753.072 184.311C747.437 187.692 740.289 189.916 730.242 189.916C710.039 189.916 696.518 178.237 683.468 166.384C682.99 165.951 682.514 165.517 682.037 165.084C669.411 153.596 657.023 142.324 639.063 140.554C620.361 138.711 608.085 145.065 595.336 152.013C594.967 152.214 594.598 152.415 594.228 152.617C581.801 159.399 568.748 166.523 548.98 166.523C528.452 166.523 510.969 152.995 497.351 136.501C483.709 119.978 473.777 100.28 468.364 87.5077C467.459 85.371 466.484 82.9936 465.433 80.4304C460.196 67.6546 453.066 50.2628 443.168 35.0608C431.271 16.7894 415.578 2 394.683 2C373.755 2 357.613 15.9319 345.207 33.7372Z" fill="white"/>
</svg>
