<svg width="18" height="30" viewBox="0 0 18 30" fill="none" xmlns="http://www.w3.org/2000/svg">
<path fill-rule="evenodd" clip-rule="evenodd" d="M7.5 25.5V30H10.5V25.5H12C15.3137 25.5 18 22.8137 18 19.5C18 16.1863 15.3137 13.5 12 13.5H10.5V7.5H13.5V10.5H16.5V4.5H10.5V0H7.5V4.5H6C2.68629 4.5 0 7.18629 0 10.5C0 13.8137 2.68629 16.5 6 16.5H7.5V22.5H4.5V19.5H1.5V25.5H7.5ZM10.5 22.5H12C13.6569 22.5 15 21.1569 15 19.5C15 17.8431 13.6569 16.5 12 16.5H10.5V22.5ZM7.5 13.5V7.5H6C4.34315 7.5 3 8.84315 3 10.5C3 12.1569 4.34315 13.5 6 13.5H7.5Z" fill="#2A3136"/>
</svg>
