<svg width="700" height="550" viewBox="0 0 700 550" fill="none" xmlns="http://www.w3.org/2000/svg">
<path d="M287.098 261.981L261.038 272.881C262.388 273.251 263.717 273.671 265.058 274.061L269.027 275.341C271.678 276.191 274.308 277.121 276.928 278.051C279.547 279.001 282.168 279.951 284.757 280.981C287.308 281.981 289.868 283.001 292.377 284.111C293.777 275.131 295.877 265.541 298.627 263.311L287.098 261.981Z" fill="white"/>
<path d="M261.038 272.881V291.401C265.857 293.641 276.658 297.181 290.288 301.241C290.288 301.241 290.998 292.981 292.378 284.131C289.728 283.391 287.098 282.561 284.498 281.701C281.848 280.851 279.217 279.921 276.598 278.991C273.978 278.041 271.357 277.091 268.768 276.061L264.888 274.521C263.607 273.971 262.308 273.461 261.038 272.881Z" fill="white"/>
<path d="M448.047 282.671C447.058 282.371 446.087 282.041 445.128 281.651L446.458 286.931C447.751 285.656 449.124 284.464 450.567 283.361C449.728 283.151 448.878 282.931 448.047 282.671Z" fill="white"/>
<path d="M359.538 302.891C373.448 300.651 411.498 288.271 418.348 283.061C423.388 279.221 429.158 272.931 429.908 257.931C431.007 264.761 432.137 271.591 433.297 278.421L433.337 278.661C432.487 278.181 431.57 277.828 430.618 277.611C429.547 277.338 428.438 277.25 427.337 277.351C428.275 277.935 429.307 278.351 430.388 278.581C431.361 278.826 432.366 278.921 433.368 278.861L436.098 294.711C433.607 296.401 431.138 298.101 428.698 299.851L424.857 302.591L421.047 305.381C418.507 307.241 415.958 309.081 413.458 311.001C410.958 312.911 408.428 314.771 405.948 316.721L405.938 316.731C405.882 316.782 405.844 316.848 405.828 316.921C403.908 316.371 401.967 315.861 400.038 315.331L393.868 313.751C389.748 312.711 385.618 311.751 381.498 310.751C377.348 309.821 373.217 308.851 369.067 307.971C364.918 307.081 360.768 306.211 356.587 305.451C360.668 306.611 364.788 307.671 368.898 308.711C373.007 309.761 377.148 310.711 381.268 311.721C385.408 312.641 389.538 313.611 393.688 314.501L399.918 315.811C401.888 316.191 403.848 316.591 405.817 316.951C405.817 316.961 405.797 316.971 405.797 316.981C405.438 321.011 405.098 325.041 404.858 329.081C405.488 325.141 406.018 321.191 406.527 317.231C409.058 315.441 411.527 313.581 414.027 311.761C416.578 309.921 419.078 308.001 421.588 306.111L425.358 303.261L429.078 300.361C431.448 298.531 433.788 296.651 436.108 294.751L436.908 299.411C436.928 299.524 436.992 299.624 437.086 299.69C437.179 299.755 437.295 299.781 437.408 299.761C437.432 299.759 437.456 299.753 437.478 299.741L448.317 295.971C448.427 295.93 448.517 295.851 448.573 295.748C448.628 295.645 448.644 295.525 448.618 295.411L446.498 287.071C448.35 286.059 450.127 284.916 451.817 283.651C453.148 284.611 454.458 285.581 455.797 286.531C457.257 287.541 458.698 288.581 460.178 289.581C458.818 288.431 457.438 287.311 456.058 286.181C454.777 285.131 453.478 284.111 452.178 283.081C452.168 283.008 452.144 282.936 452.108 282.871C452.878 279.911 453.558 276.931 454.268 273.951C455.018 270.871 455.708 267.771 456.378 264.671C457.078 261.571 457.748 258.471 458.368 255.352C459.018 252.241 459.618 249.131 460.178 246.001C459.318 249.061 458.498 252.132 457.738 255.212C456.938 258.282 456.198 261.371 455.478 264.461C454.738 267.551 454.018 270.641 453.358 273.741C452.708 276.681 452.047 279.622 451.448 282.572C450.378 282.322 449.308 282.091 448.228 281.901C447.188 281.721 446.148 281.581 445.088 281.491L443.918 276.901L439.158 258.392L439.148 258.362V258.352C438.55 256.734 438.079 255.072 437.738 253.382C437.347 251.737 437.357 250.022 437.768 248.382C438.019 247.602 438.475 246.904 439.088 246.361C439.41 246.091 439.751 245.844 440.108 245.622L440.668 245.251L440.958 245.012C440.998 245.002 441.027 244.972 441.138 244.932C442.816 244.549 444.521 244.299 446.238 244.182C453.198 243.552 460.188 243.181 467.168 242.801C463.678 242.852 460.178 242.951 456.678 243.081C453.178 243.211 449.688 243.352 446.188 243.622C445.317 243.692 444.438 243.772 443.567 243.872C442.668 243.941 441.778 244.095 440.908 244.331C440.763 244.377 440.628 244.449 440.507 244.542L440.288 244.722L439.748 245.062C439.358 245.293 438.987 245.554 438.638 245.842C437.921 246.454 437.382 247.249 437.078 248.142C436.599 249.897 436.548 251.742 436.928 253.522C437.252 255.258 437.72 256.963 438.328 258.622L442.988 277.132L447.608 295.232L437.668 298.752L433.858 278.322C432.567 271.502 431.251 264.685 429.908 257.872C430.13 251.308 429.667 244.739 428.527 238.272L446.837 236.352C448.682 236.182 450.429 235.445 451.837 234.242C453.336 234.022 454.822 233.722 456.288 233.342C456.668 233.252 457.047 233.151 457.428 233.031C457.618 232.971 457.808 232.912 458.007 232.842C458.03 232.832 458.053 232.825 458.078 232.822H458.108C458.175 232.829 458.242 232.842 458.308 232.861C459.014 233.082 459.697 233.37 460.348 233.721C461.728 234.391 463.087 235.132 464.467 235.831C465.837 236.562 467.238 237.251 468.658 237.911C466.219 235.945 463.581 234.239 460.788 232.822C460.058 232.451 459.295 232.153 458.507 231.932C458.379 231.906 458.249 231.893 458.118 231.891C457.96 231.9 457.805 231.934 457.658 231.992C457.498 232.072 457.317 232.132 457.147 232.202L456.058 232.602C454.667 233.091 453.277 233.611 451.897 234.181C453.348 232.801 454.388 230.571 453.777 226.931L452.848 202.241L456.598 201.471C456.598 201.471 459.357 202.091 453.908 186.351L445.198 161.301C445.198 161.301 479.408 165.521 480.647 166.761C481.888 168.001 473.457 251.561 461.797 291.481C461.797 291.481 408.738 329.421 405.518 330.661C403.948 331.251 374.538 324.202 342.408 315.731C342.408 315.731 345.638 305.131 359.538 302.891ZM471.678 185.521C472.488 180.601 473.268 175.681 473.948 170.741C472.868 175.611 471.888 180.501 470.928 185.391C469.967 190.281 469.087 195.191 468.168 200.091C467.328 205.001 466.438 209.911 465.638 214.831L464.448 222.211C464.087 224.681 463.698 227.141 463.368 229.611C463.918 227.181 464.408 224.741 464.938 222.301L466.398 214.961C467.358 210.071 468.228 205.161 469.148 200.261C469.988 195.351 470.878 190.451 471.678 185.521Z" fill="white"/>
<path d="M379.228 127.581C381.047 127.581 383.368 128.571 385.678 129.071C387.988 129.571 393.277 128.571 393.777 127.091C394.277 125.601 397.398 113.321 397.908 113.901C398.408 114.481 399.398 115.511 399.398 115.511C399.398 115.511 399.567 130.471 399.238 132.081C398.898 133.701 392.788 141.801 383.698 140.971C374.608 140.141 373.277 129.401 373.277 129.401C373.277 129.401 377.418 127.581 379.228 127.581ZM377.728 132.021C378.395 132.433 379.176 132.622 379.958 132.561C380.717 132.503 381.453 132.271 382.108 131.881C382.744 131.512 383.288 131.003 383.698 130.391C382.511 131.006 381.224 131.406 379.898 131.571C379.277 131.618 378.653 131.533 378.067 131.321C377.433 131.075 376.827 130.764 376.257 130.391C376.576 131.068 377.087 131.635 377.728 132.021Z" fill="white"/>
<path d="M399.398 115.516C399.398 115.516 391.133 107.747 391.794 98.1591C391.794 98.1591 389.645 96.1755 386.174 99.4815C386.174 99.4815 383.199 100.308 379.727 96.6714C376.256 93.0347 374.438 98.3244 374.438 98.3244C374.438 98.3244 372.619 103.945 372.123 102.457C371.627 100.969 370.801 93.8612 378.24 91.547C384.024 89.8239 390.071 89.152 396.092 89.5634C398.076 89.894 402.208 93.2 402.208 97.8285C402.208 102.457 404.192 108.242 404.027 110.061C403.861 111.879 399.398 115.516 399.398 115.516Z" fill="white"/>
<path d="M391.96 113.532C390.356 112.92 388.635 112.678 386.926 112.827C386.065 112.901 385.218 113.085 384.406 113.376C383.597 113.674 382.852 114.119 382.207 114.689C382.969 114.359 383.757 114.092 384.563 113.89C385.36 113.707 386.169 113.581 386.984 113.513C388.641 113.4 390.304 113.406 391.96 113.532Z" fill="white"/>
<path d="M377.909 113.902C377.246 113.176 376.43 112.606 375.519 112.235C374.616 111.808 373.599 111.683 372.619 111.879C373.513 112.164 374.393 112.495 375.253 112.87C376.115 113.224 376.964 113.609 377.909 113.902Z" fill="white"/>
<path d="M385.678 117.045C385.41 117.036 385.157 116.923 384.97 116.73C384.784 116.537 384.68 116.28 384.68 116.012C384.68 115.744 384.784 115.486 384.97 115.293C385.157 115.101 385.41 114.988 385.678 114.979C385.946 114.988 386.2 115.101 386.386 115.293C386.572 115.486 386.676 115.744 386.676 116.012C386.676 116.28 386.572 116.537 386.386 116.73C386.2 116.923 385.946 117.036 385.678 117.045Z" fill="white"/>
<path d="M375.099 116.384C374.831 116.374 374.577 116.262 374.391 116.069C374.205 115.876 374.101 115.619 374.101 115.351C374.101 115.083 374.205 114.825 374.391 114.632C374.577 114.44 374.831 114.327 375.099 114.317C375.367 114.327 375.62 114.44 375.807 114.632C375.993 114.825 376.097 115.083 376.097 115.351C376.097 115.619 375.993 115.876 375.807 116.069C375.62 116.262 375.367 116.374 375.099 116.384Z" fill="white"/>
<path d="M404.027 110.061C404.388 110.211 404.711 110.44 404.972 110.732C405.233 111.024 405.424 111.371 405.533 111.747C405.742 112.489 405.74 113.275 405.529 114.017C405.048 115.535 404.481 117.025 403.83 118.478C403.249 119.997 402.79 121.561 402.459 123.154C402.325 123.901 401.955 124.587 401.403 125.109C401.108 125.365 400.763 125.556 400.388 125.669C400.014 125.782 399.621 125.815 399.233 125.765C399.634 125.882 400.057 125.907 400.469 125.839C400.882 125.771 401.273 125.611 401.616 125.372C402.29 124.833 402.769 124.088 402.979 123.251C403.383 121.711 403.882 120.198 404.474 118.72C404.75 117.969 405.031 117.219 405.331 116.476C405.661 115.72 405.901 114.928 406.047 114.116C406.214 113.285 406.145 112.424 405.848 111.63C405.69 111.243 405.442 110.899 405.126 110.627C404.809 110.354 404.432 110.16 404.027 110.061Z" fill="white"/>
<path d="M377.082 121.301C376.688 122.347 376.7 123.503 377.116 124.54C377.346 125.095 377.772 125.546 378.314 125.806C378.846 126.019 379.439 126.024 379.975 125.82C379.478 125.757 379 125.591 378.57 125.333C378.202 125.058 377.918 124.688 377.746 124.262C377.401 123.307 377.178 122.312 377.082 121.301Z" fill="white"/>
<path d="M372.123 102.457C372.264 104.727 372.268 107.003 372.137 109.273C372.068 110.399 371.939 111.521 371.748 112.632C371.547 113.723 371.23 114.841 371.038 115.98C370.65 118.268 370.675 120.608 371.112 122.887C371.588 125.133 372.315 127.318 373.281 129.401C372.569 127.244 372.019 125.037 371.635 122.798C371.288 120.574 371.316 118.308 371.717 116.093C371.883 114.979 372.172 113.893 372.365 112.738C372.553 111.6 372.653 110.449 372.664 109.296C372.707 107.004 372.526 104.713 372.123 102.457Z" fill="white"/>
<path d="M399.233 132.083C399.37 133.405 399.863 134.666 400.659 135.731C401.065 136.272 401.563 136.737 402.129 137.106C402.703 137.461 403.362 137.655 404.036 137.666C403.464 137.407 402.929 137.072 402.445 136.671C401.989 136.261 401.576 135.808 401.209 135.317C400.836 134.818 400.492 134.297 400.179 133.758C399.865 133.212 399.541 132.661 399.233 132.083Z" fill="white"/>
<path d="M399.881 133.849C404.905 134.87 409.821 136.362 414.564 138.308C417.022 139.2 419.593 139.747 422.202 139.931C424.737 140.079 427.262 140.369 429.765 140.8C430.33 140.923 430.872 141.134 431.371 141.425C431.945 141.781 432.549 142.083 433.178 142.329C434.321 142.754 435.375 143.39 436.283 144.204C438.017 146.007 439.442 148.084 440.502 150.351C441.103 151.469 441.582 152.654 442.11 153.814C442.587 154.998 443.067 156.184 443.515 157.383C443.937 158.591 444.385 159.792 444.787 161.009L445.935 164.68L445.938 164.689L445.942 164.703C448.333 170.685 450.506 176.75 452.46 182.898C453.428 185.969 454.343 189.058 455.124 192.171C455.509 193.728 455.872 195.29 456.144 196.854C456.283 197.626 456.378 198.405 456.429 199.188C456.451 199.558 456.445 199.93 456.411 200.3C456.403 200.559 456.326 200.811 456.186 201.029L456.47 200.884C450.79 202 445.106 203.114 439.415 204.164L430.884 205.756L426.615 206.477C425.229 206.717 423.832 206.888 422.43 206.989L422.015 206.994C422.014 206.971 422.025 206.996 422 206.98C421.971 206.952 421.94 206.927 421.905 206.906C421.716 206.686 421.558 206.441 421.436 206.177C421.145 205.557 420.904 204.914 420.716 204.256C420.333 202.884 420.026 201.493 419.796 200.088C419.315 197.261 419.058 194.388 418.859 191.513C418.678 188.636 418.619 185.753 418.683 182.862C418.725 179.974 418.896 177.085 419.22 174.208C419.222 174.19 419.217 174.173 419.206 174.159C419.195 174.145 419.179 174.135 419.161 174.133C419.144 174.13 419.126 174.135 419.111 174.145C419.097 174.155 419.087 174.171 419.084 174.188C418.599 177.048 418.265 179.936 418.061 182.835C417.883 185.736 417.83 188.643 417.903 191.556C417.974 194.473 418.214 197.383 418.62 200.273C418.822 201.732 419.107 203.179 419.471 204.606C419.664 205.345 419.916 206.068 420.226 206.766C420.402 207.163 420.636 207.532 420.921 207.86C421.023 207.954 421.134 208.046 421.245 208.132C421.395 208.222 421.555 208.293 421.723 208.341C421.957 208.364 422.168 208.363 422.392 208.37C423.879 208.283 425.36 208.114 426.829 207.864L431.131 207.16C433.988 206.654 436.844 206.148 439.688 205.587C445.373 204.452 451.049 203.277 456.715 202.062L456.763 202.052C456.854 202.032 456.936 201.985 457 201.916C457.364 201.501 457.57 200.97 457.581 200.417C457.613 199.983 457.61 199.548 457.575 199.114C457.502 198.289 457.383 197.469 457.219 196.658C456.904 195.051 456.497 193.479 456.046 191.923C455.147 188.811 454.12 185.748 453.063 182.698C451.987 179.654 450.904 176.616 449.79 173.589L446.415 164.518L446.423 164.541C445.135 159.54 443.462 154.647 441.418 149.905C440.392 147.466 438.924 145.237 437.088 143.331C436.088 142.414 434.927 141.69 433.663 141.197C433.097 140.969 432.549 140.7 432.022 140.391C431.409 140.037 430.742 139.784 430.049 139.64C427.484 139.228 424.898 138.965 422.303 138.852C421.034 138.74 419.77 138.605 418.529 138.378C417.285 138.186 416.061 137.883 414.872 137.471C410.043 135.647 405.021 134.386 399.903 133.713C399.885 133.711 399.867 133.715 399.852 133.726C399.837 133.737 399.828 133.754 399.825 133.772C399.823 133.789 399.828 133.807 399.838 133.821C399.849 133.836 399.864 133.846 399.881 133.849Z" fill="white"/>
<path d="M383.664 148.179C383.777 148.781 383.806 149.395 383.749 150.005C383.713 150.622 383.673 151.237 383.614 151.853L383.237 155.543C382.965 158.002 382.642 160.455 382.342 162.911L381.864 166.591C381.562 167.886 381.76 169.246 382.418 170.401C382.634 170.675 382.903 170.904 383.208 171.075C383.513 171.245 383.849 171.354 384.196 171.394C384.543 171.435 384.895 171.406 385.231 171.311C385.567 171.215 385.881 171.054 386.155 170.837C386.429 170.622 386.657 170.353 386.823 170.047C386.99 169.741 387.092 169.405 387.123 169.058L387.322 167.213C387.599 164.755 387.893 162.298 388.268 159.855C388.447 158.634 388.691 157.424 388.997 156.23C389.073 155.939 389.176 155.656 389.306 155.385C389.332 155.325 389.372 155.272 389.422 155.229C389.472 155.187 389.531 155.157 389.595 155.141L390.02 154.957C390.587 154.713 391.161 154.482 391.738 154.259C394.043 153.361 396.365 152.502 398.708 151.715C399.869 151.348 401.076 150.822 402.193 151.19C402.712 151.439 403.142 151.841 403.428 152.34C403.714 152.84 403.841 153.415 403.793 153.988C403.794 154.053 403.821 154.115 403.868 154.16C403.914 154.205 403.977 154.23 404.042 154.229C404.084 154.228 404.126 154.216 404.163 154.195C404.199 154.173 404.23 154.142 404.251 154.106C404.9 152.977 405.63 151.896 406.436 150.873C407.215 149.847 408.126 148.928 409.146 148.141C409.645 147.766 410.202 147.475 410.796 147.281C411.447 147.076 412.074 146.798 412.664 146.453C413.867 145.765 414.883 144.794 415.625 143.624C415.635 143.608 415.643 143.59 415.649 143.572L415.655 143.551C415.841 142.863 415.751 142.129 415.405 141.506C415.085 140.931 414.667 140.416 414.169 139.987C413.213 139.169 412.159 138.472 411.032 137.913C408.822 136.793 406.508 135.89 404.123 135.217C404.062 135.2 403.998 135.201 403.938 135.221C403.878 135.241 403.826 135.278 403.788 135.328C403.75 135.379 403.728 135.439 403.725 135.502C403.722 135.565 403.738 135.628 403.771 135.681L403.78 135.696C404.162 136.34 404.409 137.055 404.507 137.798C404.563 138.176 404.594 138.557 404.599 138.939C404.566 139.32 404.569 139.707 404.501 140.087C404.244 141.626 403.667 143.095 402.809 144.399C402.389 145.063 401.935 145.704 401.448 146.32C400.916 146.9 400.417 147.513 399.861 148.074C399.287 148.616 398.742 149.192 398.143 149.709L396.319 151.235C396.316 151.238 396.313 151.241 396.31 151.245C396.308 151.249 396.306 151.253 396.306 151.257C396.305 151.262 396.305 151.266 396.306 151.271C396.307 151.275 396.309 151.279 396.312 151.283C396.318 151.29 396.326 151.295 396.335 151.296C396.344 151.297 396.353 151.295 396.361 151.29L398.254 149.84C398.879 149.348 399.452 148.792 400.055 148.27C400.645 147.733 401.161 147.119 401.715 146.543C402.227 145.926 402.705 145.283 403.149 144.615C404.072 143.278 404.705 141.763 405.009 140.168C405.089 139.768 405.098 139.355 405.141 138.948C405.145 138.537 405.122 138.126 405.071 137.717C404.98 136.879 404.715 136.069 404.293 135.339L403.95 135.818C406.273 136.536 408.532 137.446 410.704 138.54C411.775 139.075 412.776 139.741 413.684 140.521C414.136 140.831 414.494 141.259 414.719 141.758C414.945 142.258 415.028 142.809 414.962 143.353L414.992 143.28C414.32 144.344 413.403 145.231 412.318 145.867C411.774 146.193 411.196 146.456 410.593 146.653C409.936 146.875 409.319 147.204 408.768 147.625C407.706 148.453 406.767 149.429 405.981 150.522C405.181 151.585 404.459 152.706 403.822 153.874L404.28 153.991C404.263 153.333 404.099 152.686 403.801 152.098C403.654 151.794 403.447 151.523 403.192 151.301C402.937 151.079 402.64 150.91 402.319 150.806C400.982 150.42 399.742 151.026 398.598 151.396C396.26 152.222 393.949 153.118 391.656 154.053L389.936 154.757L389.506 154.937C389.421 154.964 389.341 155.007 389.273 155.065C389.205 155.122 389.149 155.193 389.108 155.273C388.965 155.558 388.851 155.856 388.768 156.164C388.424 157.365 388.209 158.587 387.98 159.806C387.531 162.245 387.164 164.696 386.818 167.15L386.565 168.991C386.539 169.262 386.457 169.525 386.325 169.764C386.193 170.002 386.013 170.211 385.798 170.377C385.369 170.713 384.826 170.866 384.285 170.802C383.745 170.738 383.252 170.463 382.914 170.036C382.614 169.554 382.431 169.008 382.38 168.442C382.318 167.85 382.339 167.252 382.443 166.665L382.88 162.976C383.171 160.516 383.404 158.049 383.613 155.579C383.72 154.345 383.806 153.108 383.855 151.869C383.885 151.25 383.896 150.629 383.904 150.009C383.934 149.382 383.874 148.755 383.725 148.147C383.722 148.138 383.716 148.131 383.708 148.127C383.7 148.123 383.691 148.122 383.683 148.125C383.674 148.128 383.667 148.133 383.663 148.141C383.659 148.149 383.658 148.158 383.66 148.167L383.664 148.179Z" fill="white"/>
<path d="M380.566 140.201C380.081 140.887 379.654 141.611 379.287 142.366C379.104 142.746 378.972 143.151 378.811 143.545C378.68 143.954 378.583 144.372 378.521 144.797C378.368 145.668 378.44 146.563 378.73 147.398C379.055 148.253 379.674 148.965 380.475 149.407C380.506 149.424 380.541 149.434 380.576 149.438C380.611 149.441 380.647 149.438 380.681 149.428C380.715 149.418 380.746 149.401 380.774 149.378C380.801 149.356 380.824 149.328 380.841 149.297C380.857 149.267 380.867 149.234 380.871 149.2L380.872 149.19C380.983 147.99 381.239 146.808 381.633 145.669C381.831 145.107 382.142 144.591 382.547 144.155C382.745 143.957 383.001 143.826 383.277 143.781C383.412 143.798 383.542 143.842 383.66 143.91C383.778 143.978 383.881 144.069 383.964 144.178C384.649 145.165 385.144 146.271 385.425 147.44C385.773 148.597 386.065 149.781 386.32 150.958L386.315 150.846L386.003 152.993C385.99 153.085 386.013 153.179 386.068 153.255C386.122 153.33 386.204 153.382 386.296 153.398C386.388 153.415 386.482 153.395 386.56 153.343C386.637 153.291 386.691 153.211 386.711 153.12L386.712 153.112C386.902 152.101 387.012 151.077 387.041 150.049C387.096 149.03 387.071 148.013 387.024 147C386.938 144.975 386.728 142.958 386.394 140.959C386.393 140.95 386.388 140.942 386.38 140.937C386.373 140.932 386.364 140.929 386.355 140.931C386.346 140.932 386.339 140.937 386.334 140.943C386.328 140.95 386.325 140.958 386.326 140.967C386.392 142.986 386.425 145.001 386.424 147.011C386.451 149.005 386.312 150.997 386.008 152.967L386.717 153.086L386.967 150.931L386.968 150.92C386.972 150.886 386.97 150.851 386.962 150.818C386.675 149.619 386.318 148.439 385.891 147.282C385.501 146.099 384.91 144.992 384.146 144.008C384.039 143.876 383.906 143.769 383.756 143.691C383.605 143.613 383.441 143.566 383.272 143.554C382.943 143.608 382.639 143.764 382.405 144.001C381.96 144.446 381.613 144.979 381.384 145.565C380.89 146.704 380.533 147.897 380.318 149.119L380.715 148.903C380.07 148.495 379.573 147.89 379.3 147.178C379.021 146.44 378.934 145.644 379.049 144.863C379.07 144.464 379.195 144.074 379.255 143.674C379.38 143.287 379.476 142.889 379.626 142.507C379.79 142.132 379.918 141.738 380.092 141.363L380.625 140.237C380.627 140.233 380.628 140.229 380.629 140.224C380.629 140.22 380.629 140.215 380.627 140.211C380.626 140.206 380.624 140.202 380.621 140.199C380.618 140.195 380.614 140.193 380.61 140.19C380.603 140.187 380.594 140.186 380.586 140.188C380.578 140.19 380.571 140.195 380.566 140.201Z" fill="white"/>
<path d="M385.554 156.635C385.286 156.625 385.033 156.513 384.846 156.32C384.66 156.127 384.556 155.87 384.556 155.602C384.556 155.334 384.66 155.076 384.846 154.883C385.033 154.691 385.286 154.578 385.554 154.568C385.822 154.578 386.076 154.691 386.262 154.883C386.448 155.076 386.552 155.334 386.552 155.602C386.552 155.87 386.448 156.127 386.262 156.32C386.076 156.513 385.822 156.625 385.554 156.635Z" fill="white"/>
<path d="M384.81 162.338C384.542 162.328 384.289 162.215 384.103 162.023C383.916 161.83 383.812 161.572 383.812 161.305C383.812 161.037 383.916 160.779 384.103 160.586C384.289 160.394 384.542 160.281 384.81 160.271C385.078 160.281 385.332 160.394 385.518 160.586C385.704 160.779 385.808 161.037 385.808 161.305C385.808 161.572 385.704 161.83 385.518 162.023C385.332 162.215 385.078 162.328 384.81 162.338Z" fill="white"/>
<path d="M384.19 167.793C383.923 167.783 383.669 167.671 383.483 167.478C383.296 167.285 383.192 167.028 383.192 166.76C383.192 166.492 383.296 166.234 383.483 166.041C383.669 165.849 383.923 165.736 384.19 165.726C384.458 165.736 384.712 165.849 384.898 166.041C385.084 166.234 385.188 166.492 385.188 166.76C385.188 167.028 385.084 167.285 384.898 167.478C384.712 167.671 384.458 167.783 384.19 167.793Z" fill="white"/>
<path d="M377.602 138.263C373.472 138.366 369.347 138.64 365.233 139.063C363.175 139.262 361.125 139.551 359.081 139.899C357.001 140.189 354.966 140.742 353.026 141.547C352.772 141.673 352.534 141.828 352.316 142.011C352.116 142.192 351.927 142.385 351.749 142.588C351.407 142.958 351.035 143.311 350.666 143.675C349.902 144.399 349.213 145.199 348.608 146.06C347.452 147.814 346.593 149.747 346.067 151.78C345.029 155.792 344.386 159.895 344.146 164.032C344.646 159.943 345.458 155.898 346.574 151.932C347.138 149.976 347.998 148.117 349.122 146.42C349.712 145.597 350.383 144.835 351.126 144.146C351.495 143.789 351.876 143.435 352.239 143.051C352.539 142.677 352.917 142.372 353.345 142.156C355.218 141.367 357.182 140.815 359.191 140.514C361.212 140.139 363.254 139.867 365.295 139.587C369.383 139.056 373.49 138.649 377.602 138.263Z" fill="white"/>
<path d="M434.277 147.001C432.373 146.598 430.39 146.827 428.629 147.654C426.863 148.502 425.354 149.805 424.259 151.429C423.711 152.227 423.234 153.072 422.833 153.953C422.454 154.836 422.121 155.739 421.838 156.658C421.631 157.595 421.375 158.518 421.211 159.457C421.103 160.408 420.973 161.351 420.887 162.296C421.128 161.372 421.323 160.446 421.541 159.527C421.77 158.612 422.08 157.719 422.343 156.818C422.695 155.949 423.007 155.063 423.401 154.219C423.805 153.381 424.28 152.58 424.821 151.824C425.836 150.272 427.225 149.001 428.86 148.128C430.525 147.253 432.402 146.863 434.277 147.001Z" fill="white"/>
<path d="M409.812 190.563C409.337 191.827 408.837 193.078 408.255 194.292C407.705 195.52 407.101 196.721 406.461 197.901C405.194 200.264 403.747 202.526 402.131 204.665C400.538 206.818 398.726 208.799 396.725 210.577L395.196 211.882C394.673 212.299 394.107 212.66 393.565 213.056L392.75 213.65C392.467 213.83 392.172 213.991 391.883 214.163L390.141 215.193C392.64 214.128 394.973 212.709 397.069 210.98C399.157 209.233 401.04 207.253 402.679 205.08C404.297 202.896 405.719 200.575 406.93 198.143C408.143 195.719 409.109 193.18 409.812 190.563Z" fill="white"/>
<path d="M452.846 202.241C452.876 206.361 452.967 210.478 453.034 214.596C453.09 218.714 453.229 222.83 453.323 226.947L453.326 226.982L453.332 227.02C453.583 228.665 453.373 230.348 452.725 231.881C452.037 233.362 450.802 234.519 449.28 235.11C448.888 235.237 448.505 235.384 448.11 235.499L446.883 235.737C446.033 235.862 445.157 235.954 444.29 236.049C442.552 236.234 440.81 236.398 439.064 236.542C432.085 237.129 425.084 237.43 418.087 237.587C411.092 237.747 404.094 237.516 397.125 236.894C390.201 236.225 383.168 235.164 376.877 232.151C376.815 232.122 376.745 232.116 376.679 232.135C376.614 232.154 376.558 232.196 376.522 232.254C376.026 233.027 375.339 233.658 374.528 234.087C373.7 234.524 372.785 234.772 371.85 234.814C370.902 234.85 369.954 234.75 369.034 234.517C368.577 234.383 368.12 234.243 367.666 234.093L366.338 233.542L367.636 234.167C368.083 234.343 368.536 234.509 368.991 234.67C369.92 234.961 370.888 235.108 371.861 235.106C372.86 235.119 373.848 234.89 374.739 234.439C375.631 233.988 376.401 233.328 376.982 232.515L376.627 232.618C379.771 234.256 383.117 235.473 386.579 236.236C390.019 237.026 393.501 237.618 397.009 238.009C404.017 238.725 411.061 239.026 418.105 238.911C425.143 238.866 432.169 238.419 439.174 237.794C440.926 237.635 442.676 237.455 444.425 237.254C445.302 237.15 446.17 237.053 447.055 236.915L448.41 236.641C448.854 236.509 449.292 236.34 449.732 236.188C451.507 235.46 452.927 234.066 453.687 232.304C454.38 230.57 454.569 228.676 454.233 226.839L454.242 226.912C454.024 222.8 453.851 218.686 453.595 214.575C453.35 210.464 453.128 206.351 452.846 202.241Z" fill="white"/>
<path d="M427.332 207.078C427.217 209.342 427.153 211.606 427.074 213.87L427.229 213.634C419.263 216.49 410.9 218.086 402.442 218.363C398.237 218.491 394.031 218.161 389.898 217.381L386.82 216.715C385.803 216.457 384.817 216.092 383.813 215.786L382.309 215.315C381.819 215.129 381.343 214.907 380.858 214.705L377.957 213.462L378.203 213.834C378.089 213.146 377.82 212.494 377.414 211.927C377.038 211.377 376.569 210.897 376.028 210.509C374.971 209.76 373.756 209.263 372.477 209.058C371.856 208.95 371.229 208.873 370.6 208.83C369.972 208.83 369.345 208.776 368.722 208.822C368.1 208.874 367.475 208.873 366.859 208.968L365.015 209.242L366.872 209.138C367.489 209.107 368.108 209.136 368.723 209.131C369.339 209.127 369.949 209.223 370.56 209.264C371.163 209.347 371.762 209.462 372.354 209.607C373.515 209.883 374.606 210.397 375.559 211.116C376.465 211.796 377.081 212.792 377.284 213.907L377.288 213.938C377.298 214.01 377.325 214.078 377.368 214.138C377.41 214.197 377.466 214.246 377.53 214.279C381.341 216.303 385.417 217.781 389.64 218.667C393.864 219.522 398.175 219.872 402.481 219.711C406.773 219.554 411.04 218.999 415.229 218.052C417.315 217.564 419.385 217.012 421.422 216.359C423.471 215.734 425.479 214.982 427.434 214.107L427.446 214.102C427.49 214.082 427.527 214.049 427.553 214.008C427.579 213.967 427.591 213.919 427.59 213.87C427.511 211.606 427.446 209.342 427.332 207.078Z" fill="white"/>
<path d="M447.336 219.087C446.256 217.599 444.879 216.353 443.293 215.425C441.705 214.485 439.986 213.786 438.192 213.352C437.29 213.169 436.377 213.042 435.459 212.971C434.545 212.881 433.626 212.866 432.709 212.926C431.793 212.947 430.89 213.131 429.986 213.229C429.093 213.421 428.207 213.638 427.332 213.871C428.241 213.79 429.132 213.641 430.03 213.564C430.931 213.536 431.825 213.411 432.723 213.456C434.51 213.447 436.293 213.637 438.039 214.023C439.778 214.418 441.457 215.044 443.031 215.883C444.627 216.715 446.081 217.796 447.336 219.087Z" fill="white"/>
<path d="M377.744 213.871C377.469 214.47 377.144 215.045 376.772 215.59C376.421 216.123 375.969 216.582 375.442 216.942C375.312 217.02 375.175 217.086 375.033 217.141C374.841 217.213 374.667 217.327 374.525 217.474C374.398 217.64 374.313 217.834 374.28 218.04C374.247 218.247 374.265 218.458 374.334 218.655C374.559 219.328 374.926 219.946 375.408 220.467L375.412 220.471L375.431 220.49C375.946 220.975 376.333 221.578 376.56 222.248C376.664 222.564 376.697 222.899 376.655 223.229C376.614 223.559 376.499 223.876 376.319 224.156C375.985 224.699 375.252 225.228 374.971 226.062C374.884 226.277 374.845 226.509 374.857 226.741C374.869 226.973 374.931 227.199 375.04 227.404C375.276 227.784 375.631 228.075 376.05 228.232L375.958 228.168C376.5 228.741 376.914 229.422 377.174 230.167C377.3 230.539 377.339 230.935 377.287 231.323C377.2 231.716 377.016 232.081 376.752 232.384C377.075 232.116 377.317 231.761 377.448 231.361C377.553 230.945 377.56 230.51 377.468 230.091C377.38 229.674 377.23 229.274 377.021 228.902C376.822 228.526 376.587 228.17 376.319 227.84C376.303 227.82 376.283 227.804 376.26 227.792L376.227 227.776C375.935 227.64 375.695 227.416 375.539 227.135C375.478 226.999 375.446 226.851 375.446 226.702C375.445 226.553 375.476 226.405 375.537 226.268C375.761 225.625 376.367 225.225 376.87 224.51C377.113 224.152 377.272 223.744 377.334 223.316C377.383 222.888 377.337 222.454 377.199 222.046C376.922 221.27 376.455 220.575 375.841 220.025L375.864 220.048C375.438 219.599 375.101 219.073 374.871 218.498C374.817 218.387 374.792 218.263 374.797 218.139C374.803 218.015 374.839 217.895 374.902 217.788C374.987 217.693 375.09 217.617 375.206 217.564C375.368 217.488 375.525 217.399 375.672 217.297C376.225 216.88 376.674 216.341 376.984 215.722C377.306 215.135 377.56 214.514 377.744 213.871Z" fill="white"/>
<path d="M365.429 214.566C365.449 214.986 365.47 215.4 365.491 215.813C366.324 215.806 367.164 215.772 367.998 215.682C368.979 215.602 369.951 215.439 370.904 215.193C369.951 214.947 368.979 214.784 367.998 214.704C367.144 214.615 366.283 214.58 365.429 214.566Z" fill="white"/>
<path d="M365.649 219.202C365.677 219.622 365.69 220.035 365.711 220.441C366.475 220.428 367.233 220.393 367.998 220.311C368.979 220.231 369.951 220.067 370.904 219.821C369.951 219.576 368.979 219.412 367.998 219.332C367.212 219.25 366.434 219.215 365.649 219.202Z" fill="white"/>
<path d="M365.856 223.665C365.869 224.085 365.89 224.498 365.904 224.905C366.599 224.884 367.302 224.849 367.998 224.774C368.979 224.694 369.951 224.531 370.904 224.285C369.951 224.039 368.979 223.875 367.998 223.796C367.281 223.72 366.565 223.685 365.856 223.665Z" fill="white"/>
<path d="M367.998 229.127C367.35 229.058 366.703 229.023 366.062 229.003C366.083 229.423 366.097 229.829 366.11 230.222C366.737 230.208 367.371 230.174 367.998 230.105C368.979 230.025 369.951 229.862 370.904 229.616C369.951 229.37 368.979 229.206 367.998 229.127Z" fill="white"/>
<path d="M389.228 239.378C389.228 239.378 401.637 227.114 406.27 235.067C410.903 243.021 407.718 248.855 404.276 252.792C400.082 257.588 399.872 259.024 398.627 260.445C397.383 261.865 383.337 279.037 365.831 278.072C355.619 277.509 355.793 272.067 357.711 267.63C359.105 264.487 361.345 261.794 364.181 259.85C369.773 255.941 382.27 246.89 389.228 239.378Z" fill="#FFDA3A"/>
<path d="M393.46 235.874C390.792 236 388.131 236.179 385.469 236.353L377.489 236.895C374.832 237.105 372.171 237.259 369.512 237.401C368.183 237.483 366.852 237.531 365.522 237.553C364.859 237.552 364.19 237.6 363.529 237.552L362.532 237.504L361.546 237.349C364.172 237.882 366.855 238.077 369.53 237.93C372.203 237.898 374.87 237.738 377.536 237.581C380.198 237.372 382.86 237.163 385.514 236.879C388.169 236.595 390.82 236.282 393.46 235.874Z" fill="white"/>
<path d="M366.904 258.266C366.979 258.266 367.053 258.241 367.113 258.196C367.173 258.15 367.216 258.085 367.236 258.013C367.256 257.94 367.251 257.862 367.223 257.792C367.195 257.722 367.144 257.663 367.079 257.625C366.54 257.307 353.822 249.84 349.063 251.392C348.976 251.421 348.905 251.483 348.864 251.564C348.823 251.646 348.816 251.74 348.845 251.826C348.873 251.913 348.935 251.985 349.016 252.026C349.097 252.067 349.191 252.075 349.278 252.047C353.74 250.585 366.599 258.141 366.729 258.219C366.782 258.25 366.842 258.266 366.904 258.266Z" fill="white"/>
<path d="M290.864 207.63L290.857 207.63L290.832 207.635L260.832 218.753L260.805 218.764C257.823 220.159 254.985 221.844 252.334 223.796C249.656 225.751 247.297 228.108 245.342 230.785C244.335 232.135 243.544 233.634 242.998 235.226C242.47 236.795 242.057 238.401 241.763 240.03C241.094 243.341 241.325 246.77 242.432 249.962C243.052 251.55 243.964 253.008 245.121 254.262C246.286 255.496 247.646 256.529 249.147 257.321C250.638 258.108 252.228 258.692 253.874 259.057C254.692 259.23 255.521 259.352 256.354 259.425L258.789 259.691C265.281 260.385 271.771 261.09 278.269 261.723C291.263 262.994 304.262 264.24 317.289 265.199C320.545 265.442 323.803 265.669 327.065 265.856C330.334 266.019 333.578 266.247 336.901 266.101C338.607 265.961 340.229 265.301 341.549 264.21C342.845 263.164 343.984 261.938 344.933 260.569C346.807 257.857 348.315 254.911 349.419 251.805C349.434 251.764 349.439 251.72 349.432 251.677C349.426 251.633 349.409 251.593 349.382 251.558C349.356 251.523 349.321 251.496 349.281 251.478C349.241 251.46 349.198 251.453 349.154 251.457L349.145 251.457C347.75 251.637 346.338 251.632 344.944 251.444C344.289 251.318 343.595 251.056 343.405 250.5C343.287 249.856 343.415 249.191 343.761 248.636C344.447 247.4 345.248 246.231 346.155 245.147C347.041 244.031 347.96 242.936 348.871 241.833C349.782 240.73 350.687 239.62 351.563 238.486C352.394 237.346 353.398 236.343 354.539 235.514C355.074 235.088 355.702 234.794 356.372 234.657C357.041 234.52 357.734 234.544 358.393 234.726C359.675 235.243 360.721 236.214 361.33 237.455L361.337 237.468C361.36 237.51 361.394 237.543 361.435 237.565C361.476 237.587 361.523 237.597 361.57 237.592C361.617 237.587 361.661 237.569 361.697 237.54C361.734 237.51 361.76 237.47 361.774 237.426C362.225 236.039 362.46 234.591 362.472 233.132C362.476 232.389 362.358 231.65 362.124 230.944C361.882 230.21 361.422 229.568 360.805 229.103L360.84 229.134C360.275 228.639 359.627 228.25 358.926 227.983C358.259 227.705 357.579 227.462 356.887 227.254C355.511 226.834 354.12 226.493 352.723 226.183C349.928 225.57 347.113 225.079 344.293 224.632C338.652 223.747 332.987 223.046 327.317 222.41C315.974 221.138 304.611 220.127 293.226 219.29L293.721 219.76C293.003 215.226 292.073 210.85 291.194 206.408L288.458 193.142L282.96 166.615L282.706 167.309C283.321 166.967 283.987 166.727 284.679 166.597C285.431 166.425 286.203 166.283 286.984 166.169C288.544 165.933 290.129 165.772 291.714 165.63C294.888 165.351 298.081 165.186 301.273 165.042C307.662 164.758 314.063 164.627 320.464 164.551C333.268 164.403 346.081 164.515 358.885 164.693L358.422 164.489C358.849 165.024 359.179 165.63 359.397 166.279C359.659 166.969 359.879 167.69 360.077 168.42C360.47 169.882 360.778 171.382 361.056 172.888C361.604 175.903 362.022 178.952 362.39 182.007C363.118 188.12 363.647 194.263 364.103 200.41C364.554 206.56 364.932 212.716 365.238 218.877C365.578 225.029 365.804 231.199 366.035 237.358L366.035 237.364C366.038 237.443 366.072 237.518 366.13 237.572C366.187 237.626 366.264 237.656 366.343 237.654L392.594 236.972C392.613 236.971 392.63 236.963 392.642 236.95C392.655 236.937 392.662 236.92 392.661 236.902C392.661 236.883 392.654 236.866 392.641 236.853C392.628 236.841 392.61 236.834 392.592 236.834L366.333 237.047L366.641 237.343C366.484 231.169 366.306 225.006 366.028 218.834C365.779 212.673 365.459 206.51 365.069 200.344C364.67 194.182 364.2 188.023 363.527 181.876C363.186 178.803 362.796 175.732 362.27 172.671C362.002 171.141 361.705 169.614 361.312 168.093C361.113 167.333 360.891 166.574 360.612 165.819C360.344 165 359.924 164.239 359.376 163.575C359.321 163.513 359.255 163.463 359.18 163.429C359.105 163.394 359.024 163.374 358.942 163.372L358.913 163.371C352.501 163.206 346.093 163.147 339.682 163.1C333.272 163.059 326.861 163.066 320.449 163.121C314.037 163.186 307.624 163.307 301.209 163.582C298.001 163.725 294.794 163.915 291.586 164.207C289.982 164.357 288.378 164.527 286.771 164.777C285.968 164.898 285.163 165.048 284.355 165.237C283.47 165.405 282.623 165.735 281.857 166.21C281.754 166.28 281.673 166.379 281.626 166.495C281.579 166.61 281.568 166.737 281.593 166.86L281.603 166.904L287.211 193.401L290.028 206.646C290.944 211.052 291.927 215.505 292.662 219.883L292.667 219.911C292.687 220.029 292.746 220.137 292.835 220.217C292.924 220.298 293.037 220.346 293.157 220.353C304.528 221.086 315.898 221.992 327.235 223.159C332.902 223.758 338.564 224.421 344.195 225.268C347.01 225.696 349.818 226.167 352.598 226.758C353.987 227.057 355.369 227.386 356.723 227.791C357.398 227.988 358.063 228.221 358.714 228.487C359.349 228.724 359.939 229.068 360.457 229.505L360.467 229.514L360.493 229.536C361.025 229.935 361.424 230.487 361.634 231.119C361.853 231.77 361.965 232.452 361.965 233.139C361.96 234.542 361.742 235.935 361.318 237.272L361.763 237.243C361.091 235.892 359.94 234.841 358.535 234.294C357.811 234.095 357.049 234.07 356.313 234.221C355.577 234.371 354.887 234.694 354.299 235.162C353.13 236.026 352.096 237.059 351.229 238.226C350.352 239.35 349.444 240.452 348.529 241.549C347.614 242.647 346.689 243.738 345.791 244.857C344.857 245.963 344.032 247.156 343.327 248.42C342.911 249.091 342.772 249.897 342.939 250.668C343.091 251.062 343.385 251.385 343.762 251.575C344.103 251.749 344.468 251.872 344.845 251.941C346.287 252.147 347.75 252.16 349.195 251.982L348.921 251.635C347.827 254.685 346.319 257.571 344.44 260.211C343.511 261.518 342.401 262.686 341.142 263.679C339.918 264.673 338.418 265.265 336.846 265.375C333.645 265.477 330.362 265.214 327.118 265.011C323.866 264.787 320.615 264.521 317.366 264.241C304.368 263.089 291.376 261.843 278.391 260.505L258.912 258.528C257.3 258.332 255.631 258.257 254.118 257.937C252.572 257.601 251.077 257.06 249.674 256.328C246.842 254.908 244.625 252.506 243.437 249.57C242.387 246.562 242.161 243.327 242.782 240.202C243.058 238.617 243.444 237.052 243.938 235.521C244.438 234.017 245.168 232.599 246.103 231.319C247.977 228.695 250.246 226.378 252.83 224.449C255.417 222.499 258.191 220.81 261.11 219.405L261.084 219.416L290.881 207.764L290.857 207.768L290.864 207.768C290.882 207.768 290.899 207.761 290.912 207.748C290.925 207.735 290.932 207.718 290.932 207.699C290.932 207.681 290.925 207.664 290.912 207.651C290.899 207.638 290.882 207.631 290.864 207.631L290.864 207.63Z" fill="white"/>
<path d="M358.899 164.032C363.941 169.735 366.338 237.35 366.338 237.35H361.544C361.544 237.35 363.548 231.413 360.649 229.32C355.38 223.892 293.192 219.821 293.192 219.821C293.054 218.63 292.124 213.891 290.857 207.699C287.647 191.934 282.282 166.76 282.282 166.76C287.736 162.544 358.899 164.032 358.899 164.032ZM323.69 195.026C329.716 195.026 334.6 193.58 334.6 191.803C334.6 190.026 329.716 188.579 323.69 188.579C317.663 188.579 312.78 190.026 312.78 191.803C312.78 193.58 317.663 195.026 323.69 195.026V195.026Z" fill="#FFDA3A"/>
<path d="M428.391 237.921C429.189 242.67 429.607 247.475 429.641 252.29C429.717 257.09 429.257 261.884 428.272 266.583C427.218 271.218 425.39 275.798 422.178 279.27C420.538 280.972 418.636 282.4 416.545 283.5L414.983 284.369C414.459 284.654 413.909 284.895 413.373 285.16C412.298 285.684 411.219 286.202 410.108 286.657C405.707 288.564 401.183 290.211 396.618 291.726C392.056 293.253 387.45 294.654 382.829 296.007C373.592 298.746 364.266 301.132 354.914 303.518C352.519 304.155 350.276 305.265 348.317 306.782C346.358 308.299 344.722 310.192 343.505 312.351C342.904 313.426 342.407 314.555 342.02 315.724C341.665 316.895 341.398 318.09 341.22 319.301L340.034 326.435C338.402 335.939 336.822 345.452 335.126 354.945L324.934 411.9L325.412 411.487C318.298 411.59 311.165 411.496 304.064 411.115C300.514 410.926 296.968 410.659 293.459 410.197C291.714 409.974 289.981 409.66 288.268 409.258C287.429 409.06 286.603 408.809 285.796 408.505C285.05 408.247 284.364 407.842 283.776 407.315L283.951 407.795C284.458 395.598 285.065 383.4 285.696 371.206C286.337 359.012 287.127 346.828 287.926 334.645C288.762 322.465 289.72 310.291 291.038 298.157C291.698 292.09 292.472 286.036 293.444 280.015C293.938 277.007 294.486 274.005 295.223 271.049C295.579 269.57 296.023 268.113 296.554 266.688C296.819 265.978 297.144 265.292 297.527 264.638C297.687 264.304 297.912 264.004 298.189 263.757C298.465 263.509 298.788 263.319 299.138 263.196L299.143 263.195C299.161 263.192 299.177 263.181 299.187 263.166C299.197 263.151 299.201 263.132 299.197 263.115C299.194 263.097 299.183 263.081 299.168 263.071C299.153 263.061 299.135 263.057 299.117 263.06C298.741 263.178 298.393 263.369 298.093 263.623C297.792 263.876 297.545 264.187 297.367 264.538C296.963 265.193 296.616 265.883 296.33 266.598C295.763 268.022 295.282 269.48 294.89 270.962C294.083 273.916 293.466 276.915 292.901 279.92C291.788 285.936 290.987 291.999 290.238 298.064C288.772 310.2 287.666 322.373 286.683 334.553C285.68 346.732 284.959 358.93 284.268 371.129C283.578 383.328 283.021 395.533 282.596 407.745L282.596 407.767C282.593 407.851 282.607 407.935 282.637 408.014C282.667 408.092 282.713 408.164 282.771 408.225C283.499 408.909 284.364 409.43 285.309 409.755C286.173 410.076 287.056 410.34 287.954 410.547C289.716 410.952 291.497 411.265 293.29 411.485C296.857 411.935 300.43 412.184 304.003 412.356C311.151 412.66 318.292 412.668 325.439 412.484C325.554 412.481 325.664 412.438 325.751 412.363C325.839 412.287 325.897 412.184 325.917 412.071L335.575 355.023C337.187 345.516 338.916 336.029 340.592 326.532L341.887 319.417C342.077 318.244 342.353 317.086 342.714 315.954C343.103 314.839 343.597 313.763 344.188 312.742C345.376 310.704 346.958 308.924 348.843 307.507C350.728 306.09 352.877 305.064 355.164 304.489C364.543 302.288 373.901 299.87 383.173 297.185C387.814 295.855 392.416 294.384 396.993 292.835C401.569 291.287 406.108 289.605 410.544 287.652C411.663 287.187 412.754 286.656 413.843 286.117C414.386 285.844 414.94 285.598 415.474 285.304L417.067 284.406C419.243 283.243 421.211 281.727 422.891 279.92C426.216 276.216 428.006 271.474 429.013 266.746C429.959 261.986 430.333 257.13 430.126 252.281C429.976 247.45 429.441 242.639 428.526 237.894C428.522 237.876 428.512 237.86 428.497 237.85C428.481 237.839 428.463 237.836 428.445 237.839C428.427 237.843 428.412 237.854 428.402 237.869C428.391 237.884 428.388 237.903 428.391 237.921Z" fill="white"/>
<path d="M314.268 420.788C314.268 420.788 320.218 420.168 320.218 423.019C320.218 425.871 319.723 446.699 317.243 447.319C314.763 447.939 242.113 472.982 222.773 452.65C222.773 452.65 209.383 445.211 234.675 436.533C259.966 427.854 275.835 419.176 275.835 419.176C275.835 419.176 299.886 419.92 300.382 422.399C300.878 424.879 297.159 433.805 297.159 433.805C297.159 433.805 313.028 437.524 314.268 420.788Z" fill="#FFDA3A"/>
<path d="M314.267 421.133C314.296 421.132 314.325 421.129 314.353 421.122C314.441 421.099 314.517 421.042 314.564 420.963C314.61 420.885 314.624 420.791 314.601 420.702C314.274 419.269 314.232 417.786 314.479 416.337C314.725 414.888 315.255 413.502 316.037 412.258C316.063 412.221 316.082 412.179 316.091 412.135C316.101 412.09 316.102 412.045 316.094 412C316.086 411.956 316.07 411.913 316.045 411.875C316.021 411.837 315.989 411.804 315.952 411.778C315.915 411.752 315.874 411.734 315.829 411.724C315.785 411.714 315.74 411.713 315.695 411.721C315.651 411.729 315.608 411.746 315.57 411.77C315.532 411.794 315.499 411.826 315.473 411.863C314.624 413.184 314.049 414.663 313.785 416.212C313.521 417.76 313.571 419.346 313.934 420.874C313.953 420.948 313.996 421.014 314.056 421.06C314.117 421.107 314.191 421.133 314.267 421.133Z" fill="white"/>
<path d="M278.81 419.52L278.822 419.519C286.318 419.269 293.646 411.45 293.954 411.118C293.985 411.085 294.009 411.046 294.024 411.004C294.04 410.961 294.047 410.916 294.046 410.871C294.044 410.826 294.033 410.781 294.015 410.74C293.996 410.699 293.969 410.662 293.936 410.631C293.903 410.6 293.864 410.576 293.821 410.561C293.779 410.545 293.734 410.538 293.689 410.539C293.643 410.541 293.599 410.552 293.558 410.57C293.517 410.589 293.48 410.616 293.449 410.649C293.375 410.729 286.006 418.591 278.799 418.832C278.708 418.835 278.623 418.873 278.561 418.939C278.499 419.004 278.465 419.092 278.466 419.182C278.468 419.272 278.505 419.358 278.569 419.422C278.633 419.485 278.72 419.52 278.81 419.52V419.52Z" fill="white"/>
<path d="M451.688 234.261C451.738 234.251 451.788 234.251 451.837 234.241L451.898 234.181C451.826 234.204 451.756 234.23 451.688 234.261Z" fill="white"/>
<path d="M429.908 257.871V257.931C429.878 257.751 429.848 257.581 429.817 257.401C429.848 257.561 429.878 257.711 429.908 257.871Z" fill="white"/>
<path d="M292.378 284.111V284.131C292.418 284.141 292.448 284.151 292.488 284.161C292.448 284.141 292.418 284.131 292.378 284.111Z" fill="white"/>
<path d="M461.697 291.476L460.519 312.186L459.445 332.899C459.078 339.803 458.593 346.703 458.474 353.616C458.421 357.073 458.368 360.53 458.404 363.99L458.462 369.18C458.522 370.912 458.544 372.642 458.638 374.375C458.64 374.401 458.651 374.425 458.669 374.444C458.688 374.462 458.712 374.472 458.738 374.473C458.764 374.474 458.789 374.465 458.809 374.449C458.829 374.432 458.842 374.409 458.845 374.383C459.067 372.662 459.216 370.938 459.404 369.215L459.844 364.043C460.135 360.595 460.337 357.144 460.539 353.692C460.929 346.789 460.953 339.872 461.097 332.96L461.552 312.224L461.903 291.484C461.904 291.457 461.893 291.431 461.875 291.411C461.856 291.392 461.831 291.38 461.804 291.379C461.777 291.378 461.75 291.388 461.73 291.406C461.71 291.424 461.698 291.449 461.697 291.476V291.476Z" fill="white"/>
<path d="M405.411 330.656L404.833 351.746L404.357 372.837C404.19 379.867 403.905 386.896 403.985 393.928C404.032 397.444 404.079 400.961 404.216 404.477L404.423 409.753C404.534 411.511 404.605 413.27 404.75 415.029C404.752 415.055 404.764 415.079 404.783 415.096C404.802 415.114 404.827 415.124 404.852 415.124C404.878 415.124 404.903 415.115 404.923 415.097C404.942 415.08 404.954 415.056 404.957 415.03C405.129 413.274 405.228 411.517 405.366 409.76L405.656 404.489C405.847 400.974 405.949 397.459 406.052 393.944C406.242 386.914 406.067 379.882 406.01 372.85L405.865 351.754L405.618 330.657C405.617 330.63 405.606 330.605 405.587 330.585C405.568 330.566 405.542 330.556 405.515 330.555C405.488 330.555 405.462 330.566 405.443 330.584C405.423 330.603 405.412 330.629 405.411 330.656L405.411 330.656Z" fill="white"/>
<path d="M458.742 374.496C453.903 374.496 449.981 373.756 449.981 372.843C449.981 371.93 453.903 371.19 458.742 371.19C463.58 371.19 467.503 371.93 467.503 372.843C467.503 373.756 463.58 374.496 458.742 374.496Z" fill="white"/>
<path d="M405.184 415.367C400.345 415.367 396.423 414.627 396.423 413.714C396.423 412.801 400.345 412.061 405.184 412.061C410.022 412.061 413.945 412.801 413.945 413.714C413.945 414.627 410.022 415.367 405.184 415.367Z" fill="white"/>
<path d="M346.919 317.015L346.148 326.691L345.482 336.37C345.273 339.597 344.885 342.818 344.917 346.054C344.894 349.304 345.085 352.553 345.489 355.779C345.492 355.803 345.504 355.826 345.523 355.842C345.541 355.859 345.564 355.868 345.589 355.869C345.614 355.87 345.638 355.862 345.657 355.847C345.677 355.832 345.69 355.81 345.696 355.786C346.337 352.599 346.766 349.373 346.982 346.13C347.253 342.905 347.104 339.665 347.133 336.431L347.181 326.729L347.126 317.023C347.125 316.996 347.115 316.971 347.096 316.952C347.078 316.932 347.053 316.921 347.026 316.92C346.999 316.919 346.973 316.929 346.953 316.946C346.933 316.964 346.921 316.989 346.919 317.015Z" fill="white"/>
<path d="M269.945 294.858L269.368 315.702L268.895 336.546C268.729 343.494 268.444 350.442 268.525 357.392C268.572 360.867 268.619 364.342 268.756 367.818L268.964 373.032C269.074 374.77 269.146 376.508 269.291 378.246C269.293 378.272 269.305 378.296 269.324 378.314C269.343 378.331 269.368 378.341 269.394 378.341C269.419 378.342 269.444 378.332 269.464 378.315C269.483 378.297 269.495 378.274 269.498 378.248C269.67 376.512 269.769 374.775 269.907 373.039L270.196 367.829C270.387 364.356 270.489 360.882 270.591 357.408C270.781 350.46 270.605 343.509 270.548 336.559L270.401 315.71L270.151 294.859C270.151 294.832 270.14 294.806 270.121 294.787C270.102 294.768 270.076 294.757 270.049 294.757C270.022 294.757 269.996 294.767 269.976 294.786C269.957 294.805 269.945 294.831 269.945 294.858V294.858Z" fill="white"/>
<path d="M345.592 355.9C340.754 355.9 336.831 355.16 336.831 354.247C336.831 353.334 340.754 352.594 345.592 352.594C350.431 352.594 354.353 353.334 354.353 354.247C354.353 355.16 350.431 355.9 345.592 355.9Z" fill="white"/>
<path d="M269.725 378.584C264.886 378.584 260.964 377.844 260.964 376.931C260.964 376.018 264.886 375.278 269.725 375.278C274.564 375.278 278.486 376.018 278.486 376.931C278.486 377.844 274.564 378.584 269.725 378.584Z" fill="white"/>
<path d="M361.546 237.693H366.338C366.429 237.693 366.516 237.656 366.58 237.592C366.644 237.527 366.681 237.44 366.681 237.349C366.681 237.257 366.644 237.17 366.58 237.105C366.516 237.041 366.429 237.004 366.338 237.004H361.546C361.455 237.004 361.368 237.041 361.304 237.105C361.239 237.17 361.203 237.257 361.203 237.349C361.203 237.44 361.239 237.527 361.304 237.592C361.368 237.656 361.455 237.693 361.546 237.693Z" fill="white"/>
</svg>
