<svg width="30" height="30" viewBox="0 0 30 30" fill="none" xmlns="http://www.w3.org/2000/svg">
<path d="M13.5 13.4691C13.5 12.6406 14.1716 11.9691 15 11.9691C15.8284 11.9691 16.5 12.6406 16.5 13.4691V22.4691C16.5 23.2975 15.8284 23.9691 15 23.9691C14.1716 23.9691 13.5 23.2975 13.5 22.4691V13.4691Z" fill="#2A3136"/>
<path d="M15 6.07672C14.1716 6.07672 13.5 6.74829 13.5 7.57672C13.5 8.40515 14.1716 9.07672 15 9.07672C15.8284 9.07672 16.5 8.40515 16.5 7.57672C16.5 6.74829 15.8284 6.07672 15 6.07672Z" fill="#2A3136"/>
<path fill-rule="evenodd" clip-rule="evenodd" d="M15 0C6.71573 0 0 6.71573 0 15C0 23.2843 6.71573 30 15 30C23.2843 30 30 23.2843 30 15C30 6.71573 23.2843 0 15 0ZM3 15C3 21.6274 8.37258 27 15 27C21.6274 27 27 21.6274 27 15C27 8.37258 21.6274 3 15 3C8.37258 3 3 8.37258 3 15Z" fill="#2A3136"/>
</svg>
