<svg width="56" height="74" viewBox="0 0 56 74" fill="none" xmlns="http://www.w3.org/2000/svg">
<path d="M40.3623 45.1007C41.7704 44.1349 43.7244 43.2989 43.7244 43.2989C43.7244 43.2989 38.1639 44.3079 32.6321 44.7691C25.8646 45.3313 18.5943 45.4466 14.9447 44.9565C6.30935 43.8034 19.6862 40.618 19.6862 40.618C19.6862 40.618 14.4993 40.2721 8.10539 43.3566C0.56202 47.0177 26.7842 48.6897 40.3623 45.1007ZM28.0917 40.4738C25.3617 34.3192 16.1516 28.914 28.0917 19.4586C42.9859 7.66812 35.3477 0 35.3477 0C38.4369 12.1796 24.4853 15.8696 19.442 23.4368C16.008 28.6113 21.1231 34.1606 28.0917 40.4738ZM44.5578 15.0768C44.5722 15.0768 19.3845 21.39 31.4108 35.2849C34.9598 39.3784 30.4769 43.0683 30.4769 43.0683C30.4769 43.0683 39.4858 38.3983 35.3477 32.5607C31.4826 27.1123 28.5228 24.4025 44.5578 15.0768ZM43.6813 54.066C43.6028 54.2034 43.5061 54.3294 43.394 54.4408C61.8285 49.5833 55.0467 37.3028 46.2389 40.4162C45.7632 40.5915 45.3522 40.9083 45.0607 41.3243C45.575 41.1375 46.1036 40.9929 46.6412 40.8918C51.0954 39.9549 57.4893 46.8736 43.6813 54.066ZM50.4574 63.0458C50.4574 63.0458 52.5408 64.761 48.1729 66.1015C39.8536 68.6239 13.574 69.3878 6.27486 66.2024C3.64546 65.0637 8.57379 63.4638 10.1256 63.1323C11.7348 62.7863 12.6688 62.844 12.6688 62.844C9.75199 60.7828 -6.19684 66.8943 4.56503 68.6383C33.9109 73.4237 58.0726 66.4907 50.4574 63.0458ZM18.3356 57.0785C7.02776 60.2495 25.2181 66.7934 39.6151 60.6099C38.211 60.0626 36.8555 59.3972 35.5632 58.6208C29.1406 59.8459 26.1664 59.9324 20.3328 59.2694C15.5194 58.7217 18.3356 57.0785 18.3356 57.0785ZM44.1699 71.0887C32.862 73.2219 18.9104 72.9769 10.6486 71.6076C10.6486 71.5932 12.344 73.0057 21.0512 73.5678C34.2988 74.4183 54.6444 73.0922 55.1185 66.8078C55.1185 66.8078 54.1989 69.1861 44.1699 71.0887ZM37.9053 50.8806C29.3992 52.5237 24.4709 52.4805 18.2494 51.8319C13.436 51.3274 16.5827 48.9924 16.5827 48.9924C4.11099 53.1435 23.5082 57.8424 40.937 52.7255C39.8106 52.3265 38.7784 51.6984 37.9053 50.8806Z" fill="#FFDA3A"/>
</svg>
