<svg width="60" height="67" viewBox="0 0 60 67" fill="none" xmlns="http://www.w3.org/2000/svg">
<path d="M27.3996 0.845973C29.0153 -0.097973 31.1197 -0.102237 32.734 0.845973C40.8554 5.52993 48.9794 10.2066 57.0994 14.8934C58.6267 15.7714 59.6482 17.5063 59.6327 19.3025V47.4831C59.6441 49.3536 58.5215 51.13 56.9102 51.9882C48.8155 56.6463 40.725 61.3101 32.6317 65.9683C30.9826 66.9307 28.8359 66.8566 27.2383 65.8153C24.8115 64.3793 22.3805 62.9505 19.9535 61.516C19.4576 61.2142 18.8985 60.974 18.5483 60.4832C18.8579 60.0573 19.4114 60.0042 19.8612 59.8183C20.8741 59.4895 21.8045 58.9618 22.7351 58.4496C22.9705 58.2852 23.2578 58.3483 23.4833 58.4954C25.5585 59.7098 27.6154 60.9596 29.6976 62.1624C30.1418 62.4242 30.5915 62.0767 30.9712 61.8606C38.9146 57.2783 46.8677 52.7132 54.8097 48.1295C55.104 47.985 55.2667 47.6662 55.2428 47.3371C55.2484 38.041 55.2442 28.7432 55.2456 19.447C55.2792 19.0737 55.0676 18.7305 54.7369 18.5777C46.6702 13.9409 38.6078 9.29695 30.5426 4.65895C30.4028 4.56089 30.2373 4.50828 30.0677 4.50803C29.8981 4.50777 29.7325 4.55989 29.5924 4.65752C21.5272 9.29695 13.4661 13.9451 5.40091 18.5817C5.07136 18.7348 4.8502 19.0723 4.88942 19.447C4.89081 28.7432 4.88942 38.041 4.88942 47.3386C4.87543 47.4991 4.90998 47.6601 4.9884 47.8C5.06682 47.9399 5.18535 48.0519 5.32803 48.121C7.48028 49.3667 9.63531 50.6036 11.789 51.8451C13.0022 52.5117 14.4919 52.9077 15.8286 52.397C17.0083 51.9652 17.8352 50.7365 17.8126 49.4581C17.8238 40.2162 17.8071 30.9729 17.821 21.7324C17.7915 21.3221 18.1728 20.9832 18.5636 21.0218C19.5977 21.0147 20.6333 21.0076 21.6674 21.0246C22.099 21.0147 22.3961 21.4564 22.3427 21.8698C22.3385 31.1702 22.3538 40.4708 22.3357 49.7713C22.3385 52.2499 21.3409 54.947 19.0946 56.1598C16.3274 57.6229 12.9071 57.3126 10.1733 55.9096C7.80658 54.7039 5.54804 53.281 3.22336 51.9894C1.6079 51.1359 0.490934 49.3525 0.502305 47.4833V19.3025C0.485364 17.4691 1.54756 15.7028 3.12241 14.8375C11.2157 10.1755 19.3077 5.51004 27.3996 0.845973Z" fill="#FFDA3A"/>
<path d="M34.4633 20.3688C37.9932 20.1369 41.772 20.2314 44.9484 22.0063C47.4077 23.3664 48.7711 26.221 48.8145 29.0097C48.7458 29.3859 48.3606 29.5934 48.0088 29.5676C46.9846 29.5661 45.9603 29.5818 44.9361 29.5605C44.5017 29.5775 44.2492 29.1687 44.1946 28.7766C43.9004 27.4423 43.1874 26.1208 41.957 25.4772C40.0681 24.5119 37.8781 24.5605 35.8184 24.5806C34.3148 24.6621 32.698 24.795 31.4241 25.6975C30.4462 26.3811 30.1491 27.7612 30.4981 28.8726C30.8272 29.6706 31.7298 29.9281 32.4682 30.1654C36.7221 31.301 41.2299 31.188 45.4026 32.6825C47.1301 33.2917 48.8201 34.4761 49.4114 36.3223C50.1849 38.7967 49.8459 41.7543 48.1211 43.7407C46.7224 45.3754 44.6852 46.2651 42.6534 46.7483C39.9505 47.3635 37.1454 47.3791 34.4005 47.106C31.8193 46.8056 29.1333 46.1135 27.1407 44.3184C25.4369 42.8084 24.6047 40.4555 24.6873 38.1846C24.707 37.8011 25.0811 37.5337 25.441 37.5652C26.4724 37.5566 27.5037 37.5538 28.535 37.5666C28.947 37.5365 29.2524 37.8999 29.2735 38.2962C29.4638 39.5675 29.9319 40.9018 31.018 41.6555C33.1141 43.0358 35.7442 42.9413 38.1443 42.9799C40.1327 42.8899 42.3647 42.8626 43.9874 41.5212C44.8435 40.7561 45.0972 39.476 44.8658 38.3748C44.6152 37.4451 43.6623 37.0118 42.844 36.7285C38.6446 35.3726 34.0865 35.8646 29.9277 34.3313C28.2394 33.7223 26.6067 32.5709 25.9581 30.8005C25.053 28.2948 25.4677 25.1956 27.3733 23.2762C29.2313 21.367 31.9133 20.6317 34.4633 20.3685V20.3688Z" fill="#FFDA3A"/>
</svg>
