<svg width="116" height="153" viewBox="0 0 116 153" fill="none" xmlns="http://www.w3.org/2000/svg">
<path d="M83.9626 93.4835C86.9502 91.4818 91.0963 89.7489 91.0963 89.7489C91.0963 89.7489 79.2982 91.8403 67.5611 92.7963C53.2022 93.9615 37.7763 94.2005 30.0328 93.1847C11.7107 90.7946 40.0932 84.1919 40.0932 84.1919C40.0932 84.1919 29.0877 83.4749 15.5215 89.8685C-0.48369 97.4571 55.1533 100.923 83.9626 93.4835ZM57.9275 83.8932C52.1352 71.1359 32.5936 59.9322 57.9275 40.3332C89.5293 15.8943 73.3229 0 73.3229 0C79.8774 25.2456 50.2755 32.894 39.5749 48.5792C32.2888 59.3048 43.1418 70.8073 57.9275 83.8932ZM92.8645 31.2508C92.895 31.2508 39.453 44.3367 64.9698 73.1376C72.4998 81.6225 62.9882 89.2709 62.9882 89.2709C62.9882 89.2709 82.1029 79.5909 73.3229 67.491C65.1222 56.1977 58.8421 50.5809 92.8645 31.2508ZM91.0048 112.067C90.8382 112.351 90.6331 112.613 90.3951 112.843C129.509 102.775 115.119 77.3203 96.4313 83.7737C95.422 84.1371 94.5499 84.7938 93.9315 85.6559C95.0228 85.2688 96.1443 84.9691 97.285 84.7596C106.736 82.8176 120.302 97.1583 91.0048 112.067ZM105.382 130.68C105.382 130.68 109.803 134.235 100.535 137.014C82.8834 142.242 27.1244 143.825 11.6375 137.223C6.05861 134.862 16.5153 131.546 19.8078 130.859C23.2222 130.142 25.2038 130.261 25.2038 130.261C19.0152 125.989 -14.8243 138.657 8.00971 142.272C70.2743 152.191 121.54 137.82 105.382 130.68ZM37.2275 118.311C13.235 124.884 51.8303 138.448 82.3773 125.631C79.3981 124.496 76.5222 123.117 73.7802 121.508C60.153 124.047 53.8424 124.226 41.4651 122.852C31.2523 121.717 37.2275 118.311 37.2275 118.311ZM92.0414 147.351C68.0489 151.773 38.4469 151.265 20.9175 148.426C20.9175 148.396 24.5148 151.324 42.9894 152.49C71.0975 154.252 114.266 151.504 115.272 138.477C115.272 138.477 113.321 143.407 92.0414 147.351ZM78.7495 105.464C60.7017 108.87 50.245 108.78 37.0446 107.436C26.8318 106.39 33.5082 101.55 33.5082 101.55C7.04635 110.155 48.2025 119.894 85.182 109.288C82.792 108.461 80.6021 107.159 78.7495 105.464Z" fill="white"/>
</svg>
