<svg width="29" height="25" viewBox="0 0 29 25" fill="none" xmlns="http://www.w3.org/2000/svg">
<path fill-rule="evenodd" clip-rule="evenodd" d="M2.59662 3.125C2.59662 1.39911 3.7383 0 5.14663 0H22.9967C24.4051 0 25.5468 1.39911 25.5468 3.125V15.625C25.5468 17.3509 24.4051 18.75 22.9967 18.75H5.14663C3.7383 18.75 2.59662 17.3509 2.59662 15.625V3.125ZM5.14663 3.125H22.9967V15.625H5.14663V3.125Z" fill="#FFDA3A"/>
<path d="M1.32161 21.875C0.617441 21.875 0.0466003 22.5746 0.0466003 23.4375C0.0466003 24.3004 0.617441 25 1.32161 25H26.8218C27.5259 25 28.0968 24.3004 28.0968 23.4375C28.0968 22.5746 27.5259 21.875 26.8218 21.875H1.32161Z" fill="#FFDA3A"/>
</svg>
