<svg width="700" height="550" viewBox="0 0 700 550" fill="none" xmlns="http://www.w3.org/2000/svg">
<circle cx="296" cy="243" r="183" fill="#FFDA3A"/>
<path d="M277.707 367.531C277.666 367.531 277.625 367.523 277.587 367.507C277.549 367.491 277.514 367.468 277.485 367.439C277.456 367.41 277.433 367.375 277.417 367.337C277.401 367.299 277.393 367.259 277.393 367.217V337.5C277.394 337.418 277.428 337.339 277.487 337.281C277.545 337.224 277.625 337.191 277.707 337.191C277.789 337.191 277.869 337.224 277.927 337.281C277.986 337.339 278.02 337.418 278.021 337.5V367.217C278.021 367.258 278.013 367.299 277.997 367.337C277.981 367.375 277.958 367.41 277.929 367.439C277.9 367.468 277.865 367.491 277.827 367.507C277.789 367.523 277.748 367.531 277.707 367.531Z" fill="#22272B"/>
<path d="M308.998 313.935C308.322 315.083 307.527 316.157 306.625 317.138C305.759 318.148 304.809 319.077 303.876 320.024C301.952 321.854 299.977 323.635 297.899 325.291C293.754 328.625 289.362 331.64 284.761 334.309C280.164 337.014 275.305 339.248 270.259 340.977C267.727 341.839 265.135 342.514 262.504 342.997C261.171 343.157 259.843 343.417 258.505 343.491C257.166 343.53 255.825 343.591 254.486 343.608C249.146 343.428 243.84 342.677 238.66 341.366C233.489 340.115 228.399 338.551 223.417 336.683C218.431 334.85 213.536 332.79 208.664 330.709C207.446 330.196 206.225 329.671 204.998 329.223C204.397 329.012 203.75 328.793 203.107 328.527C202.809 328.353 202.497 328.201 202.214 328.007C201.935 327.806 201.668 327.588 201.415 327.355C200.448 326.387 199.721 325.205 199.295 323.905C198.861 322.624 198.621 321.285 198.583 319.933L198.586 319.972C195.394 302.475 191.296 285.156 186.308 268.084C183.881 259.533 181.169 251.065 178.384 242.627C175.593 234.191 172.617 225.818 169.458 217.511C167.864 213.365 166.266 209.22 164.592 205.106C163.782 203.043 162.832 201.038 162.13 198.855C161.435 196.691 160.981 194.456 160.776 192.192C160.662 191.045 160.629 189.892 160.679 188.74C160.806 187.493 161.321 186.318 162.151 185.379C162.981 184.44 164.084 183.784 165.306 183.505C166.415 183.227 167.545 183.041 168.685 182.948C170.988 182.794 173.299 183.11 175.476 183.878L181.814 185.958L207.169 194.279C208.255 194.59 209.314 194.986 210.336 195.465C211.359 195.98 212.297 196.649 213.117 197.449C214.774 199.047 215.856 201.149 216.193 203.426L218.074 216.639C218.077 216.655 218.072 216.671 218.063 216.684C218.053 216.698 218.038 216.706 218.022 216.709C218.006 216.711 217.989 216.707 217.976 216.698C217.962 216.688 217.953 216.674 217.95 216.658L215.736 203.502C215.355 201.351 214.29 199.381 212.699 197.884C211.914 197.138 211.02 196.518 210.047 196.044C209.048 195.595 208.015 195.225 206.958 194.939L181.492 186.963L175.126 184.969C173.086 184.276 170.926 184.008 168.778 184.181C167.702 184.286 166.635 184.471 165.586 184.733C164.624 184.956 163.756 185.474 163.104 186.215C162.451 186.956 162.047 187.883 161.948 188.866C161.911 189.937 161.946 191.009 162.054 192.075C162.255 194.244 162.696 196.385 163.366 198.457C164.028 200.511 164.987 202.538 165.808 204.61C167.494 208.733 169.118 212.879 170.68 217.049C176.927 233.728 182.4 250.665 187.098 267.862C189.445 276.448 191.635 285.076 193.576 293.761C195.625 302.422 197.308 311.161 199.018 319.894L199.021 319.916L199.021 319.933C199.013 322.547 199.988 325.068 201.753 326.996C201.989 327.21 202.236 327.41 202.495 327.595C202.757 327.773 203.05 327.904 203.325 328.062C203.909 328.29 204.521 328.49 205.174 328.705C206.443 329.144 207.668 329.646 208.899 330.14C213.81 332.138 218.723 334.106 223.716 335.85C228.698 337.604 233.768 339.097 238.905 340.325C244.02 341.569 249.247 342.301 254.507 342.508C255.816 342.499 257.124 342.447 258.434 342.419C259.74 342.356 261.025 342.109 262.323 341.964C264.908 341.506 267.456 340.86 269.946 340.031C274.939 338.338 279.762 336.182 284.352 333.59C288.961 331.006 293.374 328.086 297.555 324.855C299.666 323.264 301.678 321.546 303.642 319.777C304.594 318.861 305.565 317.962 306.451 316.982C307.37 316.036 308.186 314.995 308.886 313.877L308.89 313.871C308.899 313.857 308.913 313.846 308.929 313.842C308.945 313.838 308.962 313.841 308.976 313.849C308.99 313.857 309.001 313.871 309.005 313.887C309.009 313.904 309.007 313.921 308.998 313.935L308.998 313.935Z" fill="#22272B"/>
<path d="M165.827 189.243L175.445 192.618L185.038 196.057L194.62 199.528L204.185 203.043C204.266 203.073 204.339 203.123 204.396 203.187C204.454 203.252 204.494 203.33 204.515 203.414L204.517 203.423C206.429 211.605 208.268 219.805 210.031 228.022C211.811 236.235 213.517 244.464 215.366 252.661C219.007 269.069 222.984 285.399 226.827 301.761C227.744 305.799 229.419 309.627 231.763 313.041C234.102 316.437 237.162 319.276 240.725 321.354C244.298 323.387 248.328 324.483 252.439 324.542C254.514 324.528 256.587 324.407 258.65 324.178C260.727 323.955 262.804 323.722 264.86 323.38C268.98 322.752 273.032 321.741 276.964 320.361C280.886 318.924 284.696 317.197 288.361 315.193C292.058 313.227 295.668 311.082 299.244 308.882C302.838 306.71 306.399 304.478 309.963 302.252C309.977 302.243 309.993 302.24 310.01 302.243C310.026 302.247 310.04 302.257 310.049 302.271C310.058 302.284 310.061 302.301 310.058 302.317C310.054 302.334 310.045 302.348 310.031 302.357C303.063 307.054 296.13 311.816 288.785 315.966C285.118 318.072 281.29 319.886 277.338 321.39C273.361 322.864 269.25 323.948 265.063 324.626C262.976 324.98 260.876 325.222 258.777 325.454C256.664 325.695 254.541 325.825 252.415 325.844C248.08 325.81 243.827 324.654 240.071 322.489C236.405 320.245 233.243 317.265 230.786 313.738C228.328 310.211 226.629 306.212 225.794 301.995C222.2 285.577 218.74 269.129 214.945 252.757C213.075 244.564 211.063 236.404 209.124 228.227C207.178 220.052 205.298 211.862 203.484 203.657L203.815 204.036L194.283 200.433L184.767 196.784L175.263 193.104L165.783 189.36C165.768 189.354 165.756 189.342 165.749 189.327C165.742 189.312 165.742 189.295 165.747 189.28C165.753 189.264 165.765 189.252 165.78 189.245C165.795 189.238 165.812 189.237 165.827 189.243L165.827 189.243Z" fill="#22272B"/>
<path d="M276.912 140.788C274.277 139.188 273.613 134.368 275.644 131.143C278.205 127.074 281.068 134.457 281.068 134.457C285.739 141.388 295.231 122.856 295.231 122.856C295.231 122.856 287.698 113.363 270.521 119.692C253.345 126.02 265.097 147.566 265.097 147.566C265.097 147.566 247.167 156.003 253.194 178.453C253.194 178.453 269.216 174.725 268.261 147.985C268.261 147.985 274.966 145.343 276.912 140.788" fill="#22272B"/>
<path d="M278.789 141.266C277.831 141.502 276.819 141.357 275.966 140.861C275.931 140.84 275.9 140.811 275.875 140.778C275.851 140.744 275.833 140.706 275.823 140.666C275.813 140.625 275.811 140.583 275.818 140.542C275.824 140.501 275.838 140.462 275.86 140.426C275.882 140.391 275.91 140.36 275.944 140.335C275.977 140.311 276.015 140.293 276.056 140.283C276.096 140.273 276.138 140.272 276.179 140.278C276.22 140.284 276.259 140.299 276.295 140.32C276.318 140.335 276.339 140.352 276.358 140.371C277.024 140.97 277.894 141.29 278.789 141.266Z" fill="white"/>
<path d="M294.743 123.825C295.766 125.462 296.566 127.229 297.123 129.078C297.719 130.951 297.944 132.923 297.785 134.882L297.664 134.526C298.237 135.128 298.796 135.744 299.348 136.366L301.001 138.268C301.146 138.46 301.25 138.68 301.307 138.914C301.364 139.148 301.373 139.39 301.333 139.628C301.293 139.865 301.205 140.091 301.074 140.293C300.944 140.496 300.773 140.669 300.573 140.803C300.234 141.063 299.871 141.291 299.489 141.484C299.292 141.607 299.07 141.684 298.839 141.71C298.608 141.737 298.375 141.711 298.155 141.635L298.374 141.503C298.349 144.215 298.064 146.917 297.523 149.574C297.24 150.961 296.652 152.267 295.801 153.398C295.303 154.016 294.6 154.436 293.82 154.582C293.427 154.628 293.03 154.612 292.642 154.535L291.675 154.369C290.416 154.143 289.127 154.143 287.868 154.37C286.631 154.627 285.486 155.213 284.554 156.067C282.739 157.994 281.338 160.272 280.438 162.761C280.433 162.774 280.423 162.784 280.411 162.789C280.399 162.794 280.385 162.795 280.373 162.79C280.362 162.785 280.352 162.776 280.347 162.765C280.341 162.754 280.34 162.742 280.343 162.73C280.667 161.413 281.115 160.129 281.679 158.895C282.232 157.622 283.005 156.456 283.962 155.45C284.962 154.414 286.24 153.688 287.643 153.361C289.027 153.068 290.455 153.054 291.844 153.32L292.858 153.526C293.128 153.588 293.406 153.61 293.683 153.591C294.236 153.496 294.738 153.206 295.098 152.775C295.889 151.767 296.466 150.609 296.795 149.372C297.567 146.815 297.997 144.168 298.073 141.499C298.074 141.458 298.092 141.42 298.122 141.393C298.151 141.365 298.191 141.35 298.231 141.352C298.252 141.353 298.273 141.358 298.292 141.367C298.469 141.415 298.655 141.425 298.837 141.395C299.018 141.365 299.191 141.297 299.344 141.194C299.699 141 300.032 140.769 300.337 140.504C300.479 140.399 300.599 140.266 300.687 140.113C300.775 139.961 300.831 139.791 300.851 139.615C300.87 139.44 300.853 139.262 300.801 139.093C300.748 138.925 300.661 138.769 300.545 138.636L298.771 136.915C298.177 136.333 297.59 135.744 297.017 135.142C296.974 135.097 296.941 135.043 296.921 134.985C296.9 134.927 296.891 134.864 296.895 134.803L296.897 134.785C296.976 133.867 296.974 132.943 296.89 132.024C296.793 131.095 296.64 130.172 296.431 129.261C295.992 127.418 295.398 125.616 294.655 123.873C294.652 123.867 294.651 123.861 294.65 123.854C294.65 123.848 294.651 123.841 294.653 123.835C294.655 123.829 294.659 123.823 294.663 123.818C294.668 123.813 294.673 123.809 294.679 123.806C294.69 123.802 294.702 123.801 294.714 123.804C294.726 123.808 294.736 123.815 294.743 123.825Z" fill="black"/>
<path d="M292.029 131.218C292.596 130.646 293.355 130.305 294.159 130.261C294.952 130.184 295.75 130.361 296.437 130.766C295.644 130.826 294.931 130.821 294.213 130.886C293.479 130.95 292.75 131.061 292.029 131.218Z" fill="black"/>
<path d="M293.951 135.098C294.195 135.089 294.426 134.986 294.596 134.811C294.765 134.635 294.86 134.4 294.86 134.156C294.86 133.912 294.765 133.677 294.596 133.501C294.426 133.326 294.195 133.223 293.951 133.214C293.706 133.223 293.475 133.326 293.305 133.501C293.136 133.677 293.041 133.912 293.041 134.156C293.041 134.4 293.136 134.635 293.305 134.811C293.475 134.986 293.706 135.089 293.951 135.098Z" fill="black"/>
<path d="M281.746 145.908C282.624 146.976 283.424 148.055 284.278 149.09C285.117 150.144 286.047 151.121 287.057 152.01C285.767 151.47 284.641 150.601 283.793 149.488C282.909 148.422 282.216 147.211 281.746 145.908Z" fill="black"/>
<path d="M217.284 212.563C217.908 209.667 218.666 206.854 219.483 204.03C220.311 201.216 221.176 198.409 222.177 195.648C224.123 190.091 226.449 184.676 229.138 179.439C230.509 176.819 232.024 174.278 233.677 171.827C235.318 169.343 237.175 167.01 239.227 164.854C241.281 162.645 243.651 160.752 246.26 159.237C248.921 157.701 251.902 156.8 254.969 156.606L254.978 156.606C255.03 156.604 255.082 156.606 255.134 156.613C258.101 157.046 261.041 157.557 263.976 158.136C266.911 158.708 269.838 159.327 272.747 160.046C275.695 160.702 278.575 161.633 281.349 162.827C282.723 163.509 283.97 164.23 285.324 164.876L289.359 166.806C290.721 167.45 292.039 168.183 293.305 168.999C294.606 169.816 295.732 170.883 296.616 172.14C298.353 174.514 300.392 176.72 302.344 178.96C306.292 183.42 310.317 187.814 314.418 192.141C314.487 192.214 314.531 192.308 314.543 192.408C314.555 192.507 314.535 192.608 314.485 192.696L314.481 192.703C312.96 195.382 311.319 197.962 309.596 200.503C307.869 203.039 306.036 205.509 304.069 207.88C302.097 210.269 299.934 212.493 297.602 214.531C295.241 216.67 292.468 218.304 289.452 219.332L289.854 219.093C287.675 221.309 285.446 223.436 283.095 225.476C281.918 226.492 280.713 227.483 279.423 228.406C278.77 228.881 278.088 229.317 277.382 229.71C276.568 230.219 275.633 230.505 274.673 230.54L275.728 229.313C276.228 231.505 276.747 233.701 277.291 235.881L278.132 239.137C278.274 239.677 278.424 240.213 278.58 240.737C278.716 241.223 278.881 241.701 279.072 242.168L279.095 242.218C279.151 242.344 279.182 242.479 279.185 242.616C279.189 242.754 279.166 242.891 279.117 243.019C279.067 243.147 278.994 243.265 278.899 243.364C278.805 243.464 278.691 243.544 278.566 243.6C278.462 243.646 278.351 243.675 278.237 243.687C271.237 244.344 264.249 244.793 257.232 245.037C250.202 245.324 243.161 245.162 236.151 244.554C234.394 244.37 232.638 244.149 230.889 243.813C229.111 243.509 227.372 243.014 225.7 242.338C224.823 241.979 224.004 241.493 223.27 240.895C222.882 240.562 222.55 240.168 222.288 239.728C222.037 239.285 221.899 238.899 221.7 238.481C220.994 236.847 220.417 235.16 219.974 233.435C219.102 230.024 218.47 226.557 218.082 223.058C217.674 219.567 217.404 216.093 217.284 212.563ZM217.483 212.582C218.003 219.531 219.19 226.414 221.028 233.136C221.508 234.786 222.117 236.396 222.848 237.951C223.036 238.316 223.218 238.749 223.41 239.059C223.608 239.364 223.855 239.636 224.139 239.863C224.782 240.347 225.492 240.734 226.247 241.013C229.501 242.081 232.883 242.714 236.303 242.894C243.247 243.33 250.211 243.373 257.159 243.021C264.122 242.749 271.098 242.271 278.023 241.591L277.188 243.11C276.938 242.538 276.727 241.949 276.557 241.348C276.388 240.791 276.232 240.24 276.084 239.688C275.78 238.586 275.518 237.482 275.253 236.379C274.728 234.171 274.232 231.965 273.752 229.748C273.724 229.618 273.721 229.483 273.745 229.352C273.769 229.221 273.818 229.096 273.891 228.984C273.963 228.872 274.056 228.775 274.166 228.699C274.275 228.624 274.399 228.57 274.529 228.542C274.62 228.523 274.714 228.516 274.807 228.521C275.384 228.449 275.94 228.255 276.435 227.95C277.075 227.602 277.693 227.216 278.287 226.793C279.506 225.941 280.688 224.993 281.847 224.015C284.159 222.054 286.402 219.96 288.554 217.819L288.561 217.812C288.672 217.703 288.808 217.624 288.957 217.58C291.745 216.657 294.322 215.188 296.537 213.259C298.839 211.32 300.983 209.2 302.949 206.921C304.946 204.651 306.828 202.268 308.609 199.81C310.389 197.354 312.09 194.82 313.649 192.228L313.712 192.79C309.753 188.327 305.778 183.883 301.85 179.394C299.9 177.129 297.937 174.904 296.098 172.507C294.428 170.111 291.676 168.763 289.034 167.479C286.358 166.227 283.584 164.997 280.94 163.687C278.198 162.613 275.361 161.797 272.468 161.249C266.67 159.996 260.767 159.152 254.899 158.286L255.063 158.293C252.262 158.5 249.547 159.353 247.131 160.783C244.683 162.234 242.442 164.008 240.467 166.055C238.455 168.119 236.63 170.357 235.013 172.743C233.363 175.128 231.847 177.602 230.472 180.155C227.686 185.274 225.235 190.569 223.137 196.006C221.003 201.432 219.099 206.989 217.483 212.582L217.483 212.582Z" fill="#22272B"/>
<path d="M289.204 218.456C288.491 216.831 287.82 215.193 287.142 213.558C286.461 211.925 285.82 210.277 285.113 208.657C284.458 207.017 283.754 205.396 283.023 203.792C282.669 202.984 282.284 202.193 281.867 201.418C281.672 201.023 281.454 200.642 281.212 200.275C281.097 200.087 280.973 199.907 280.839 199.733L280.39 199.246C281.687 200.475 282.729 201.948 283.457 203.58C284.285 205.156 284.989 206.788 285.692 208.417C286.353 210.064 287.005 211.713 287.591 213.387C288.177 215.06 288.734 216.744 289.204 218.456Z" fill="#22272B"/>
<path d="M279.26 249.734C279.201 249.734 279.142 249.717 279.092 249.685C279.042 249.653 279.002 249.607 278.976 249.553L275.87 242.959C275.852 242.922 275.842 242.882 275.84 242.84C275.837 242.799 275.844 242.758 275.857 242.719C275.871 242.68 275.893 242.644 275.921 242.613C275.948 242.583 275.982 242.558 276.019 242.54C276.057 242.523 276.097 242.512 276.139 242.511C276.18 242.509 276.221 242.515 276.26 242.529C276.299 242.543 276.335 242.565 276.365 242.593C276.396 242.621 276.421 242.654 276.438 242.692L279.544 249.286C279.567 249.334 279.577 249.386 279.573 249.439C279.57 249.492 279.554 249.543 279.525 249.588C279.497 249.632 279.458 249.669 279.411 249.695C279.365 249.72 279.313 249.734 279.26 249.734Z" fill="black"/>
<path d="M222.878 239.701L226.67 253.657C224.686 246.657 223.28 241.251 222.878 239.701Z" fill="#FFDA3A"/>
<path d="M356.78 327.395C354.66 331.125 355.64 338.795 355.2 341.405C354.602 345.095 353.199 348.609 351.089 351.695C350.519 347.305 349.849 342.925 349.16 338.545C348.47 334.175 347.69 329.815 346.97 325.445C346.16 321.095 345.4 316.725 344.55 312.385L343.26 305.865C342.79 303.695 342.36 301.525 341.86 299.365C342.14 301.565 342.47 303.755 342.78 305.955L343.79 312.515C344.48 316.895 345.25 321.255 345.98 325.615C346.79 329.975 347.55 334.335 348.4 338.685C349.25 343.025 350.11 347.375 351.09 351.695C346.35 358.645 338.37 363.035 329.47 366.385C322.801 368.88 315.933 370.807 308.94 372.145C303.82 327.165 311.81 295.525 311.81 295.525C311.81 295.525 310.9 294.395 307.74 294.395C304.57 294.395 295.76 299.595 295.76 299.595C262.309 319.935 251.91 308.635 244 300.045C238.809 294.405 231.26 269.905 226.7 253.785C257.44 265.085 274.51 249.415 277.71 249.415C278.72 249.415 283.67 248.895 290.57 248.235C291.382 249.065 292.015 250.054 292.428 251.14C292.841 252.225 293.025 253.385 292.97 254.545C295.83 258.605 299.3 251.825 297.79 249.415C297.451 248.863 297.189 248.268 297.01 247.645C298.38 247.525 299.8 247.395 301.25 247.275C303.66 250.575 306.45 255.455 308.94 257.855C313.31 262.075 314.07 255.295 314.07 255.295C319.49 259.215 319.49 252.285 319.49 252.285C324.31 255.145 322.65 248.235 322.65 248.235C322.98 247.947 323.225 247.573 323.355 247.155C323.486 246.737 323.498 246.29 323.39 245.865C329.546 245.559 335.715 245.646 341.86 246.125C360.62 248.025 378.48 302.755 378.48 302.755C379.16 312.475 364.46 313.835 356.78 327.395Z" fill="#22272B"/>
<path d="M249.469 342.73C250.169 347.093 250.6 351.476 251.055 355.857C251.478 360.241 251.679 364.643 251.952 369.038L252.786 382.224L253.558 395.414C253.559 395.43 253.554 395.446 253.543 395.459C253.532 395.471 253.517 395.479 253.5 395.48C253.484 395.481 253.468 395.476 253.455 395.466C253.442 395.455 253.435 395.44 253.433 395.424L252.16 382.272L250.95 369.116C250.542 364.731 250.062 360.351 249.803 355.955C249.576 351.555 249.326 347.158 249.344 342.74C249.344 342.724 249.35 342.709 249.361 342.697C249.372 342.685 249.386 342.678 249.402 342.677C249.418 342.676 249.434 342.681 249.446 342.69C249.459 342.7 249.467 342.715 249.469 342.73H249.469Z" fill="#22272B"/>
<path d="M263.201 342.382C263.643 346.795 263.815 351.213 264.011 355.63C264.175 360.048 264.116 364.47 264.13 368.892L264.187 382.154L264.18 395.418C264.181 395.434 264.174 395.45 264.163 395.462C264.151 395.474 264.135 395.48 264.119 395.481C264.102 395.481 264.086 395.475 264.074 395.463C264.062 395.452 264.055 395.436 264.055 395.42L263.559 382.165L263.126 368.91C262.977 364.492 262.755 360.074 262.756 355.653C262.788 351.231 262.797 346.81 263.076 342.384C263.077 342.368 263.084 342.353 263.095 342.342C263.107 342.332 263.122 342.325 263.137 342.325C263.153 342.325 263.168 342.331 263.18 342.341C263.192 342.351 263.2 342.366 263.201 342.382Z" fill="#22272B"/>
<path d="M258.649 405.998C275.75 405.998 289.612 400.382 289.612 393.454C289.612 386.527 275.75 380.911 258.649 380.911C241.549 380.911 227.687 386.527 227.687 393.454C227.687 400.382 241.549 405.998 258.649 405.998Z" fill="#22272B"/>
<path d="M274.74 229.53C274.084 229.997 273.323 230.293 272.524 230.392C272.114 230.45 271.697 230.434 271.292 230.347C271.075 230.316 270.872 230.223 270.708 230.078C270.544 229.932 270.427 229.742 270.371 229.53C270.504 229.651 270.66 229.742 270.83 229.799C271 229.856 271.18 229.877 271.359 229.861C271.723 229.852 272.085 229.822 272.445 229.77C273.205 229.65 273.971 229.57 274.74 229.53Z" fill="black"/>
<path d="M288.525 219.121C291.83 221.263 295.126 223.422 298.459 225.497C299.295 226.01 300.134 226.522 300.985 226.994C301.406 227.241 301.839 227.451 302.261 227.673C302.462 227.757 302.698 227.88 302.868 227.933C302.944 227.951 303.019 227.973 303.091 228C303.259 228.031 303.428 228.07 303.594 228.117C304.533 228.512 305.442 228.977 306.312 229.506C307.171 230.008 308.016 230.526 308.849 231.061C312.209 233.169 315.389 235.55 318.358 238.181C319.882 239.498 321.226 241.008 322.356 242.675L322.738 243.355L323.044 244.021C323.273 244.478 323.469 244.951 323.63 245.437C323.791 245.962 323.814 246.521 323.696 247.058C323.563 247.598 323.262 248.082 322.838 248.442L322.92 248.175C323.047 248.814 323.126 249.461 323.158 250.111C323.207 250.778 323.128 251.448 322.923 252.084C322.87 252.254 322.786 252.413 322.677 252.554L322.513 252.772L322.283 252.939C322.132 253.049 321.956 253.12 321.77 253.144C321.596 253.187 321.415 253.192 321.239 253.16C320.902 253.121 320.572 253.035 320.259 252.903L319.389 252.451L319.686 252.282C319.664 253.018 319.55 253.748 319.346 254.456C319.164 255.202 318.733 255.864 318.125 256.332C317.79 256.534 317.414 256.656 317.024 256.689C316.635 256.723 316.243 256.666 315.879 256.525C315.531 256.394 315.19 256.244 314.858 256.074L313.927 255.487L314.3 255.321C314.203 256.506 313.808 257.647 313.152 258.638C312.961 258.905 312.712 259.125 312.424 259.283C312.136 259.441 311.816 259.532 311.488 259.549L310.992 259.511C310.838 259.473 310.692 259.412 310.541 259.362C310.252 259.257 309.977 259.115 309.724 258.94C308.771 258.258 307.918 257.447 307.188 256.531C306.452 255.648 305.762 254.736 305.105 253.806C303.789 251.948 302.554 250.046 301.241 248.227C300.609 247.32 299.919 246.456 299.174 245.639C298.836 245.263 298.444 244.937 298.013 244.672C297.859 244.572 297.682 244.514 297.499 244.504C297.369 244.505 297.246 244.557 297.154 244.648L297.345 244.293C297.215 245.497 297.355 246.716 297.754 247.86C297.856 248.14 297.977 248.413 298.117 248.676C298.187 248.807 298.261 248.935 298.34 249.06C298.431 249.236 298.525 249.441 298.609 249.634C298.831 250.372 298.875 251.152 298.737 251.91C298.503 253.371 297.794 254.714 296.721 255.733C296.403 256.03 296.017 256.245 295.597 256.359C295.178 256.474 294.736 256.484 294.312 256.39C293.537 256.127 292.874 255.61 292.431 254.922C292.348 254.821 292.304 254.693 292.31 254.562L292.313 254.486C292.377 252.989 292.028 251.503 291.304 250.192C291.118 249.87 290.909 249.563 290.678 249.273C290.438 248.97 290.21 248.755 289.893 248.405C289.301 247.766 288.81 247.04 288.436 246.253C287.748 244.709 287.34 243.055 287.229 241.368C287.102 239.725 287.116 238.075 287.271 236.434L287.3 236.616C286.799 235.661 286.054 234.856 285.14 234.284C284.2 233.663 283.169 233.192 282.085 232.885C280.993 232.552 279.872 232.321 278.736 232.193C278.165 232.149 277.592 232.09 277.018 232.059L275.289 232.016C275.272 232.017 275.256 232.011 275.244 232C275.232 231.988 275.224 231.973 275.224 231.956C275.224 231.94 275.23 231.924 275.241 231.912C275.252 231.9 275.267 231.893 275.283 231.891L277.022 231.808C277.602 231.804 278.184 231.831 278.766 231.841C279.936 231.904 281.097 232.075 282.236 232.351C283.394 232.623 284.503 233.075 285.523 233.689C286.041 234.003 286.522 234.374 286.958 234.794C287.427 235.224 287.812 235.737 288.096 236.307C288.117 236.35 288.127 236.398 288.125 236.446L288.124 236.489C288.045 238.083 288.084 239.68 288.24 241.268C288.38 242.822 288.793 244.338 289.461 245.747C289.8 246.419 290.24 247.034 290.765 247.573C290.995 247.821 291.364 248.158 291.633 248.486C291.917 248.821 292.172 249.18 292.395 249.559C293.271 251.089 293.699 252.835 293.629 254.597L293.511 254.162C293.865 254.58 294.25 255.032 294.651 255.091C294.868 255.129 295.09 255.115 295.3 255.048C295.509 254.982 295.699 254.865 295.853 254.708C296.684 253.893 297.233 252.833 297.421 251.685C297.519 251.149 297.501 250.598 297.367 250.07L297.228 249.75C297.133 249.595 297.045 249.438 296.963 249.278C296.8 248.96 296.659 248.63 296.542 248.292C296.088 246.944 295.947 245.51 296.131 244.099C296.147 243.968 296.209 243.848 296.305 243.758L296.322 243.743C296.648 243.445 297.075 243.282 297.517 243.286C297.902 243.302 298.276 243.418 298.603 243.622C299.137 243.952 299.619 244.359 300.033 244.83C300.803 245.697 301.515 246.615 302.165 247.576C303.455 249.463 304.638 251.392 305.893 253.262C306.523 254.195 307.153 255.125 307.837 256.006C308.486 256.889 309.252 257.679 310.114 258.354C310.319 258.511 310.545 258.638 310.784 258.735C310.9 258.777 311.016 258.833 311.132 258.867L311.482 258.905C311.719 258.898 311.951 258.837 312.161 258.727C312.371 258.617 312.554 258.461 312.695 258.271C313.315 257.379 313.705 256.348 313.83 255.269C313.841 255.205 313.876 255.148 313.928 255.11C313.98 255.073 314.045 255.057 314.109 255.067C314.143 255.073 314.175 255.086 314.203 255.104L315.082 255.675C315.385 255.835 315.698 255.977 316.017 256.103C316.318 256.228 316.644 256.283 316.969 256.262C317.295 256.242 317.611 256.147 317.894 255.985C318.428 255.574 318.809 254.995 318.973 254.34C319.18 253.674 319.287 252.98 319.292 252.282C319.293 252.248 319.302 252.216 319.318 252.187C319.335 252.158 319.358 252.133 319.387 252.116C319.415 252.098 319.448 252.088 319.481 252.086C319.514 252.085 319.548 252.092 319.578 252.107L319.59 252.113L320.416 252.525C320.691 252.635 320.979 252.706 321.272 252.736C321.541 252.777 321.815 252.716 322.041 252.566C322.267 252.415 322.429 252.186 322.496 251.923C322.667 251.344 322.726 250.737 322.67 250.136C322.632 249.518 322.537 248.904 322.387 248.303C322.375 248.255 322.377 248.205 322.391 248.158C322.406 248.111 322.433 248.069 322.469 248.036C322.788 247.734 323.007 247.343 323.1 246.914C323.192 246.485 323.153 246.038 322.987 245.632C322.817 245.191 322.617 244.761 322.387 244.348L322.048 243.686L321.68 243.094C320.529 241.547 319.183 240.156 317.674 238.956C314.675 236.445 311.535 234.106 308.271 231.951C306.685 230.855 305.019 229.88 303.288 229.034C303.215 229.017 303.145 228.993 303.077 228.961C302.938 228.931 302.745 228.892 302.585 228.846C302.289 228.745 302.091 228.628 301.84 228.518C301.393 228.278 300.953 228.03 300.534 227.766C299.682 227.249 298.86 226.702 298.038 226.153C294.758 223.952 291.579 221.624 288.452 219.223C288.44 219.213 288.431 219.199 288.428 219.183C288.426 219.166 288.43 219.15 288.439 219.137C288.449 219.123 288.463 219.114 288.479 219.111C288.495 219.108 288.512 219.112 288.525 219.121L288.525 219.121Z" fill="#22272B"/>
<path d="M302.614 241.584C304.802 243.618 306.877 245.77 308.829 248.031C310.798 250.286 312.634 252.654 314.328 255.123C314.373 255.192 314.39 255.276 314.374 255.357C314.359 255.438 314.312 255.509 314.244 255.556C314.176 255.602 314.092 255.62 314.011 255.606C313.93 255.592 313.858 255.546 313.81 255.479L313.802 255.467C312.206 252.956 310.465 250.541 308.589 248.232C306.72 245.909 304.726 243.689 302.614 241.584Z" fill="black"/>
<path d="M308.942 240.228C312.738 243.998 316.341 247.957 319.737 252.089C319.789 252.154 319.813 252.237 319.804 252.319C319.795 252.401 319.754 252.477 319.69 252.529C319.626 252.581 319.543 252.606 319.461 252.598C319.379 252.59 319.303 252.549 319.25 252.486L319.241 252.474C316.016 248.222 312.579 244.134 308.942 240.228Z" fill="black"/>
<path d="M313.462 239.249C315.076 240.661 316.676 242.09 318.263 243.534L320.622 245.726C321.398 246.474 322.172 247.209 322.899 248.043C322.954 248.106 322.981 248.188 322.975 248.271C322.97 248.354 322.931 248.432 322.868 248.486C322.806 248.541 322.724 248.569 322.641 248.563C322.557 248.557 322.48 248.519 322.425 248.456L322.416 248.445L322.408 248.434C321.765 247.618 321.021 246.835 320.289 246.059L318.046 243.761C316.534 242.242 315.006 240.738 313.462 239.249Z" fill="black"/>
<path d="M294.83 215.634C295.639 216.64 296.539 217.569 297.518 218.41C298.481 219.283 299.457 220.142 300.446 220.987L306.431 226.003C310.429 229.338 314.516 232.573 318.556 235.852L318.613 235.903L318.626 235.916C320.387 237.755 322.388 239.35 324.573 240.658C326.76 241.934 329.133 242.858 331.607 243.396C336.585 244.482 341.775 244.045 346.502 242.142C348.817 241.196 351.156 239.844 353.54 238.764C355.909 237.619 358.336 236.593 360.773 235.603C363.226 234.645 365.708 233.767 368.228 233.003C370.752 232.199 373.347 231.639 375.978 231.332C376.009 231.329 376.041 231.332 376.072 231.342L376.083 231.346C378.384 232.11 380.789 232.517 383.214 232.551C385.621 232.601 388.004 232.076 390.168 231.022C391.239 230.447 392.268 229.798 393.248 229.079C394.446 228.499 395.794 228.302 397.107 228.514C398.358 228.647 399.594 228.892 400.8 229.247C401.063 229.337 401.332 229.404 401.606 229.447C401.842 229.475 402.082 229.46 402.312 229.402C402.752 229.278 403.135 229.006 403.398 228.633L403.649 228.398C403.602 228.421 403.559 228.451 403.52 228.487C403.425 228.574 403.361 228.691 403.339 228.818C403.322 228.913 403.328 229.01 403.356 229.102C403.384 229.194 403.434 229.278 403.501 229.347L403.412 228.612C403.568 228.302 403.629 227.954 403.588 227.61C403.568 227.418 403.531 227.227 403.478 227.041C403.426 226.859 403.359 226.681 403.276 226.51C403.237 226.432 403.214 226.347 403.208 226.26C403.202 226.173 403.214 226.085 403.243 226.003L403.258 225.963C403.428 225.181 403.376 224.367 403.108 223.613C402.859 222.757 402.533 221.926 402.135 221.129C402.09 221.038 402.064 220.938 402.058 220.836C402.052 220.734 402.067 220.632 402.101 220.536L402.118 220.489C402.238 220.176 402.292 219.841 402.278 219.507C402.242 219.148 402.149 218.796 402.002 218.467C401.84 218.11 401.637 217.772 401.399 217.461C401.163 217.144 400.898 216.85 400.608 216.583C400.483 216.47 400.395 216.321 400.357 216.157C400.318 215.993 400.331 215.821 400.394 215.664L400.414 215.617C400.671 215.001 400.685 214.31 400.451 213.685C400.13 213.083 399.591 212.627 398.945 212.41C397.375 211.917 395.71 211.81 394.09 212.098C390.605 212.583 387.172 213.39 383.836 214.509L383.828 214.511C383.717 214.546 383.6 214.562 383.483 214.558C380.37 214.427 377.222 215.803 373.975 216.818C372.333 217.329 370.783 217.903 368.976 218.283C367.242 218.645 365.54 218.829 363.83 219.026C357.004 219.662 350.203 219.882 343.396 219.962L340.844 219.987L339.568 219.994L338.93 219.997C338.708 219.997 338.449 219.99 338.211 219.968C336.745 219.831 335.368 219.203 334.304 218.187C333.946 217.833 333.702 217.557 333.396 217.238L326.436 209.794C321.8 204.827 317.198 199.828 312.631 194.795C312.613 194.776 312.604 194.751 312.605 194.725C312.606 194.699 312.617 194.674 312.635 194.656C312.654 194.638 312.679 194.628 312.705 194.628C312.731 194.628 312.756 194.638 312.775 194.656C317.661 199.38 322.508 204.143 327.315 208.944L334.528 216.142C334.817 216.429 335.149 216.778 335.402 217.014C336.216 217.753 337.254 218.197 338.35 218.274C338.688 218.3 339.104 218.273 339.539 218.264L340.81 218.226L343.352 218.14C350.122 217.86 356.911 217.595 363.607 216.895C365.27 216.706 366.951 216.525 368.544 216.193C370.065 215.884 371.718 215.294 373.317 214.795C374.93 214.278 376.538 213.739 378.223 213.272C379.953 212.745 381.758 212.505 383.566 212.561L383.212 212.61C384.968 212.063 386.706 211.598 388.484 211.19C390.266 210.77 392.073 210.458 393.894 210.255C394.83 210.155 395.772 210.121 396.712 210.152C397.718 210.186 398.709 210.401 399.638 210.786C400.69 211.196 401.544 211.998 402.019 213.022C402.234 213.557 402.326 214.134 402.286 214.709C402.255 215.267 402.121 215.814 401.892 216.323L401.697 215.358C402.066 215.71 402.401 216.097 402.696 216.513C402.997 216.928 403.25 217.376 403.45 217.848C403.66 218.351 403.784 218.885 403.819 219.429C403.834 220 403.726 220.568 403.502 221.094L403.485 220.454C403.909 221.354 404.242 222.293 404.479 223.258C404.607 223.757 404.685 224.267 404.714 224.781C404.761 225.355 404.678 225.931 404.472 226.469L404.453 225.922C404.68 226.428 404.815 226.971 404.85 227.525C404.892 228.12 404.755 228.715 404.456 229.231L404.367 228.496C404.436 228.567 404.486 228.653 404.515 228.747C404.544 228.841 404.55 228.94 404.533 229.037C404.51 229.169 404.444 229.289 404.345 229.379C404.3 229.421 404.249 229.456 404.193 229.483L404.444 229.248C404.238 229.588 403.95 229.871 403.606 230.071C403.287 230.272 402.94 230.423 402.577 230.519C402.209 230.598 401.829 230.609 401.457 230.551C401.127 230.49 400.802 230.401 400.488 230.284C399.352 229.911 398.185 229.641 397.002 229.477C395.888 229.256 394.733 229.372 393.686 229.812C392.666 230.509 391.6 231.137 390.495 231.691C388.221 232.769 385.723 233.29 383.207 233.212C380.723 233.133 378.262 232.703 375.899 231.934L376.003 231.948C373.429 232.262 370.895 232.848 368.445 233.698C365.965 234.497 363.543 235.471 361.154 236.513C358.778 237.587 356.418 238.697 354.113 239.919C351.767 241.087 349.61 242.463 347.117 243.6C342.119 245.804 336.546 246.344 331.218 245.142C328.57 244.54 326.034 243.525 323.702 242.134C321.402 240.724 319.311 238.998 317.49 237.007L317.559 237.071C313.548 233.728 309.635 230.28 305.732 226.815C303.777 225.087 301.859 223.317 299.978 221.503C299.032 220.603 298.102 219.685 297.186 218.751C296.738 218.272 296.276 217.812 295.852 217.308L295.216 216.556C295.017 216.29 294.839 216.002 294.653 215.729C294.639 215.707 294.634 215.68 294.638 215.655C294.643 215.629 294.658 215.607 294.679 215.592C294.701 215.577 294.727 215.571 294.753 215.576C294.779 215.58 294.801 215.594 294.817 215.616L294.83 215.634Z" fill="#22272B"/>
<path d="M388.346 216.121C390.443 215.45 392.599 214.984 394.786 214.727C395.889 214.592 397.003 214.572 398.111 214.666C399.265 214.721 400.382 215.086 401.346 215.723C401.413 215.772 401.458 215.846 401.471 215.928C401.484 216.011 401.463 216.095 401.414 216.162C401.365 216.229 401.291 216.274 401.208 216.287C401.126 216.299 401.042 216.279 400.975 216.23L400.959 216.217C400.105 215.604 399.102 215.23 398.054 215.134C396.98 214.991 395.893 214.96 394.812 215.04C392.627 215.192 390.461 215.554 388.346 216.121Z" fill="black"/>
<path d="M391.208 219.806C393.175 219.379 395.174 219.125 397.185 219.046C398.201 219.012 399.218 219.074 400.223 219.231C401.296 219.348 402.297 219.83 403.056 220.597C403.112 220.659 403.14 220.741 403.135 220.824C403.13 220.908 403.092 220.985 403.03 221.041C402.999 221.068 402.963 221.089 402.924 221.102C402.885 221.116 402.843 221.122 402.802 221.119C402.719 221.114 402.641 221.076 402.586 221.014L402.574 221L402.564 220.986C401.92 220.293 401.062 219.838 400.128 219.692C399.16 219.489 398.174 219.378 397.185 219.36C395.184 219.334 393.184 219.484 391.208 219.806Z" fill="black"/>
<path d="M392.263 223.805C394.302 223.436 396.381 223.334 398.447 223.504C399.495 223.58 400.527 223.806 401.511 224.174C402.539 224.538 403.444 225.183 404.123 226.037C404.148 226.07 404.166 226.108 404.176 226.148C404.187 226.188 404.189 226.229 404.184 226.27C404.178 226.311 404.164 226.351 404.143 226.386C404.122 226.422 404.094 226.453 404.061 226.478C404.028 226.503 403.99 226.521 403.95 226.531C403.91 226.541 403.868 226.544 403.827 226.538C403.786 226.532 403.747 226.518 403.711 226.496C403.676 226.475 403.645 226.447 403.62 226.414L403.612 226.402L403.607 226.394C403.029 225.599 402.241 224.981 401.331 224.609C400.4 224.207 399.416 223.939 398.409 223.815C396.37 223.545 394.303 223.541 392.263 223.805Z" fill="black"/>
<path d="M359.82 123.274V183.843L443.895 191.301V123.274H359.82ZM434.628 182.261L368.409 176.837V131.41L434.628 130.732V182.261Z" fill="#22272B"/>
<path d="M373.403 136.308C373.491 138.162 373.568 139.941 373.609 141.692C373.653 143.444 373.681 145.168 373.615 146.908L373.381 146.674C374.875 146.725 376.369 146.799 377.863 146.806C379.357 146.821 380.851 146.786 382.346 146.736L382.174 146.908C382.109 145.138 382.061 143.367 382.045 141.597C382.011 139.827 382.009 138.056 382.026 136.286L382.346 136.606C380.892 136.612 379.431 136.54 377.953 136.504L373.403 136.308ZM373.359 136.264L377.773 136.068C379.284 136.032 380.811 135.96 382.346 135.966C382.43 135.967 382.511 136.001 382.571 136.061C382.63 136.121 382.664 136.202 382.665 136.286C382.683 138.056 382.681 139.827 382.646 141.597C382.63 143.367 382.583 145.138 382.518 146.908L382.517 146.92C382.516 146.942 382.511 146.963 382.502 146.983C382.493 147.003 382.481 147.021 382.465 147.036C382.449 147.051 382.43 147.062 382.41 147.07C382.389 147.077 382.367 147.081 382.346 147.08C380.851 147.03 379.357 146.996 377.863 147.011C376.369 147.018 374.875 147.092 373.381 147.142C373.351 147.143 373.322 147.138 373.294 147.128C373.266 147.117 373.241 147.102 373.219 147.081C373.197 147.061 373.18 147.037 373.168 147.01C373.155 146.983 373.149 146.953 373.148 146.924L373.147 146.908C373.08 145.108 373.108 143.291 373.153 141.503C373.193 139.712 373.271 137.951 373.359 136.264H373.359Z" fill="#22272B"/>
<path d="M416.401 135.371C416.556 138.978 416.661 142.49 416.753 145.974C416.861 149.467 416.908 152.898 416.948 156.328C416.988 159.754 416.934 163.143 416.822 166.55C416.728 169.957 416.587 173.391 416.577 176.84L416.35 176.612C418.392 176.641 420.433 176.588 422.475 176.579C424.517 176.564 426.558 176.486 428.6 176.443L428.203 176.84C428.09 173.38 428.007 169.92 427.954 166.46L427.837 156.08C427.811 152.62 427.82 149.16 427.865 145.7L428.056 135.32L428.6 135.864L422.608 135.641L416.401 135.371ZM416.299 135.269L422.342 134.999L428.6 134.776C428.669 134.774 428.737 134.785 428.802 134.809C428.867 134.833 428.926 134.87 428.976 134.917C429.027 134.964 429.067 135.02 429.096 135.083C429.125 135.145 429.141 135.213 429.143 135.282L429.143 135.288L429.144 135.32L429.335 145.7C429.377 149.16 429.386 152.62 429.363 156.08L429.246 166.46C429.189 169.92 429.106 173.38 428.997 176.84L428.997 176.861C428.993 176.964 428.95 177.06 428.875 177.131C428.801 177.201 428.702 177.239 428.6 177.237C426.558 177.194 424.517 177.115 422.475 177.101C420.433 177.092 418.392 177.039 416.35 177.067C416.321 177.068 416.291 177.062 416.264 177.051C416.237 177.041 416.212 177.024 416.191 177.004C416.169 176.983 416.153 176.959 416.141 176.932C416.129 176.905 416.123 176.876 416.123 176.846L416.123 176.84C416.113 173.369 415.973 169.883 415.878 166.37C415.766 162.857 415.713 159.325 415.752 155.832C415.792 152.342 415.839 148.853 415.947 145.426C416.039 141.99 416.144 138.582 416.299 135.269Z" fill="#22272B"/>
<path d="M407.493 193.999V188.072L398.228 187.25V193.069C392.6 193.221 388.408 194.765 388.187 197.042C387.91 199.899 393.988 202.827 401.762 203.582C409.537 204.336 416.064 202.631 416.341 199.774C416.559 197.53 412.857 195.243 407.493 193.999Z" fill="#FFDA3A"/>
<path d="M320.802 203.08C325.4 200.149 330.052 197.307 334.719 194.491C334.774 194.459 334.838 194.447 334.901 194.457C339.219 195.121 343.522 195.882 347.823 196.653C352.123 197.436 356.437 198.128 360.758 198.777L373.719 200.732C378.035 201.414 382.356 202.063 386.665 202.786C386.75 202.8 386.826 202.847 386.877 202.917C386.927 202.987 386.948 203.075 386.934 203.16C386.92 203.243 386.875 203.317 386.808 203.368C383.608 205.77 380.386 208.142 377.142 210.484L372.292 214.02L367.411 217.514C367.405 217.519 367.396 217.521 367.388 217.519C367.38 217.518 367.373 217.514 367.368 217.507C367.363 217.501 367.361 217.492 367.362 217.484C367.363 217.476 367.367 217.469 367.374 217.464L372.103 213.767L376.864 210.112C380.032 207.668 383.217 205.246 386.418 202.847L386.561 203.428C382.244 202.754 377.939 202.005 373.629 201.29L360.713 199.053C356.408 198.305 352.096 197.599 347.77 196.984C343.445 196.359 339.122 195.722 334.815 194.989L334.996 194.954C330.303 197.728 325.595 200.475 320.834 203.134C320.827 203.138 320.818 203.139 320.81 203.137C320.802 203.135 320.796 203.13 320.792 203.123C320.787 203.116 320.786 203.107 320.788 203.099C320.79 203.091 320.795 203.085 320.802 203.08V203.08Z" fill="#FFDA3A"/>
<path d="M326.376 208.851C329.02 209.528 331.645 210.27 334.266 211.022L342.107 213.354L349.906 215.824C352.497 216.673 355.086 217.531 357.655 218.456C355.01 217.78 352.385 217.038 349.764 216.286L341.923 213.953L334.125 211.482C331.533 210.634 328.944 209.775 326.376 208.851Z" fill="#FFDA3A"/>
<path d="M415.361 197.585C416.947 197.37 418.551 197.323 420.147 197.446C421.787 197.525 423.393 197.938 424.868 198.66C425.639 199.06 426.303 199.639 426.806 200.347C427.307 201.087 427.585 201.955 427.605 202.848C427.621 203.705 427.492 204.559 427.225 205.374C426.988 206.212 426.582 206.993 426.032 207.669C425.482 208.344 424.807 208.908 424.045 209.329C423.328 209.743 422.577 210.093 421.799 210.374C420.251 210.95 418.619 211.268 416.968 211.314C415.339 211.348 413.715 211.137 412.149 210.687C410.646 210.224 409.046 210.175 407.518 210.546C408.233 210.158 409.029 209.945 409.842 209.923C410.652 209.871 411.466 209.899 412.27 210.008C413.8 210.284 415.359 210.363 416.909 210.243C418.435 210.119 419.936 209.776 421.364 209.225C422.075 208.95 422.764 208.623 423.426 208.245C424.064 207.908 424.631 207.451 425.094 206.897C425.559 206.344 425.914 205.708 426.142 205.023C426.392 204.334 426.525 203.607 426.536 202.874C426.55 202.17 426.364 201.476 426 200.873C425.605 200.265 425.073 199.757 424.446 199.391C423.096 198.638 421.618 198.143 420.087 197.932C418.525 197.682 416.943 197.567 415.361 197.585Z" fill="#22272B"/>
<path d="M408.893 214.802C408.893 214.802 408.624 223.623 403.934 228.921C404.122 228.493 404.213 228.029 404.201 227.561C404.189 227.093 404.074 226.634 403.865 226.216C404.618 224.408 402.81 220.792 402.81 220.792C403.865 218.381 401.153 215.97 401.153 215.97C401.153 215.97 402.81 212.505 398.441 211.299C398.441 211.299 410.381 205.725 408.893 214.802Z" fill="#22272B"/>
<path d="M434.526 280.781C434.484 280.781 434.441 280.774 434.401 280.761L353.59 254.04C353.54 254.023 353.494 253.997 353.454 253.963C353.414 253.928 353.382 253.886 353.358 253.84C353.334 253.793 353.32 253.741 353.316 253.689C353.313 253.637 353.319 253.584 353.336 253.534C353.352 253.484 353.378 253.438 353.412 253.398C353.447 253.359 353.489 253.326 353.536 253.302C353.582 253.279 353.634 253.265 353.686 253.261C353.738 253.257 353.791 253.263 353.841 253.28L434.483 279.946L538.315 220.559V215.795L345.745 180.675L314.209 192.838C314.11 192.876 314 192.873 313.904 192.83C313.807 192.787 313.731 192.708 313.693 192.609C313.655 192.51 313.658 192.4 313.7 192.304C313.743 192.207 313.822 192.131 313.921 192.092L345.562 179.888C345.631 179.863 345.705 179.856 345.778 179.868L538.787 215.068C538.879 215.085 538.962 215.133 539.022 215.205C539.082 215.277 539.115 215.368 539.115 215.461V220.791C539.115 220.862 539.096 220.931 539.061 220.992C539.026 221.053 538.975 221.103 538.914 221.138L434.725 280.728C434.665 280.763 434.596 280.781 434.526 280.781Z" fill="white"/>
<path d="M434.3 275.723C434.268 275.723 434.236 275.718 434.206 275.708L348.323 248.538C348.284 248.525 348.248 248.505 348.216 248.479C348.185 248.452 348.159 248.42 348.14 248.383C348.101 248.309 348.094 248.223 348.119 248.144C348.144 248.065 348.2 247.999 348.274 247.96C348.347 247.922 348.433 247.915 348.513 247.94L434.264 275.069L538.559 215.189C538.594 215.168 538.634 215.155 538.675 215.15C538.716 215.145 538.757 215.147 538.797 215.158C538.837 215.169 538.874 215.188 538.907 215.213C538.939 215.238 538.967 215.269 538.987 215.305C539.008 215.341 539.021 215.38 539.026 215.421C539.032 215.462 539.029 215.504 539.018 215.544C539.007 215.583 538.989 215.621 538.964 215.653C538.938 215.686 538.907 215.713 538.871 215.734L434.457 275.682C434.409 275.709 434.355 275.723 434.3 275.723Z" fill="white"/>
<path d="M434.526 280.695C434.445 280.695 434.368 280.664 434.309 280.608C434.251 280.553 434.217 280.477 434.213 280.396L433.987 275.424C433.985 275.383 433.991 275.342 434.005 275.303C434.019 275.264 434.041 275.229 434.068 275.198C434.096 275.168 434.13 275.143 434.167 275.126C434.204 275.108 434.245 275.098 434.286 275.096C434.368 275.095 434.448 275.126 434.509 275.181C434.57 275.237 434.607 275.313 434.614 275.395L434.84 280.367C434.842 280.408 434.836 280.449 434.822 280.488C434.808 280.527 434.786 280.562 434.758 280.593C434.73 280.623 434.697 280.648 434.66 280.666C434.622 280.683 434.582 280.693 434.541 280.695H434.526Z" fill="#FFDA3A"/>
<path d="M434.555 278.92L435.183 317.311L435.654 355.702C435.823 368.499 436.173 381.296 435.968 394.093C435.855 400.491 435.741 406.89 435.492 413.288L435.114 422.886C434.926 426.085 434.796 429.284 434.555 432.484C434.552 432.523 434.534 432.56 434.505 432.587C434.476 432.614 434.438 432.629 434.398 432.629C434.358 432.629 434.32 432.614 434.291 432.587C434.262 432.56 434.244 432.523 434.241 432.484C434 429.284 433.87 426.085 433.682 422.886L433.304 413.288C433.055 406.89 432.942 400.491 432.829 394.093C432.623 381.296 432.973 368.499 433.142 355.702L433.613 317.311L434.241 278.92C434.242 278.879 434.259 278.84 434.288 278.811C434.317 278.782 434.357 278.766 434.398 278.766C434.439 278.766 434.479 278.782 434.508 278.811C434.538 278.84 434.554 278.879 434.555 278.92Z" fill="white"/>
<path d="M530.736 226.216L531.363 264.607L531.834 302.997C532.004 315.794 532.354 328.591 532.148 341.388C532.035 347.787 531.922 354.185 531.673 360.584L531.295 370.181C531.106 373.381 530.977 376.58 530.736 379.779C530.733 379.819 530.715 379.856 530.686 379.883C530.657 379.909 530.618 379.924 530.579 379.924C530.539 379.924 530.501 379.909 530.472 379.883C530.443 379.856 530.425 379.819 530.422 379.779C530.181 376.58 530.051 373.381 529.863 370.181L529.485 360.584C529.236 354.185 529.122 347.787 529.009 341.388C528.804 328.591 529.153 315.794 529.323 302.997L529.794 264.607L530.422 226.216C530.422 226.174 530.439 226.135 530.469 226.106C530.498 226.077 530.538 226.061 530.579 226.061C530.62 226.061 530.66 226.077 530.689 226.106C530.718 226.135 530.735 226.174 530.736 226.216H530.736Z" fill="white"/>
<path d="M370.793 331.685C370.793 331.685 377.973 332.283 402.638 349.218C406.673 352.042 411.611 353.271 416.499 352.67C417.801 352.525 419.077 352.198 420.288 351.697C420.288 351.697 439.046 356.546 422.322 359.71C422.322 359.71 398.365 360.388 380.511 347.279L380.737 354.512H371.697C371.697 354.512 367.628 335.753 370.793 331.685Z" fill="#22272B"/>
<path d="M378.466 304.135C379.853 306.471 381.169 308.844 382.522 311.197L386.462 318.321C387.791 320.685 389.039 323.099 390.328 325.479C391.601 327.828 393.124 330.034 394.869 332.059C395.727 333.081 396.638 334.058 397.597 334.986C398.554 335.907 399.589 336.78 400.612 337.67C402.655 339.448 404.75 341.16 406.823 342.9C408.909 344.624 411.031 346.304 413.226 347.878C414.314 348.679 415.429 349.444 416.584 350.14L417.46 350.646L418.366 351.092C418.972 351.39 419.62 351.594 420.288 351.697C418.925 351.553 417.608 351.121 416.424 350.431C415.208 349.81 414.031 349.117 412.88 348.387C410.594 346.903 408.394 345.298 406.224 343.657C404.044 342.028 401.96 340.279 399.871 338.54C398.836 337.664 397.783 336.802 396.771 335.856C393.736 333.032 391.215 329.703 389.321 326.016C388.076 323.597 386.808 321.205 385.611 318.768L381.981 311.482C380.81 309.032 379.603 306.602 378.466 304.135Z" fill="#22272B"/>
<path d="M361.874 320.736C363.688 322.26 365.345 323.961 366.82 325.814C368.338 327.633 369.669 329.599 370.792 331.685C368.977 330.163 367.32 328.462 365.847 326.607C364.331 324.787 363 322.821 361.874 320.736Z" fill="#22272B"/>
<path d="M319.239 386.683C319.239 386.683 326.435 386.32 353.135 399.82C357.51 402.081 362.567 402.642 367.332 401.395C368.604 401.079 369.824 400.585 370.958 399.927C370.958 399.927 390.195 402.235 374.041 407.598C374.041 407.598 350.388 411.459 330.947 400.845L332.134 407.982L323.174 409.186C323.174 409.186 316.644 391.136 319.239 386.683Z" fill="#22272B"/>
<path d="M334.387 364.37C334.98 366.58 335.495 368.805 336.051 371.022L336.819 374.362C337.033 375.453 337.373 376.516 337.833 377.529C338.296 378.521 338.887 379.449 339.59 380.289C340.313 381.13 341.102 381.95 341.909 382.727C343.522 384.293 345.269 385.714 347.131 386.974C350.914 389.48 354.771 391.936 358.659 394.296C360.606 395.474 362.578 396.612 364.603 397.642C365.602 398.181 366.629 398.667 367.679 399.099C368.711 399.577 369.823 399.858 370.958 399.927C369.804 399.994 368.649 399.819 367.568 399.412C366.471 399.064 365.394 398.659 364.339 398.199C362.238 397.269 360.198 396.218 358.179 395.134C354.142 392.95 350.271 390.526 346.425 388.011C344.51 386.698 342.72 385.212 341.077 383.571C340.261 382.742 339.485 381.896 338.742 380.985C337.996 380.055 337.392 379.019 336.951 377.911C336.519 376.819 336.215 375.681 336.046 374.519L335.451 371.144C335.098 368.886 334.703 366.636 334.387 364.37Z" fill="#22272B"/>
<path d="M318.629 369.889C319.174 372.649 319.486 375.45 319.561 378.263C319.693 381.074 319.585 383.89 319.239 386.683C318.691 383.923 318.38 381.121 318.307 378.309C318.178 375.498 318.286 372.681 318.629 369.889Z" fill="#22272B"/>
<path d="M297.838 146.4C296.558 146.525 295.267 146.305 294.101 145.762C293.493 145.494 292.96 145.08 292.548 144.558C292.138 144.033 291.952 143.368 292.029 142.707C292.202 143.274 292.504 143.794 292.91 144.226C293.316 144.657 293.817 144.99 294.373 145.197C295.495 145.687 296.653 146.089 297.838 146.4Z" fill="black"/>
<path d="M419.24 140.42C419.629 140.407 419.997 140.243 420.268 139.963C420.538 139.683 420.689 139.309 420.689 138.92C420.689 138.531 420.538 138.157 420.268 137.877C419.997 137.597 419.629 137.434 419.24 137.42C418.851 137.434 418.483 137.597 418.212 137.877C417.942 138.157 417.791 138.531 417.791 138.92C417.791 139.309 417.942 139.683 418.212 139.963C418.483 140.243 418.851 140.407 419.24 140.42Z" fill="#FFDA3A"/>
<path d="M419.48 148.7C419.869 148.686 420.237 148.523 420.508 148.243C420.778 147.963 420.929 147.589 420.929 147.2C420.929 146.811 420.778 146.437 420.508 146.157C420.237 145.877 419.869 145.713 419.48 145.7C419.091 145.713 418.723 145.877 418.452 146.157C418.182 146.437 418.031 146.811 418.031 147.2C418.031 147.589 418.182 147.963 418.452 148.243C418.723 148.523 419.091 148.686 419.48 148.7Z" fill="#FFDA3A"/>
<path d="M419.6 157.58C419.989 157.566 420.357 157.403 420.628 157.123C420.898 156.843 421.049 156.469 421.049 156.08C421.049 155.691 420.898 155.317 420.628 155.037C420.357 154.757 419.989 154.593 419.6 154.58C419.211 154.593 418.843 154.757 418.572 155.037C418.302 155.317 418.151 155.691 418.151 156.08C418.151 156.469 418.302 156.843 418.572 157.123C418.843 157.403 419.211 157.566 419.6 157.58Z" fill="#FFDA3A"/>
<path d="M419.6 167.42C419.989 167.407 420.357 167.243 420.628 166.963C420.898 166.683 421.049 166.309 421.049 165.92C421.049 165.531 420.898 165.157 420.628 164.877C420.357 164.597 419.989 164.434 419.6 164.42C419.211 164.434 418.843 164.597 418.572 164.877C418.302 165.157 418.151 165.531 418.151 165.92C418.151 166.309 418.302 166.683 418.572 166.963C418.843 167.243 419.211 167.407 419.6 167.42Z" fill="#FFDA3A"/>
<path d="M419.84 175.34C420.229 175.326 420.597 175.163 420.868 174.883C421.138 174.603 421.289 174.229 421.289 173.84C421.289 173.451 421.138 173.077 420.868 172.797C420.597 172.517 420.229 172.353 419.84 172.34C419.451 172.353 419.083 172.517 418.812 172.797C418.542 173.077 418.391 173.451 418.391 173.84C418.391 174.229 418.542 174.603 418.812 174.883C419.083 175.163 419.451 175.326 419.84 175.34Z" fill="#FFDA3A"/>
<path d="M377.826 142.209C378.043 142.208 378.256 142.146 378.439 142.029C378.623 141.913 378.77 141.747 378.863 141.551C379.016 141.209 379.12 140.847 379.173 140.476C379.22 140.278 379.226 140.072 379.19 139.871C379.154 139.67 379.076 139.479 378.963 139.31C378.824 139.152 378.645 139.034 378.445 138.97C378.245 138.905 378.031 138.896 377.826 138.943C377.46 139.017 377.13 139.212 376.89 139.497C376.688 139.784 376.581 140.126 376.583 140.477C376.574 140.844 376.648 141.208 376.798 141.543C376.889 141.739 377.034 141.906 377.216 142.024C377.398 142.142 377.609 142.206 377.826 142.209ZM377.826 142.298C377.315 142.33 376.807 142.205 376.37 141.941C376.14 141.773 375.953 141.552 375.825 141.298C375.698 141.043 375.632 140.762 375.635 140.477C375.631 140.188 375.686 139.902 375.796 139.636C375.907 139.369 376.071 139.128 376.278 138.928C376.48 138.732 376.726 138.588 376.995 138.506C377.264 138.424 377.549 138.407 377.826 138.456C378.331 138.534 378.801 138.763 379.173 139.113C379.573 139.466 379.835 139.949 379.912 140.476C379.944 140.754 379.902 141.035 379.789 141.291C379.677 141.546 379.498 141.767 379.272 141.931C378.838 142.196 378.334 142.324 377.826 142.298Z" fill="#22272B"/>
<path d="M380.7 146.939C379.772 147.095 378.837 147.199 377.897 147.252C377.393 147.274 376.885 147.3 376.37 147.287C375.855 147.275 375.34 147.207 374.84 147.161L374.789 147.156C374.76 147.153 374.731 147.145 374.705 147.131C374.68 147.117 374.657 147.098 374.638 147.076C374.619 147.053 374.605 147.027 374.596 146.999C374.588 146.971 374.585 146.941 374.587 146.912L374.588 146.908C374.659 146.367 374.699 145.822 374.706 145.276C374.671 144.706 374.752 144.134 374.944 143.596C375.171 143.017 375.564 142.518 376.075 142.163C376.587 141.809 377.192 141.615 377.814 141.606C378.436 141.596 379.046 141.773 379.568 142.113C380.089 142.452 380.497 142.939 380.74 143.512C380.975 144.08 381.044 144.703 380.939 145.309C380.879 145.906 380.778 146.463 380.7 146.939ZM380.638 146.877L380.4 145.243C380.374 144.76 380.242 144.29 380.013 143.864C379.778 143.466 379.45 143.131 379.056 142.889C378.663 142.646 378.216 142.504 377.755 142.474C377.271 142.462 376.792 142.576 376.366 142.805C375.939 143.034 375.579 143.369 375.322 143.779C375.052 144.229 374.93 144.753 374.974 145.276C374.981 145.822 375.021 146.367 375.092 146.908L374.84 146.656C375.312 146.609 375.769 146.542 376.225 146.53C376.682 146.516 377.145 146.543 377.612 146.565C378.552 146.621 379.532 146.735 380.638 146.877Z" fill="#FFDA3A"/>
<path d="M386.255 136.308C386.342 138.162 386.42 139.941 386.46 141.692C386.505 143.444 386.533 145.168 386.466 146.908L386.232 146.674C387.727 146.725 389.221 146.799 390.715 146.806C392.209 146.821 393.703 146.786 395.197 146.736L395.025 146.908C394.96 145.138 394.913 143.367 394.897 141.597C394.862 139.827 394.86 138.056 394.878 136.286L395.197 136.606C393.743 136.612 392.282 136.54 390.805 136.504L386.255 136.308ZM386.21 136.264L390.625 136.068C392.135 136.032 393.663 135.96 395.197 135.966C395.282 135.967 395.362 136.001 395.422 136.061C395.482 136.121 395.516 136.202 395.517 136.286C395.534 138.056 395.532 139.827 395.498 141.597C395.481 143.367 395.434 145.138 395.369 146.908L395.369 146.92C395.368 146.942 395.363 146.963 395.354 146.983C395.345 147.003 395.332 147.021 395.316 147.036C395.3 147.051 395.281 147.062 395.261 147.07C395.241 147.077 395.219 147.081 395.197 147.08C393.703 147.03 392.209 146.996 390.715 147.011C389.221 147.018 387.727 147.092 386.232 147.142C386.203 147.143 386.173 147.138 386.145 147.128C386.118 147.117 386.092 147.102 386.071 147.081C386.049 147.061 386.031 147.037 386.019 147.01C386.007 146.983 386 146.953 385.999 146.924L385.999 146.908C385.932 145.108 385.96 143.291 386.004 141.503C386.045 139.712 386.122 137.951 386.21 136.264Z" fill="#22272B"/>
<path d="M390.677 142.209C390.895 142.208 391.107 142.146 391.291 142.029C391.474 141.913 391.621 141.747 391.715 141.551C391.868 141.209 391.972 140.847 392.024 140.476C392.072 140.278 392.077 140.072 392.041 139.871C392.005 139.67 391.928 139.479 391.814 139.31C391.675 139.152 391.496 139.034 391.296 138.97C391.096 138.905 390.882 138.896 390.677 138.943C390.312 139.017 389.982 139.212 389.741 139.497C389.54 139.784 389.433 140.126 389.434 140.477C389.426 140.844 389.499 141.208 389.649 141.543C389.74 141.739 389.885 141.906 390.067 142.024C390.249 142.142 390.461 142.206 390.677 142.209ZM390.677 142.298C390.167 142.33 389.659 142.205 389.221 141.941C388.991 141.773 388.805 141.552 388.677 141.298C388.549 141.043 388.484 140.762 388.487 140.477C388.482 140.188 388.537 139.902 388.648 139.636C388.758 139.369 388.922 139.128 389.13 138.928C389.332 138.732 389.578 138.588 389.847 138.506C390.116 138.424 390.4 138.407 390.677 138.456C391.183 138.534 391.652 138.763 392.025 139.113C392.425 139.466 392.687 139.949 392.764 140.476C392.796 140.754 392.753 141.035 392.641 141.291C392.528 141.546 392.35 141.767 392.123 141.931C391.689 142.196 391.185 142.324 390.677 142.298Z" fill="#FFDA3A"/>
<path d="M393.552 146.939C392.624 147.095 391.688 147.199 390.749 147.252C390.245 147.274 389.736 147.3 389.221 147.287C388.706 147.275 388.191 147.207 387.692 147.161L387.641 147.156C387.611 147.153 387.583 147.145 387.557 147.131C387.531 147.117 387.508 147.098 387.489 147.076C387.471 147.053 387.456 147.027 387.448 146.999C387.439 146.971 387.436 146.941 387.439 146.912L387.439 146.908C387.511 146.367 387.55 145.822 387.558 145.276C387.523 144.706 387.604 144.134 387.796 143.596C388.022 143.017 388.416 142.518 388.927 142.163C389.438 141.809 390.043 141.615 390.665 141.606C391.287 141.596 391.898 141.773 392.419 142.113C392.94 142.452 393.349 142.939 393.592 143.512C393.827 144.08 393.896 144.703 393.791 145.309C393.73 145.906 393.63 146.463 393.552 146.939ZM393.49 146.877L393.251 145.243C393.225 144.76 393.093 144.29 392.864 143.864C392.63 143.466 392.302 143.131 391.908 142.889C391.514 142.646 391.067 142.504 390.606 142.474C390.122 142.462 389.644 142.576 389.217 142.805C388.791 143.034 388.431 143.369 388.173 143.779C387.904 144.229 387.782 144.753 387.825 145.276C387.833 145.822 387.872 146.367 387.944 146.908L387.692 146.656C388.164 146.609 388.62 146.542 389.077 146.53C389.533 146.516 389.996 146.543 390.464 146.565C391.403 146.621 392.384 146.735 393.49 146.877Z" fill="#22272B"/>
<path d="M399.345 136.308C399.433 138.162 399.511 139.941 399.551 141.692C399.596 143.444 399.623 145.168 399.557 146.908L399.323 146.674C400.817 146.725 402.311 146.799 403.805 146.806C405.299 146.821 406.794 146.786 408.288 146.736L408.116 146.908C408.051 145.138 408.004 143.367 407.987 141.597C407.953 139.827 407.951 138.056 407.968 136.286L408.288 136.606C406.834 136.612 405.373 136.54 403.895 136.504L399.345 136.308ZM399.301 136.264L403.715 136.068C405.226 136.032 406.753 135.96 408.288 135.966C408.372 135.967 408.453 136.001 408.513 136.061C408.573 136.121 408.607 136.202 408.607 136.286C408.625 138.056 408.623 139.827 408.588 141.597C408.572 143.367 408.525 145.138 408.46 146.908L408.459 146.92C408.458 146.942 408.453 146.963 408.444 146.983C408.435 147.003 408.423 147.021 408.407 147.036C408.391 147.051 408.372 147.062 408.352 147.07C408.331 147.077 408.309 147.081 408.288 147.08C406.794 147.03 405.299 146.996 403.805 147.011C402.311 147.018 400.817 147.092 399.323 147.142C399.293 147.143 399.264 147.138 399.236 147.128C399.208 147.117 399.183 147.102 399.161 147.081C399.139 147.061 399.122 147.037 399.11 147.01C399.098 146.983 399.091 146.953 399.09 146.924L399.089 146.908C399.022 145.108 399.05 143.291 399.095 141.503C399.135 139.712 399.213 137.951 399.301 136.264Z" fill="#22272B"/>
<path d="M403.768 142.209C403.985 142.208 404.198 142.146 404.381 142.03C404.565 141.913 404.712 141.747 404.806 141.551C404.959 141.209 405.063 140.847 405.115 140.476C405.162 140.278 405.168 140.072 405.132 139.871C405.096 139.67 405.019 139.479 404.905 139.31C404.766 139.152 404.587 139.034 404.387 138.97C404.187 138.905 403.973 138.896 403.768 138.943C403.402 139.017 403.073 139.212 402.832 139.497C402.631 139.784 402.523 140.126 402.525 140.477C402.516 140.844 402.59 141.208 402.74 141.543C402.831 141.739 402.976 141.906 403.158 142.024C403.34 142.142 403.551 142.206 403.768 142.209ZM403.768 142.298C403.258 142.33 402.75 142.205 402.312 141.941C402.082 141.773 401.895 141.552 401.768 141.298C401.64 141.043 401.575 140.762 401.577 140.477C401.573 140.188 401.628 139.902 401.738 139.636C401.849 139.369 402.013 139.128 402.22 138.928C402.423 138.732 402.668 138.588 402.937 138.506C403.206 138.424 403.491 138.407 403.768 138.456C404.273 138.534 404.743 138.763 405.116 139.113C405.516 139.466 405.777 139.949 405.855 140.476C405.886 140.754 405.844 141.035 405.731 141.291C405.619 141.546 405.44 141.767 405.214 141.931C404.78 142.196 404.276 142.324 403.768 142.298Z" fill="#FFDA3A"/>
<path d="M406.643 146.939C405.715 147.095 404.779 147.199 403.839 147.252C403.335 147.274 402.827 147.3 402.312 147.287C401.797 147.275 401.282 147.207 400.782 147.161L400.731 147.156C400.702 147.153 400.674 147.145 400.648 147.131C400.622 147.117 400.599 147.098 400.58 147.076C400.561 147.053 400.547 147.027 400.538 146.999C400.53 146.971 400.527 146.941 400.529 146.912L400.53 146.908C400.601 146.367 400.641 145.822 400.649 145.276C400.613 144.706 400.694 144.134 400.887 143.596C401.113 143.017 401.507 142.518 402.018 142.164C402.529 141.809 403.134 141.615 403.756 141.606C404.378 141.596 404.989 141.773 405.51 142.113C406.031 142.452 406.439 142.939 406.682 143.512C406.917 144.08 406.986 144.703 406.882 145.309C406.821 145.907 406.721 146.463 406.643 146.939ZM406.581 146.877L406.342 145.243C406.316 144.76 406.184 144.29 405.955 143.864C405.72 143.466 405.392 143.131 404.999 142.889C404.605 142.646 404.158 142.504 403.697 142.474C403.213 142.462 402.734 142.576 402.308 142.805C401.881 143.034 401.522 143.369 401.264 143.779C400.994 144.229 400.873 144.753 400.916 145.276C400.924 145.822 400.963 146.367 401.034 146.908L400.782 146.656C401.254 146.609 401.711 146.542 402.167 146.53C402.624 146.517 403.087 146.543 403.555 146.565C404.494 146.621 405.475 146.735 406.581 146.877Z" fill="#FFDA3A"/>
<path d="M393.543 149.499C393.631 151.353 393.709 153.132 393.749 154.882C393.794 156.635 393.821 158.358 393.755 160.099L393.521 159.865C395.015 159.915 396.509 159.99 398.003 159.996C399.498 160.011 400.992 159.977 402.486 159.927L402.314 160.099C402.249 158.329 402.202 156.558 402.185 154.788C402.151 153.018 402.149 151.247 402.166 149.477L402.486 149.796C401.032 149.803 399.571 149.73 398.094 149.695L393.543 149.499ZM393.499 149.455L397.913 149.259C399.424 149.223 400.952 149.151 402.486 149.157C402.57 149.158 402.651 149.192 402.711 149.252C402.771 149.311 402.805 149.392 402.805 149.477C402.823 151.247 402.821 153.017 402.786 154.788C402.77 156.558 402.723 158.328 402.658 160.099L402.657 160.111C402.657 160.133 402.652 160.154 402.643 160.174C402.634 160.194 402.621 160.212 402.605 160.226C402.589 160.241 402.57 160.253 402.55 160.26C402.529 160.268 402.508 160.272 402.486 160.271C400.992 160.221 399.498 160.186 398.003 160.201C396.509 160.208 395.015 160.283 393.521 160.333C393.461 160.335 393.403 160.313 393.359 160.272C393.315 160.231 393.29 160.174 393.288 160.115L393.287 160.099C393.221 158.299 393.248 156.481 393.293 154.693C393.333 152.903 393.411 151.142 393.499 149.455Z" fill="#22272B"/>
<path d="M397.966 155.4C398.183 155.399 398.396 155.337 398.58 155.22C398.763 155.104 398.91 154.938 399.004 154.742C399.157 154.4 399.261 154.038 399.313 153.667C399.36 153.468 399.366 153.262 399.33 153.062C399.294 152.861 399.216 152.67 399.103 152.5C398.964 152.342 398.785 152.225 398.585 152.16C398.385 152.096 398.171 152.086 397.966 152.133C397.601 152.207 397.271 152.403 397.03 152.688C396.829 152.975 396.721 153.317 396.723 153.668C396.714 154.035 396.788 154.399 396.938 154.733C397.029 154.93 397.174 155.097 397.356 155.215C397.538 155.333 397.749 155.397 397.966 155.4ZM397.966 155.489C397.456 155.521 396.948 155.396 396.51 155.132C396.28 154.964 396.093 154.743 395.966 154.488C395.838 154.234 395.773 153.952 395.775 153.668C395.771 153.379 395.826 153.093 395.936 152.826C396.047 152.56 396.211 152.319 396.418 152.118C396.621 151.923 396.866 151.778 397.135 151.697C397.405 151.615 397.689 151.598 397.966 151.647C398.471 151.725 398.941 151.954 399.314 152.304C399.714 152.656 399.975 153.14 400.053 153.667C400.084 153.945 400.042 154.226 399.929 154.481C399.817 154.737 399.638 154.958 399.412 155.122C398.978 155.387 398.474 155.515 397.966 155.489V155.489Z" fill="#FFDA3A"/>
<path d="M400.841 160.13C399.913 160.286 398.977 160.39 398.037 160.443C397.533 160.465 397.025 160.491 396.51 160.477C395.995 160.466 395.48 160.398 394.98 160.351L394.929 160.346C394.9 160.344 394.872 160.335 394.846 160.322C394.82 160.308 394.797 160.289 394.778 160.266C394.759 160.244 394.745 160.218 394.736 160.19C394.728 160.162 394.725 160.132 394.728 160.103L394.728 160.099C394.799 159.557 394.839 159.012 394.846 158.466C394.811 157.896 394.892 157.325 395.084 156.787C395.311 156.208 395.705 155.709 396.216 155.354C396.727 155 397.332 154.805 397.954 154.796C398.576 154.787 399.187 154.964 399.708 155.303C400.229 155.643 400.637 156.13 400.88 156.703C401.115 157.271 401.184 157.894 401.079 158.499C401.019 159.097 400.919 159.654 400.841 160.13ZM400.779 160.068L400.54 158.434C400.514 157.951 400.382 157.48 400.153 157.055C399.918 156.656 399.59 156.322 399.197 156.079C398.803 155.837 398.356 155.695 397.895 155.665C397.411 155.653 396.932 155.767 396.506 155.995C396.079 156.224 395.719 156.56 395.462 156.97C395.192 157.42 395.071 157.943 395.114 158.466C395.122 159.012 395.161 159.557 395.232 160.099L394.98 159.847C395.452 159.8 395.909 159.732 396.365 159.72C396.822 159.707 397.285 159.733 397.753 159.755C398.692 159.812 399.673 159.926 400.779 160.068Z" fill="#FFDA3A"/>
<path d="M379.565 149.499C379.653 151.353 379.73 153.132 379.77 154.882C379.815 156.635 379.843 158.358 379.776 160.099L379.543 159.865C381.037 159.915 382.531 159.99 384.025 159.996C385.519 160.011 387.013 159.977 388.507 159.927L388.336 160.099C388.27 158.329 388.223 156.558 388.207 154.788C388.173 153.018 388.171 151.247 388.188 149.477L388.507 149.796C387.053 149.803 385.593 149.73 384.115 149.695L379.565 149.499ZM379.52 149.455L383.935 149.259C385.445 149.223 386.973 149.151 388.507 149.157C388.592 149.158 388.673 149.192 388.733 149.252C388.792 149.311 388.826 149.392 388.827 149.477C388.844 151.247 388.842 153.017 388.808 154.788C388.792 156.558 388.745 158.328 388.679 160.099L388.679 160.111C388.678 160.133 388.673 160.154 388.664 160.174C388.655 160.194 388.642 160.212 388.626 160.226C388.61 160.241 388.592 160.253 388.571 160.26C388.551 160.268 388.529 160.272 388.507 160.271C387.013 160.221 385.519 160.186 384.025 160.201C382.531 160.208 381.037 160.283 379.543 160.333C379.513 160.334 379.484 160.329 379.456 160.318C379.428 160.308 379.403 160.292 379.381 160.272C379.359 160.252 379.342 160.227 379.329 160.2C379.317 160.173 379.31 160.144 379.309 160.115L379.309 160.099C379.242 158.299 379.27 156.481 379.315 154.693C379.355 152.903 379.432 151.142 379.52 149.455Z" fill="#22272B"/>
<path d="M373.403 163.24C373.491 165.094 373.568 166.873 373.609 168.623C373.653 170.376 373.681 172.1 373.615 173.84L373.381 173.606C374.875 173.656 376.369 173.731 377.863 173.737C379.357 173.752 380.851 173.718 382.346 173.668L382.174 173.84C382.109 172.07 382.061 170.299 382.045 168.529C382.011 166.759 382.009 164.988 382.026 163.218L382.346 163.537C380.892 163.544 379.431 163.472 377.953 163.436L373.403 163.24ZM373.359 163.196L377.773 163C379.284 162.964 380.811 162.892 382.346 162.898C382.43 162.899 382.511 162.933 382.571 162.993C382.63 163.053 382.664 163.133 382.665 163.218C382.683 164.988 382.681 166.759 382.646 168.529C382.63 170.299 382.583 172.07 382.518 173.84L382.517 173.852C382.516 173.874 382.511 173.895 382.502 173.915C382.493 173.935 382.48 173.953 382.465 173.967C382.449 173.982 382.43 173.994 382.41 174.002C382.389 174.009 382.367 174.013 382.346 174.012C380.851 173.962 379.357 173.928 377.863 173.943C376.369 173.949 374.875 174.024 373.381 174.074C373.351 174.075 373.322 174.07 373.294 174.06C373.266 174.049 373.241 174.033 373.219 174.013C373.197 173.993 373.18 173.968 373.168 173.941C373.155 173.914 373.149 173.885 373.148 173.856L373.147 173.84C373.08 172.04 373.108 170.222 373.153 168.434C373.193 166.644 373.271 164.883 373.359 163.196L373.359 163.196Z" fill="#22272B"/>
<path d="M377.826 169.141C378.043 169.14 378.256 169.078 378.439 168.961C378.623 168.845 378.77 168.679 378.863 168.483C379.016 168.141 379.121 167.779 379.173 167.408C379.22 167.209 379.226 167.003 379.19 166.803C379.154 166.602 379.076 166.411 378.963 166.241C378.824 166.083 378.645 165.966 378.445 165.901C378.245 165.837 378.031 165.827 377.826 165.874C377.46 165.948 377.13 166.144 376.89 166.429C376.688 166.716 376.581 167.058 376.583 167.409C376.574 167.776 376.648 168.14 376.798 168.474C376.889 168.671 377.034 168.838 377.216 168.956C377.397 169.074 377.609 169.138 377.826 169.141ZM377.826 169.23C377.315 169.262 376.807 169.137 376.37 168.873C376.14 168.705 375.953 168.484 375.825 168.229C375.698 167.975 375.632 167.693 375.635 167.409C375.631 167.12 375.686 166.834 375.796 166.567C375.907 166.301 376.071 166.06 376.278 165.859C376.48 165.664 376.726 165.52 376.995 165.438C377.264 165.356 377.549 165.339 377.826 165.388C378.331 165.466 378.801 165.695 379.173 166.045C379.573 166.398 379.835 166.881 379.912 167.408C379.944 167.686 379.902 167.967 379.789 168.222C379.677 168.478 379.498 168.699 379.272 168.863C378.838 169.128 378.334 169.256 377.826 169.23Z" fill="#22272B"/>
<path d="M380.7 173.871C379.772 174.027 378.837 174.131 377.897 174.184C377.393 174.206 376.885 174.232 376.37 174.219C375.855 174.207 375.34 174.139 374.84 174.092L374.789 174.088C374.76 174.085 374.731 174.076 374.705 174.063C374.68 174.049 374.657 174.03 374.638 174.008C374.619 173.985 374.605 173.959 374.596 173.931C374.588 173.903 374.585 173.873 374.587 173.844L374.588 173.84C374.659 173.299 374.699 172.753 374.706 172.207C374.671 171.637 374.752 171.066 374.944 170.528C375.171 169.949 375.564 169.45 376.075 169.095C376.587 168.741 377.192 168.546 377.814 168.537C378.436 168.528 379.046 168.705 379.568 169.044C380.089 169.384 380.497 169.871 380.74 170.444C380.975 171.012 381.044 171.635 380.939 172.24C380.879 172.838 380.778 173.395 380.7 173.871ZM380.638 173.809L380.4 172.175C380.374 171.692 380.242 171.221 380.013 170.796C379.778 170.398 379.45 170.063 379.056 169.82C378.663 169.578 378.216 169.436 377.755 169.406C377.271 169.394 376.792 169.508 376.366 169.737C375.939 169.965 375.579 170.301 375.322 170.711C375.052 171.161 374.93 171.684 374.974 172.207C374.981 172.753 375.021 173.299 375.092 173.84L374.84 173.588C375.312 173.541 375.769 173.473 376.225 173.462C376.682 173.448 377.145 173.474 377.612 173.496C378.552 173.553 379.532 173.667 380.638 173.809Z" fill="#FFDA3A"/>
<path d="M386.255 163.24C386.342 165.094 386.42 166.873 386.46 168.623C386.505 170.376 386.533 172.1 386.466 173.84L386.232 173.606C387.727 173.656 389.221 173.731 390.715 173.737C392.209 173.752 393.703 173.718 395.197 173.668L395.025 173.84C394.96 172.07 394.913 170.299 394.897 168.529C394.862 166.759 394.86 164.988 394.878 163.218L395.197 163.537C393.743 163.544 392.282 163.472 390.805 163.436L386.255 163.24ZM386.21 163.196L390.625 163C392.135 162.964 393.663 162.892 395.197 162.898C395.282 162.899 395.362 162.933 395.422 162.993C395.482 163.053 395.516 163.133 395.517 163.218C395.534 164.988 395.532 166.759 395.498 168.529C395.481 170.299 395.434 172.07 395.369 173.84L395.369 173.852C395.368 173.874 395.363 173.895 395.354 173.915C395.345 173.935 395.332 173.953 395.316 173.967C395.3 173.982 395.281 173.994 395.261 174.002C395.241 174.009 395.219 174.013 395.197 174.012C393.703 173.962 392.209 173.928 390.715 173.943C389.221 173.949 387.727 174.024 386.232 174.074C386.203 174.075 386.173 174.07 386.145 174.06C386.118 174.049 386.092 174.033 386.071 174.013C386.049 173.993 386.031 173.968 386.019 173.941C386.007 173.914 386 173.885 385.999 173.856L385.999 173.84C385.932 172.04 385.96 170.222 386.004 168.434C386.045 166.644 386.122 164.883 386.21 163.196V163.196Z" fill="#22272B"/>
<path d="M399.237 163.24C399.324 165.094 399.402 166.873 399.442 168.623C399.487 170.376 399.515 172.1 399.448 173.84L399.214 173.606C400.709 173.656 402.203 173.731 403.697 173.737C405.191 173.752 406.685 173.718 408.179 173.668L408.007 173.84C407.942 172.07 407.895 170.299 407.879 168.529C407.844 166.759 407.842 164.988 407.86 163.218L408.179 163.537C406.725 163.544 405.265 163.472 403.787 163.436L399.237 163.24ZM399.192 163.196L403.607 163C405.117 162.964 406.645 162.892 408.179 162.898C408.264 162.899 408.345 162.933 408.404 162.993C408.464 163.053 408.498 163.133 408.499 163.218C408.516 164.988 408.514 166.759 408.48 168.529C408.464 170.299 408.416 172.07 408.351 173.84L408.351 173.852C408.35 173.874 408.345 173.895 408.336 173.915C408.327 173.935 408.314 173.953 408.298 173.967C408.282 173.982 408.264 173.994 408.243 174.002C408.223 174.009 408.201 174.013 408.179 174.012C406.685 173.962 405.191 173.928 403.697 173.943C402.203 173.949 400.709 174.024 399.214 174.074C399.185 174.075 399.155 174.07 399.128 174.06C399.1 174.049 399.074 174.033 399.053 174.013C399.031 173.993 399.014 173.968 399.001 173.941C398.989 173.914 398.982 173.885 398.981 173.856L398.981 173.84C398.914 172.04 398.942 170.222 398.986 168.434C399.027 166.644 399.104 164.883 399.192 163.196V163.196Z" fill="#22272B"/>
<path d="M403.659 169.141C403.877 169.14 404.089 169.078 404.273 168.961C404.456 168.845 404.604 168.679 404.697 168.483C404.85 168.141 404.954 167.779 405.006 167.408C405.054 167.209 405.06 167.003 405.024 166.803C404.987 166.602 404.91 166.411 404.796 166.241C404.657 166.083 404.479 165.966 404.278 165.901C404.078 165.837 403.864 165.827 403.659 165.874C403.294 165.948 402.964 166.144 402.724 166.429C402.522 166.716 402.415 167.058 402.417 167.409C402.408 167.776 402.481 168.14 402.631 168.474C402.722 168.671 402.867 168.838 403.049 168.956C403.231 169.074 403.443 169.138 403.659 169.141ZM403.659 169.23C403.149 169.262 402.641 169.137 402.203 168.873C401.973 168.705 401.787 168.484 401.659 168.229C401.531 167.975 401.466 167.693 401.469 167.409C401.465 167.12 401.519 166.834 401.63 166.567C401.74 166.301 401.904 166.06 402.112 165.859C402.314 165.664 402.56 165.52 402.829 165.438C403.098 165.356 403.383 165.339 403.659 165.388C404.165 165.466 404.634 165.695 405.007 166.045C405.407 166.398 405.669 166.881 405.746 167.408C405.778 167.686 405.735 167.967 405.623 168.222C405.51 168.478 405.332 168.699 405.106 168.863C404.672 169.128 404.167 169.256 403.659 169.23Z" fill="#22272B"/>
<path d="M406.534 173.871C405.606 174.027 404.67 174.131 403.731 174.184C403.227 174.206 402.718 174.232 402.203 174.219C401.688 174.207 401.173 174.139 400.674 174.092L400.623 174.088C400.594 174.085 400.565 174.076 400.539 174.063C400.513 174.049 400.49 174.03 400.471 174.008C400.453 173.985 400.439 173.959 400.43 173.931C400.421 173.903 400.418 173.873 400.421 173.844L400.421 173.84C400.493 173.299 400.532 172.753 400.54 172.207C400.505 171.637 400.586 171.066 400.778 170.528C401.004 169.949 401.398 169.45 401.909 169.095C402.42 168.741 403.026 168.546 403.648 168.537C404.27 168.528 404.88 168.705 405.401 169.044C405.923 169.384 406.331 169.871 406.574 170.444C406.809 171.012 406.878 171.635 406.773 172.24C406.712 172.838 406.612 173.395 406.534 173.871ZM406.472 173.809L406.233 172.175C406.208 171.692 406.075 171.221 405.846 170.796C405.612 170.398 405.284 170.063 404.89 169.82C404.496 169.578 404.05 169.436 403.588 169.406C403.104 169.394 402.626 169.508 402.199 169.737C401.773 169.965 401.413 170.301 401.156 170.711C400.886 171.161 400.764 171.684 400.807 172.207C400.815 172.753 400.855 173.299 400.926 173.84L400.674 173.588C401.146 173.541 401.602 173.473 402.059 173.462C402.516 173.448 402.978 173.474 403.446 173.496C404.386 173.553 405.366 173.667 406.472 173.809Z" fill="#FFDA3A"/>
<path d="M335.269 198.753L335.096 199.737L336.081 199.91L336.254 198.926L335.269 198.753Z" fill="#FFDA3A"/>
<path d="M371.377 206.083L369.416 205.74L369.588 204.755L371.549 205.098L371.377 206.083ZM367.455 205.397L365.494 205.054L365.666 204.07L367.626 204.413L367.455 205.397ZM363.533 204.711L361.572 204.369L361.744 203.384L363.705 203.727L363.533 204.711ZM359.61 204.026L357.649 203.682L357.822 202.698L359.783 203.042L359.61 204.026ZM355.689 203.339L353.728 202.997L353.9 202.012L355.861 202.355L355.689 203.339ZM351.767 202.654L349.806 202.311L349.978 201.327L351.939 201.669L351.767 202.654ZM347.845 201.968L345.884 201.626L346.056 200.641L348.017 200.984L347.845 201.968ZM343.923 201.282L341.962 200.939L342.134 199.955L344.095 200.297L343.923 201.282ZM340.001 200.596L338.04 200.253L338.212 199.269L340.173 199.612L340.001 200.596Z" fill="#FFDA3A"/>
<path d="M373.513 205.44L373.34 206.424L374.325 206.597L374.498 205.613L373.513 205.44Z" fill="#FFDA3A"/>
<path d="M332.044 202.186L331.835 203.165L332.813 203.374L333.022 202.395L332.044 202.186Z" fill="#FFDA3A"/>
<path d="M367.112 210.68L365.207 210.274L365.416 209.295L367.321 209.702L367.112 210.68ZM363.302 209.869L361.396 209.462L361.604 208.484L363.51 208.89L363.302 209.869ZM359.491 209.056L357.586 208.651L357.794 207.672L359.699 208.078L359.491 209.056ZM355.679 208.245L353.774 207.838L353.983 206.86L355.888 207.266L355.679 208.245ZM351.869 207.432L349.963 207.027L350.171 206.048L352.077 206.454L351.869 207.432ZM348.058 206.621L346.152 206.214L346.36 205.236L348.266 205.642L348.058 206.621ZM344.247 205.809L342.341 205.403L342.55 204.424L344.456 204.831L344.247 205.809ZM340.436 204.997L338.53 204.59L338.739 203.612L340.645 204.018L340.436 204.997ZM336.625 204.185L334.719 203.779L334.928 202.8L336.834 203.207L336.625 204.185Z" fill="#FFDA3A"/>
<path d="M369.227 210.107L369.018 211.085L369.996 211.294L370.205 210.316L369.227 210.107Z" fill="#FFDA3A"/>
<path d="M335.125 207.95C336.833 208.047 338.525 208.332 340.171 208.8C341.828 209.226 343.433 209.835 344.955 210.615C343.247 210.52 341.554 210.235 339.909 209.765C338.252 209.337 336.648 208.729 335.125 207.95Z" fill="#FFDA3A"/>
</svg>
