<svg width="23" height="24" viewBox="0 0 23 24" fill="none" xmlns="http://www.w3.org/2000/svg">
<path d="M14.671 8C16.1301 8 17.5295 8.63214 18.5612 9.75736C19.593 10.8826 20.1726 12.4087 20.1726 14V21H16.5049V14C16.5049 13.4696 16.3116 12.9609 15.9677 12.5858C15.6238 12.2107 15.1574 12 14.671 12C14.1846 12 13.7182 12.2107 13.3742 12.5858C13.0303 12.9609 12.8371 13.4696 12.8371 14V21H9.16937V14C9.16937 12.4087 9.74901 10.8826 10.7808 9.75736C11.8125 8.63214 13.2119 8 14.671 8V8Z" stroke="white" stroke-width="2" stroke-linecap="round" stroke-linejoin="round"/>
<path d="M5.5016 9H1.83386V21H5.5016V9Z" stroke="white" stroke-width="2" stroke-linecap="round" stroke-linejoin="round"/>
<path d="M3.66773 6C4.68055 6 5.5016 5.10457 5.5016 4C5.5016 2.89543 4.68055 2 3.66773 2C2.65491 2 1.83386 2.89543 1.83386 4C1.83386 5.10457 2.65491 6 3.66773 6Z" stroke="white" stroke-width="2" stroke-linecap="round" stroke-linejoin="round"/>
</svg>
