<svg width="20" height="23" viewBox="0 0 20 23" fill="none" xmlns="http://www.w3.org/2000/svg">
<path d="M18.1818 9.59091C18.1818 16.2727 9.59091 22 9.59091 22C9.59091 22 1 16.2727 1 9.59091C1 7.31246 1.90511 5.12733 3.51622 3.51622C5.12733 1.90511 7.31246 1 9.59091 1C11.8694 1 14.0545 1.90511 15.6656 3.51622C17.2767 5.12733 18.1818 7.31246 18.1818 9.59091Z" stroke="#D1D1D1" stroke-width="2" stroke-linecap="round" stroke-linejoin="round"/>
<path d="M9.5909 12.4546C11.1724 12.4546 12.4545 11.1725 12.4545 9.59093C12.4545 8.00939 11.1724 6.72729 9.5909 6.72729C8.00936 6.72729 6.72726 8.00939 6.72726 9.59093C6.72726 11.1725 8.00936 12.4546 9.5909 12.4546Z" stroke="#D1D1D1" stroke-width="2" stroke-linecap="round" stroke-linejoin="round"/>
</svg>
