<svg width="161" height="71" viewBox="0 0 161 71" fill="none" xmlns="http://www.w3.org/2000/svg">
<g clip-path="url(#clip0)">
<path d="M26.4009 54.6592L21.618 55.6501C21.618 63.897 26.9988 67.9565 26.9988 67.9565V70.5616C26.9988 70.5616 18.2667 67.7647 18.959 53.2528L26.7785 52.3738L26.4009 54.6592Z" fill="white"/>
<path d="M25.0946 30.4302C25.0946 30.4302 25.2519 34.6815 27.2973 37.8459L26.7309 40.7707C26.7309 40.7707 22.0266 37.3505 22.6402 32.0284L25.0946 30.4302Z" fill="white"/>
<path d="M21.193 33.1472C21.4132 37.0308 23.4271 42.0333 27.3919 43.8712V46.2366C27.3919 46.2366 19.4938 45.0859 18.9116 34.0422L21.193 33.1472Z" fill="white"/>
<path d="M27.5179 50.6797C16.3157 49.2093 15.356 36.919 15.2773 34.7294C15.7808 34.9691 16.3157 35.2248 16.8822 35.5125C16.8822 35.5125 18.8174 46.9079 27.5022 48.5061C27.5022 48.5061 27.5179 49.529 27.5179 50.6797Z" fill="white"/>
<path d="M28.3988 72L27.1558 71.6803C27.0457 71.6484 16.7718 68.8515 17.8574 54.0359C16.0795 53.5565 12.1147 52.0861 9.04667 47.8988C5.42799 42.9443 4.27945 35.9281 5.63252 27.0419L7.5992 27.3456C6.34052 35.6564 7.34746 42.1452 10.62 46.6521C14.0971 51.4308 19.0059 52.214 19.0689 52.2299L20.0129 52.3738L19.9185 53.3327C18.8329 64.0248 23.9619 67.9565 26.4006 69.2031V27.2337H28.3988V72Z" fill="white"/>
<path d="M27.3917 51.7025C21.1613 51.7025 13.625 43.4717 13.625 33.259L15.8434 34.7773C15.8434 44.3028 22.656 49.6728 27.3917 49.6728V51.7025Z" fill="white"/>
<path d="M27.0297 47.2275C26.6836 47.0837 18.4865 44.3987 18.1089 34.154L20.0598 33.4189C20.3902 42.3369 27.6591 45.3096 27.7377 45.3416L27.0297 47.2275Z" fill="white"/>
<path d="M26.7625 42.5447C21.8694 38.4373 21.8379 32.2841 21.8379 31.9964L23.7888 31.1174C23.7888 31.1813 23.8675 37.4943 28.0369 40.9944L26.7625 42.5447Z" fill="white"/>
<path opacity="0.16" d="M27.3446 22.5349C27.3446 22.5349 25.9601 26.8661 19.8712 26.2588L17.0077 29.727L14.1128 26.4026C14.1128 26.4026 11.4224 27.3616 9.23544 26.0191C7.0485 24.6606 7.45757 18.6193 7.45757 18.6193L27.3446 22.5349Z" fill="white"/>
<path opacity="0.16" d="M17.6843 35.1609C17.2595 35.4486 17.0078 35.5924 17.0078 35.5924C17.0078 35.5924 5.50665 29.4712 4.46825 22.4231C3.58718 16.4457 7.48906 11.2675 13.3734 9.82907C13.4835 10.3884 13.515 10.7401 13.515 10.7401C13.515 10.7401 4.21651 23.7017 17.0235 34.5536C17.2595 34.7614 17.4798 34.9691 17.6843 35.1609Z" fill="white"/>
<path d="M17.0079 36.5034L16.6303 36.3116C2.78494 29.1676 2.98947 21.1765 3.72894 18.0759C5.03482 12.562 10.6202 8.56647 17.0237 8.56647C23.4272 8.56647 29.0125 12.562 30.3184 18.0919C31.0579 21.1924 31.2624 29.1836 17.417 36.3276L17.0079 36.5034ZM17.0079 10.2606C11.4698 10.2606 6.46656 13.7767 5.36522 18.4595C4.04361 24.1012 8.2759 29.9507 17.0079 34.5696C25.74 29.9667 29.988 24.1012 28.6507 18.4755C27.5493 13.7927 22.5461 10.2606 17.0079 10.2606Z" fill="white"/>
<path d="M34.0314 9.01398C33.2919 22.471 22.5932 14.7516 17.0236 20.4892C11.4382 14.7516 0.73947 22.487 0 9.01398C2.73761 13.3292 11.6899 12.3223 17.0078 18.1079C22.3414 12.3223 31.2938 13.3452 34.0314 9.01398Z" fill="white"/>
<path d="M12.225 26.5785C9.2986 26.5785 6.92285 24.1651 6.92285 21.1924C6.92285 18.2197 9.2986 15.8064 12.225 15.8064C15.1514 15.8064 17.5272 18.2197 17.5272 21.1924C17.5429 24.1651 15.1514 26.5785 12.225 26.5785ZM12.225 17.5165C10.2269 17.5165 8.60633 19.1627 8.60633 21.1924C8.60633 23.2222 10.2269 24.8684 12.225 24.8684C14.2232 24.8684 15.8437 23.2222 15.8437 21.1924C15.8437 19.1627 14.2232 17.5165 12.225 17.5165Z" fill="white"/>
<path d="M21.8066 26.5785C18.8801 26.5785 16.5044 24.1651 16.5044 21.1924C16.5044 18.2197 18.8801 15.8064 21.8066 15.8064C24.733 15.8064 27.1087 18.2197 27.1087 21.1924C27.1087 24.1651 24.733 26.5785 21.8066 26.5785ZM21.8066 17.5165C19.8084 17.5165 18.1879 19.1627 18.1879 21.1924C18.1879 23.2222 19.8084 24.8684 21.8066 24.8684C23.8047 24.8684 25.4252 23.2222 25.4252 21.1924C25.4095 19.1627 23.789 17.5165 21.8066 17.5165Z" fill="white"/>
<path d="M21.8062 18.6992C21.4601 18.6992 21.1297 18.7791 20.8308 18.907C21.2713 19.0348 21.6017 19.4184 21.6017 19.8979C21.6017 20.4732 21.1454 20.9367 20.579 20.9367C20.0913 20.9367 19.7137 20.6011 19.6036 20.1376C19.462 20.4573 19.3833 20.7929 19.3833 21.1765C19.3833 22.5509 20.4689 23.6537 21.822 23.6537C23.1751 23.6537 24.2607 22.5509 24.2607 21.1765C24.2607 19.802 23.1436 18.6992 21.8062 18.6992Z" fill="white"/>
<path d="M12.2247 18.6992C11.8786 18.6992 11.5482 18.7791 11.2492 18.907C11.6898 19.0348 12.0202 19.4184 12.0202 19.8979C12.0202 20.4732 11.5639 20.9367 10.9975 20.9367C10.5098 20.9367 10.1322 20.6011 10.022 20.1376C9.88042 20.4573 9.80176 20.7929 9.80176 21.1765C9.80176 22.5509 10.8874 23.6537 12.2404 23.6537C13.5935 23.6537 14.6791 22.5509 14.6791 21.1765C14.6791 19.802 13.5778 18.6992 12.2247 18.6992Z" fill="white"/>
<path d="M17.0079 24.5327L16.2842 25.4597L17.0079 27.7132L17.3069 25.9072L17.0079 24.5327Z" fill="white"/>
<path d="M18.6439 24.1492L17.0076 22.7108L15.3714 24.1492L14.1284 25.188L16.9919 28.7201L19.8554 25.188L18.6439 24.1492ZM17.0076 27.7132V24.5327L18.1719 25.6355L17.0076 27.7132Z" fill="white"/>
<path d="M32.1278 54.1638H2.98953C2.69059 54.1638 2.45459 53.9241 2.45459 53.6204V52.2779C2.45459 51.9742 2.69059 51.7345 2.98953 51.7345H32.1278C32.4267 51.7345 32.6627 51.9742 32.6627 52.2779V53.6204C32.6627 53.9081 32.4267 54.1638 32.1278 54.1638Z" fill="white"/>
<path d="M0.692383 2.65305L3.88627 3.16448L17.3069 5.32209L33.9056 2.65305L17.3069 0L0.692383 2.65305Z" fill="white"/>
<path d="M3.87061 9.39756V10.3725H4.51568V3.30833L3.87061 3.16449V9.39756Z" fill="white"/>
<path d="M3.31982 12.2903H5.01903L4.4841 10.6442V10.3725H3.83903V10.6442L3.31982 12.2903Z" fill="white"/>
<path d="M3.83913 9.39755C3.83913 9.39755 3.3042 9.52541 3.3042 9.893C3.3042 10.2446 3.83913 10.3885 3.83913 10.3885V9.39755Z" fill="white"/>
<path d="M4.48438 9.39755C4.48438 9.39755 5.01931 9.52541 5.01931 9.893C5.01931 10.2446 4.48438 10.3885 4.48438 10.3885V9.39755Z" fill="white"/>
<path d="M23.7259 2.65305H10.856V7.95915H23.7259V2.65305Z" fill="white"/>
<path d="M42.0874 22.9185C41.4895 22.5509 40.8444 22.3751 40.1207 22.3751C39.397 22.3751 38.7833 22.5989 38.2641 23.0624C37.7607 23.5258 37.4932 24.1491 37.4932 24.9483V25.0601C37.4932 26.0031 38.0124 26.8661 39.0508 27.6493C39.4914 27.9849 39.9948 28.3045 40.5455 28.6242C41.0962 28.9438 41.6626 29.2954 42.2132 29.663C42.7639 30.0306 43.2674 30.4302 43.7236 30.8297C44.1799 31.2453 44.5418 31.7567 44.8407 32.348C45.1239 32.9554 45.2812 33.6106 45.2812 34.3298V34.5536C45.2812 35.976 44.8092 37.1267 43.8495 37.9578C42.8898 38.8049 41.7098 39.2204 40.3095 39.2204C38.453 39.2204 37.0212 38.4533 35.9985 36.903V35.6883C36.3761 36.5514 36.9425 37.2386 37.6977 37.782C38.4529 38.3254 39.3812 38.5811 40.4826 38.5811C41.5996 38.5811 42.5594 38.2135 43.3775 37.4943C44.1956 36.7751 44.6047 35.8162 44.6047 34.6015V34.4737C44.6047 33.7225 44.4159 33.0353 44.0226 32.412C43.645 31.7887 43.1572 31.2772 42.5751 30.8777C41.993 30.4781 41.3636 30.0626 40.6871 29.6311C40.0106 29.1995 39.3812 28.784 38.7991 28.4164C38.2169 28.0328 37.7449 27.5693 37.3516 26.994C36.974 26.4186 36.7695 25.7953 36.7695 25.1241V24.9642C36.7695 23.9094 37.0999 23.1103 37.7764 22.5509C38.4372 21.9915 39.2711 21.7198 40.2466 21.7198C41.6154 21.7198 42.6852 22.2313 43.4876 23.2541V24.4049C43.1258 23.7816 42.6695 23.2701 42.0874 22.9185Z" fill="white"/>
<path d="M40.2939 39.54C38.3587 39.54 36.8168 38.709 35.7469 37.0948L35.6997 37.0148V34.3938L36.2346 35.5924C36.5965 36.3915 37.1314 37.0628 37.8394 37.5582C38.5317 38.0537 39.4128 38.3094 40.4669 38.3094C41.5211 38.3094 42.4021 37.9738 43.1731 37.3025C43.9283 36.6313 44.2901 35.7523 44.2901 34.6335V34.5056C44.2901 33.8184 44.1171 33.1631 43.7552 32.5878C43.3933 31.9964 42.9371 31.517 42.3864 31.1334C41.8043 30.7338 41.1907 30.3183 40.4984 29.8868C39.8219 29.4553 39.1925 29.0397 38.6104 28.6721C37.9968 28.2726 37.4933 27.7771 37.0842 27.1698C36.6752 26.5465 36.4549 25.8752 36.4549 25.14V24.9802C36.4549 23.8455 36.8325 22.9505 37.5562 22.3432C38.2643 21.7518 39.1611 21.4482 40.1995 21.4482C41.6469 21.4482 42.8112 22.0075 43.6608 23.0943L43.7237 23.1742V25.5396L43.1888 24.5647C42.8741 23.9733 42.4336 23.5099 41.8987 23.1902C41.3637 22.8546 40.7501 22.6948 40.0736 22.6948C39.4128 22.6948 38.8621 22.9025 38.4059 23.3181C37.9496 23.7176 37.7293 24.277 37.7293 24.9802V25.0921C37.7293 25.9551 38.2013 26.7223 39.1768 27.4575C39.6016 27.7771 40.1051 28.0968 40.6557 28.4164C41.2221 28.7361 41.7885 29.0877 42.3392 29.4712C42.9056 29.8388 43.4248 30.2544 43.8811 30.6699C44.3531 31.1014 44.7464 31.6448 45.0611 32.2841C45.36 32.9234 45.5173 33.6266 45.5173 34.3938V34.6175C45.5173 36.1198 44.9981 37.3505 43.9912 38.2455C43.0157 39.0925 41.7571 39.54 40.2939 39.54ZM36.2661 36.839C37.2416 38.2615 38.5475 38.9647 40.2939 38.9647C41.6312 38.9647 42.7483 38.5651 43.6451 37.766C44.5419 36.9669 44.9824 35.9281 44.9824 34.5696V34.3618C44.9824 33.6905 44.8408 33.0672 44.5733 32.5079C44.3059 31.9485 43.944 31.453 43.5349 31.0695C43.0944 30.6699 42.5909 30.2863 42.056 29.9187C41.5053 29.5511 40.9547 29.2155 40.404 28.8959C39.8376 28.5602 39.3341 28.2246 38.8779 27.905C37.7765 27.0739 37.2101 26.115 37.2101 25.0761V24.9642C37.2101 24.0852 37.4933 23.382 38.0755 22.8706C38.6419 22.3591 39.3184 22.1034 40.1208 22.1034C40.8917 22.1034 41.5997 22.2952 42.2291 22.6788C42.5909 22.9025 42.9056 23.1742 43.1888 23.4939V23.35C42.4493 22.439 41.4739 22.0075 40.2309 22.0075C39.3184 22.0075 38.5632 22.2632 37.9496 22.7747C37.3517 23.2861 37.0528 23.9893 37.0528 24.9642V25.1241C37.0528 25.7314 37.2258 26.3227 37.5877 26.8342C37.9496 27.3776 38.4059 27.8251 38.9565 28.1767C39.5387 28.5602 40.168 28.9598 40.8445 29.3913C41.5211 29.8228 42.1661 30.2544 42.7483 30.6539C43.3619 31.0695 43.8653 31.6129 44.2744 32.2681C44.6835 32.9394 44.888 33.6905 44.888 34.4897V34.6175C44.888 35.8961 44.4475 36.9509 43.5664 37.7181C42.7011 38.4852 41.6627 38.8688 40.4984 38.8688C39.3341 38.8688 38.3429 38.5811 37.5562 38.0217C37.0685 37.6701 36.6437 37.2546 36.2976 36.7591V36.839H36.2661Z" fill="white"/>
<path d="M40.2935 39.636C38.3111 39.636 36.7693 38.8049 35.6679 37.1427L35.605 37.0468V33.9463L36.3287 35.5445C36.6906 36.3276 37.2098 36.9829 37.9021 37.4784C38.5786 37.9578 39.4439 38.2135 40.4666 38.2135C41.4893 38.2135 42.3546 37.8939 43.1098 37.2226C43.8493 36.5674 44.1954 35.7203 44.1954 34.6175V34.4897C44.1954 33.8184 44.0224 33.1951 43.6762 32.6198C43.3144 32.0444 42.8738 31.5649 42.3389 31.1973C41.7567 30.7978 41.1431 30.3822 40.4666 29.9507C39.7901 29.5192 39.1607 29.1037 38.5786 28.7361C37.965 28.3365 37.4458 27.8251 37.021 27.2018C36.5962 26.5625 36.3759 25.8593 36.3759 25.1081V24.9483C36.3759 23.7816 36.7535 22.8706 37.5087 22.2313C38.2482 21.624 39.145 21.3043 40.2149 21.3043C41.6938 21.3043 42.8738 21.8637 43.7549 22.9825L43.8336 23.0943V25.8752L43.1256 24.5647C42.8109 23.9893 42.4018 23.5418 41.8669 23.2222C41.3477 22.9025 40.7498 22.7427 40.089 22.7427C39.4597 22.7427 38.9247 22.9345 38.4842 23.3341C38.0594 23.7176 37.8391 24.2451 37.8391 24.9323V25.0442C37.8391 25.8752 38.2954 26.6264 39.2394 27.3296C39.6642 27.6493 40.1677 27.9689 40.7026 28.2886C41.269 28.6082 41.8354 28.9758 42.3861 29.3434C42.9525 29.727 43.4717 30.1265 43.9437 30.558C44.4314 31.0055 44.8405 31.5489 45.1394 32.2042C45.4541 32.8595 45.6114 33.5787 45.6114 34.3618V34.5856C45.6114 36.1199 45.0922 37.3665 44.0538 38.2775C43.0626 39.1725 41.7882 39.636 40.2935 39.636ZM39.7114 28.5762C40.089 28.816 40.4666 29.0717 40.8757 29.3274C41.5679 29.7589 42.1973 30.1904 42.7794 30.59C43.393 31.0215 43.9122 31.5649 44.337 32.2362C44.4 32.3481 44.4629 32.4439 44.5101 32.5558C44.2426 31.9964 43.8965 31.533 43.4874 31.1494C43.0469 30.7498 42.5591 30.3663 42.0242 30.0146C41.4735 29.6471 40.9229 29.3114 40.3722 28.9918C40.1362 28.832 39.9159 28.7041 39.7114 28.5762ZM37.2255 25.8273C37.3042 26.1629 37.4458 26.4826 37.6503 26.7862C37.9965 27.3136 38.4527 27.7611 38.9877 28.0968C39.1765 28.2246 39.3653 28.3365 39.5541 28.4644C39.3023 28.2886 39.0506 28.1287 38.8303 27.9529C37.965 27.3136 37.4301 26.5944 37.2255 25.8273Z" fill="white"/>
<path d="M40.2935 39.923C38.2167 39.923 36.5804 39.0439 35.4319 37.3019L35.3218 37.1261V32.6191L36.5804 35.416C36.9109 36.1671 37.4143 36.7745 38.0594 37.238C38.6887 37.6855 39.5069 37.9252 40.4666 37.9252C41.4263 37.9252 42.2287 37.6215 42.921 37.0142C43.5975 36.4229 43.9122 35.6397 43.9122 34.6328V34.505C43.9122 33.8817 43.7549 33.3063 43.4402 32.7949C43.1098 32.2515 42.685 31.804 42.1815 31.4524C41.6151 31.0528 40.9858 30.6373 40.3093 30.2058C39.6327 29.7742 39.0034 29.3587 38.4213 28.9911C37.7762 28.5756 37.2255 28.0322 36.785 27.3769C36.3287 26.6897 36.0927 25.9385 36.0927 25.1234V24.9636C36.0927 23.701 36.5175 22.7261 37.3357 22.0388C38.1223 21.3836 39.0978 21.0479 40.2149 21.0479C41.7882 21.0479 43.0469 21.6553 43.9752 22.838L44.1168 23.0138V27.0093L42.8895 24.7239C42.6063 24.1964 42.213 23.7809 41.741 23.4772C41.269 23.1896 40.7183 23.0297 40.1205 23.0297C39.5541 23.0297 39.0978 23.2055 38.7045 23.5572C38.3269 23.8928 38.1538 24.3243 38.1538 24.9476V25.0595C38.1538 25.7947 38.5786 26.4659 39.4439 27.1212C39.8687 27.4408 40.3565 27.7445 40.8757 28.0641C41.4421 28.3998 42.0085 28.7514 42.5749 29.119C43.157 29.5025 43.6919 29.9181 44.164 30.3496C44.6832 30.8291 45.108 31.4044 45.4226 32.0757C45.753 32.7629 45.9261 33.5301 45.9261 34.3611V34.5849C45.9261 36.2151 45.3754 37.5256 44.2741 38.5005C43.1885 39.4435 41.8511 39.923 40.2935 39.923ZM35.8882 36.9663L35.9039 36.9822C36.9423 38.5485 38.4213 39.3476 40.2935 39.3476C41.7253 39.3476 42.9367 38.9161 43.8965 38.053C44.872 37.19 45.3597 36.0233 45.3597 34.5689V34.3611C45.3597 33.626 45.2181 32.9387 44.9192 32.3314C44.6202 31.7241 44.2426 31.1967 43.7863 30.7811C43.3301 30.3656 42.8266 29.966 42.2602 29.5984C41.7095 29.2309 41.1431 28.8792 40.5925 28.5596C40.0418 28.24 39.5383 27.9203 39.0978 27.5847C38.0751 26.8175 37.5874 25.9865 37.5874 25.0595V24.9476C37.5874 24.1645 37.8234 23.5731 38.3269 23.1416C38.8303 22.6941 39.4125 22.4704 40.1205 22.4704C40.8285 22.4704 41.4735 22.6462 42.0399 22.9978C42.6063 23.3494 43.0626 23.8448 43.393 24.4522L43.5661 24.7718L43.5503 23.1896C42.7322 22.1507 41.6151 21.6233 40.2306 21.6233C39.2394 21.6233 38.3898 21.911 37.6975 22.4863C37.0052 23.0617 36.6591 23.8928 36.6591 24.9796V25.1394C36.6591 25.8266 36.8637 26.4819 37.257 27.0732C37.6503 27.6486 38.1381 28.1441 38.7202 28.5276C39.3023 28.9112 39.9317 29.3108 40.6082 29.7423C41.2847 30.1738 41.9141 30.5893 42.4962 30.9889C43.0626 31.3725 43.5346 31.8839 43.9122 32.4912C44.2898 33.0986 44.4786 33.7698 44.4786 34.505V34.6328C44.4786 35.8155 44.0853 36.7425 43.2829 37.4457C42.4805 38.1649 41.5522 38.5005 40.4509 38.5005C39.3653 38.5005 38.4527 38.2289 37.7133 37.7174C36.9895 37.19 36.4231 36.5028 36.0455 35.6717L35.8724 35.2721V36.9663H35.8882ZM44.2426 32.683C44.1954 32.5871 44.1325 32.4752 44.0696 32.3794C43.6762 31.7401 43.1885 31.2286 42.6063 30.8131C42.0242 30.4135 41.3949 29.998 40.7183 29.5505L39.5541 28.7993L39.853 28.3199C40.0575 28.4477 40.2778 28.5916 40.4981 28.7194C41.0487 29.0391 41.6151 29.3907 42.1658 29.7583C42.7165 30.1259 43.2199 30.5094 43.6605 30.925C44.101 31.3245 44.4629 31.836 44.7461 32.4273L44.2426 32.683ZM39.3967 28.7194C39.3967 28.7034 39.3967 28.7034 39.3967 28.7194L38.8303 28.3518C38.2639 27.9842 37.7919 27.5208 37.4143 26.9614C37.1941 26.6257 37.0367 26.2741 36.9423 25.9065L37.493 25.7627C37.6818 26.4819 38.1853 27.1372 39.0034 27.7445C39.2237 27.9043 39.4597 28.0801 39.7114 28.24L39.3967 28.7194Z" fill="white"/>
<path d="M58.3403 29.1836C58.9696 28.752 59.7406 28.5283 60.6374 28.5283C61.5342 28.5283 62.3366 28.8639 63.0131 29.5192C63.6896 30.1745 64.0358 31.0695 64.0358 32.2042V38.9327H63.3278V32.2042C63.3278 31.3252 63.0446 30.606 62.4782 30.0306C61.9118 29.4553 61.2352 29.1676 60.4486 29.1676C59.6619 29.1676 58.9539 29.4712 58.3403 30.0626C57.7267 30.6699 57.412 31.3571 57.412 32.1563V38.9327H56.704V32.1563C56.704 31.3412 56.4208 30.6379 55.8544 30.0466C55.288 29.4553 54.6115 29.1516 53.8091 29.1516C53.0067 29.1516 52.3144 29.4553 51.7165 30.0466C51.1186 30.6539 50.8354 31.3412 50.8354 32.1403V38.9167H50.1274V28.768H50.8354V30.1904C51.1344 29.7429 51.5749 29.3434 52.1571 29.0237C52.7392 28.6881 53.3528 28.5283 53.9821 28.5283C54.6115 28.5283 55.2093 28.752 55.7915 29.1995C56.3736 29.647 56.7984 30.2224 57.0501 30.9256C57.2861 30.2064 57.7109 29.6311 58.3403 29.1836Z" fill="white"/>
<path d="M64.3189 39.2204H63.0445V32.2042C63.0445 31.4051 62.7927 30.7498 62.2893 30.2224C61.7701 29.695 61.1722 29.4393 60.4642 29.4393C59.7404 29.4393 59.1111 29.711 58.5447 30.2544C57.9783 30.7978 57.7108 31.4211 57.7108 32.1403V39.2044H56.4364V32.1403C56.4364 31.4051 56.1847 30.7658 55.6655 30.2224C55.1463 29.679 54.5484 29.4233 53.8247 29.4233C53.1009 29.4233 52.4716 29.695 51.9367 30.2384C51.4017 30.7818 51.1343 31.4051 51.1343 32.1403V39.2044H49.8599V28.4803H51.1343V29.4233C51.386 29.1836 51.6849 28.9598 52.0311 28.768C53.2897 28.0488 54.7372 28.0009 55.9644 28.9598C56.405 29.2954 56.7668 29.727 57.05 30.2064C57.3175 29.695 57.6951 29.2795 58.1828 28.9438C58.8594 28.4803 59.6775 28.2406 60.6373 28.2406C61.6127 28.2406 62.4781 28.6082 63.2018 29.3114C63.9413 30.0306 64.3189 31.0055 64.3189 32.2042V39.2204ZM63.6109 38.6451H63.7525V32.2042C63.7525 31.1494 63.4535 30.3343 62.8242 29.727C62.1949 29.1196 61.4711 28.816 60.6373 28.816C59.7877 28.816 59.0796 29.0237 58.4975 29.4233C57.9154 29.8229 57.5378 30.3503 57.3332 31.0055L57.0972 31.7887L56.814 31.0215C56.5623 30.3663 56.169 29.8229 55.634 29.4233C54.7215 28.7201 53.7146 28.6881 52.7705 29.0557C53.1009 28.9438 53.4628 28.8799 53.8247 28.8799C54.7058 28.8799 55.461 29.2155 56.0746 29.8548C56.6882 30.5101 57.0028 31.2772 57.0028 32.1563V38.6451H57.1444V32.1563C57.1444 31.2772 57.4906 30.5101 58.1514 29.8548C58.8122 29.1995 59.5988 28.8799 60.4642 28.8799C61.3295 28.8799 62.0847 29.1995 62.6983 29.8388C63.3119 30.4781 63.6266 31.2772 63.6266 32.2202V38.6451H63.6109ZM50.4105 38.6451H50.5521V32.1563C50.5521 31.2772 50.8825 30.5101 51.5276 29.8548C51.6535 29.727 51.7951 29.5991 51.9367 29.4872C51.5591 29.7429 51.2759 30.0306 51.0713 30.3503L50.5521 31.1334V29.0557H50.4105V38.6451Z" fill="white"/>
<path d="M64.4131 39.3163H62.9498V32.2042C62.9498 31.4211 62.7138 30.7978 62.2104 30.3023C61.7226 29.7909 61.1405 29.5512 60.4482 29.5512C59.756 29.5512 59.1424 29.8069 58.5917 30.3503C58.0568 30.8777 57.7893 31.485 57.7893 32.1723V39.3163H56.3261V32.1723C56.3261 31.4531 56.0901 30.8457 55.5866 30.3343C55.0989 29.8069 54.5167 29.5672 53.8087 29.5672C53.1007 29.5672 52.5029 29.8229 51.9837 30.3503C51.4645 30.8777 51.2127 31.485 51.2127 32.1723V39.3163H49.7495V28.4005H51.2127V29.2156C51.433 29.0238 51.6847 28.848 51.9679 28.6881C53.2581 27.953 54.737 27.921 56.0114 28.8799C56.4205 29.1996 56.7666 29.5831 57.0341 30.0147C57.3015 29.5672 57.6634 29.1676 58.1197 28.8639C58.812 28.3845 59.6458 28.1447 60.637 28.1447C61.6282 28.1447 62.525 28.5123 63.2803 29.2475C64.0355 29.9827 64.4131 30.9736 64.4131 32.2042V39.3163ZM50.5047 31.4051V31.6449C50.5204 31.533 50.5519 31.4211 50.5834 31.2932L50.5047 31.4051Z" fill="white"/>
<path d="M64.6963 39.604H62.6666V32.2042C62.6666 31.501 62.4464 30.9576 62.0058 30.4941C61.5653 30.0466 61.0618 29.8229 60.4482 29.8229C59.8346 29.8229 59.284 30.0626 58.7962 30.5421C58.3085 31.0215 58.0725 31.5489 58.0725 32.1563V39.588H56.0429V32.1563C56.0429 31.517 55.8226 30.9736 55.3821 30.5101C54.9415 30.0466 54.4381 29.8229 53.8087 29.8229C53.1794 29.8229 52.6602 30.0466 52.1882 30.5261C51.7162 31.0055 51.4959 31.533 51.4959 32.1563V39.588H49.4663V28.0968H51.4959V28.6402C51.6061 28.5603 51.7162 28.4963 51.8421 28.4324C53.321 27.6013 54.9101 27.6653 56.1845 28.6562C56.5149 28.9119 56.7981 29.1996 57.0341 29.5192C57.2858 29.1836 57.6005 28.8799 57.9624 28.6402C58.7018 28.1287 59.5986 27.873 60.637 27.873C61.7069 27.873 62.6666 28.2726 63.4691 29.0557C64.2872 29.8388 64.6963 30.9097 64.6963 32.2202V39.604ZM63.233 39.0286H64.1299V32.2042C64.1299 31.0535 63.7837 30.1265 63.0757 29.4553C62.3834 28.784 61.5653 28.4324 60.637 28.4324C59.7245 28.4324 58.9221 28.6562 58.2928 29.1037C57.868 29.3913 57.5376 29.7589 57.2858 30.1745L57.0498 30.574L56.7981 30.1745C56.5463 29.7589 56.2317 29.4073 55.8383 29.1196C54.737 28.2726 53.3997 28.2087 52.1095 28.9438C51.8421 29.0877 51.6061 29.2635 51.3858 29.4393L50.9295 29.8388V28.6881H50.0327V39.0286H50.9295V32.1563C50.9295 31.3731 51.2127 30.7179 51.7949 30.1265C52.377 29.5352 53.0378 29.2475 53.8245 29.2475C54.6111 29.2475 55.2562 29.5352 55.8069 30.1105C56.3575 30.6859 56.625 31.3572 56.625 32.1563V39.0286H57.5218V32.1563C57.5218 31.3731 57.8208 30.7179 58.4186 30.1265C59.0165 29.5352 59.693 29.2475 60.464 29.2475C61.2349 29.2475 61.88 29.5192 62.4306 30.0946C62.9813 30.6539 63.2488 31.3572 63.2488 32.2042V39.0286H63.233ZM50.7879 31.6928L50.2215 31.6448V31.3252L51.3228 29.6471L50.8508 31.3731C50.8194 31.469 50.8036 31.5809 50.7879 31.6928Z" fill="white"/>
<path d="M79.3284 28.784V38.9327H78.6204V36.4075C78.2113 37.2706 77.582 37.9418 76.7481 38.4373C75.9142 38.9327 75.0332 39.1884 74.0892 39.1884C72.6417 39.1884 71.3988 38.661 70.3603 37.6222C69.3219 36.5833 68.8027 35.3207 68.8027 33.8663C68.8027 32.412 69.3219 31.1494 70.3603 30.1105C71.3988 29.0717 72.6417 28.5443 74.0892 28.5443C75.0332 28.5443 75.9457 28.8 76.811 29.3114C77.6764 29.8228 78.2743 30.4941 78.6204 31.3411V28.784H79.3284ZM69.5107 33.8823C69.5107 35.1449 69.967 36.2477 70.8795 37.1587C71.7921 38.0856 72.8777 38.5491 74.1206 38.5491C75.3793 38.5491 76.4492 38.0856 77.3303 37.1587C78.2113 36.2317 78.6676 35.1289 78.6676 33.8663C78.6676 32.6037 78.2113 31.501 77.3303 30.558C76.4334 29.631 75.3636 29.1516 74.1206 29.1516C72.8777 29.1516 71.7921 29.6151 70.8953 30.558C69.9513 31.5169 69.5107 32.6197 69.5107 33.8823Z" fill="white"/>
<path d="M74.0735 39.4761C72.5474 39.4761 71.2258 38.9167 70.1402 37.83C69.0546 36.7272 68.5039 35.4007 68.5039 33.8664C68.5039 32.3321 69.0546 31.0055 70.1402 29.9028C71.2258 28.8 72.5474 28.2566 74.0735 28.2566C75.0647 28.2566 76.0245 28.5283 76.937 29.0557C77.5034 29.3913 77.9597 29.7909 78.3216 30.2704V28.4963H79.596V39.2204H78.3216V37.4144C77.9282 37.9258 77.4562 38.3574 76.8741 38.693C76.0245 39.2044 75.0805 39.4761 74.0735 39.4761ZM74.0735 28.816C72.689 28.816 71.5247 29.2954 70.5335 30.3023C69.5423 31.3092 69.0546 32.4599 69.0546 33.8504C69.0546 35.2408 69.5423 36.4075 70.5335 37.3984C71.5247 38.4053 72.6733 38.8848 74.0735 38.8848C74.9703 38.8848 75.8199 38.645 76.5909 38.1816C77.3618 37.7181 77.9597 37.0788 78.353 36.2637L78.888 35.1609V38.6291H79.0296V29.0397H78.888V32.7476L78.6834 32.2362C78.8565 32.7316 78.9352 33.275 78.9352 33.8344C78.9352 35.1769 78.4632 36.3596 77.5192 37.3345C76.5751 38.3094 75.4266 38.8049 74.105 38.8049C72.7834 38.8049 71.6191 38.3094 70.6594 37.3345C69.7154 36.3916 69.2276 35.2248 69.2276 33.8823C69.2276 32.5398 69.7154 31.3731 70.6751 30.3822C71.6349 29.3913 72.7991 28.8799 74.105 28.8799C75.4266 28.8799 76.5751 29.3753 77.5192 30.3662C77.9125 30.7818 78.2272 31.2293 78.4632 31.7247L78.353 31.453C78.0384 30.6699 77.472 30.0306 76.6538 29.5671C75.8357 29.0717 74.9703 28.816 74.0735 28.816ZM74.105 29.4553C72.925 29.4553 71.9338 29.8868 71.0684 30.7818C70.2031 31.6768 69.7783 32.6837 69.7783 33.8823C69.7783 35.081 70.2031 36.0879 71.0684 36.9669C71.9338 37.8459 72.925 38.2775 74.105 38.2775C75.285 38.2775 76.2762 37.8459 77.1101 36.9829C77.9597 36.1039 78.3688 35.097 78.3688 33.8823C78.3688 32.6837 77.9597 31.6608 77.1101 30.7818C76.2605 29.8868 75.285 29.4553 74.105 29.4553Z" fill="white"/>
<path d="M74.0732 39.572C72.5313 39.572 71.1783 39.0126 70.0769 37.8939C68.9756 36.7751 68.4092 35.4166 68.4092 33.8664C68.4092 32.3161 68.9756 30.9576 70.0769 29.8388C71.1783 28.7201 72.5313 28.1607 74.0732 28.1607C75.0802 28.1607 76.0556 28.4324 76.9839 28.9758C77.4716 29.2635 77.8964 29.6151 78.2268 29.9987V28.4004H79.69V39.3163H78.2268V37.6701C77.865 38.1017 77.4244 38.4692 76.921 38.7569C76.0556 39.3003 75.0959 39.572 74.0732 39.572ZM74.1047 29.5512C72.9561 29.5512 71.9807 29.9827 71.1468 30.8457C70.2972 31.7247 69.8881 32.7156 69.8881 33.8823C69.8881 35.0491 70.2972 36.0399 71.1468 36.903C71.9964 37.766 72.9719 38.1816 74.1204 38.1816C75.2689 38.1816 76.2444 37.766 77.0626 36.903C77.8807 36.0399 78.2898 35.0491 78.2898 33.8823C78.2898 32.6997 77.8807 31.7088 77.0468 30.8457C76.213 29.9667 75.2532 29.5512 74.1047 29.5512ZM78.9506 34.8413V34.8573V34.8413Z" fill="white"/>
<path d="M74.0732 39.8597C72.4527 39.8597 71.0367 39.2684 69.8724 38.1017C68.7081 36.9349 68.126 35.5125 68.126 33.8664C68.126 32.2362 68.7081 30.8137 69.8724 29.6311C71.0367 28.4644 72.4369 27.873 74.0732 27.873C75.1274 27.873 76.1658 28.1607 77.1255 28.7361C77.4244 28.9119 77.6919 29.1036 77.9436 29.3274V28.1287H79.9732V39.62H77.9436V38.3893C77.6762 38.6291 77.3772 38.8368 77.0626 39.0286C76.15 39.572 75.1431 39.8597 74.0732 39.8597ZM74.0732 28.4324C72.61 28.4324 71.3199 28.9758 70.2815 30.0306C69.2273 31.0854 68.6924 32.38 68.6924 33.8504C68.6924 35.3367 69.2273 36.6153 70.2815 37.6701C71.3356 38.725 72.61 39.2684 74.0732 39.2684C75.033 39.2684 75.9455 39.0126 76.7794 38.5172C77.2514 38.2295 77.6604 37.8939 78.0066 37.4783L78.4943 36.903V39.0286H79.3911V28.6881H78.51V30.7658L78.0223 30.1904C77.7076 29.8228 77.3143 29.4872 76.8423 29.2155C75.977 28.7041 75.033 28.4324 74.0732 28.4324ZM74.1204 38.4533C72.8775 38.4533 71.8391 38.0058 70.9423 37.0948C70.0455 36.1838 69.6049 35.129 69.6049 33.8823C69.6049 32.6357 70.0455 31.5809 70.9423 30.6379C71.8391 29.711 72.8775 29.2635 74.1047 29.2635C75.3319 29.2635 76.3546 29.711 77.2514 30.6379C78.1324 31.5649 78.573 32.6197 78.573 33.8823C78.573 35.1449 78.1482 36.1998 77.2671 37.1108C76.3703 38.0217 75.3476 38.4533 74.1204 38.4533ZM74.1047 29.8388C73.0348 29.8388 72.138 30.2384 71.3356 31.0535C70.5489 31.8686 70.1556 32.7955 70.1556 33.8983C70.1556 34.9851 70.5332 35.9121 71.3356 36.7112C72.1223 37.5103 73.0348 37.9099 74.1204 37.9099C75.1903 37.9099 76.0871 37.5263 76.858 36.7272C77.629 35.9281 78.0066 35.0011 78.0066 33.8983C78.0066 32.7955 77.629 31.8686 76.8423 31.0535C76.0714 30.2224 75.1745 29.8388 74.1047 29.8388ZM79.218 34.9052L78.6674 34.8093L78.7932 34.8253L78.6674 34.7933L78.9978 34.8573L78.9506 34.8413L79.2338 34.8892L79.218 34.9052ZM79.1551 34.8892L79.218 34.9052L79.1551 34.8892Z" fill="white"/>
<path d="M88.312 29.1676C87.5253 29.1676 86.8331 29.4713 86.2352 30.0626C85.6373 30.6699 85.3384 31.3572 85.3384 32.1563V38.9328H84.6304V28.784H85.3384V30.3024C85.6058 29.7909 86.0149 29.3754 86.5813 29.0398C87.1477 28.7041 87.7771 28.5443 88.4693 28.5443C89.1616 28.5443 89.8381 28.784 90.4675 29.2635V30.1585C89.8224 29.5032 89.0987 29.1676 88.312 29.1676Z" fill="white"/>
<path d="M85.6216 39.2204H84.3472V28.4964H85.6216V29.4233C85.8576 29.1836 86.125 28.9598 86.4397 28.784C87.6512 28.0648 89.2717 28.0009 90.6405 29.0238L90.7507 29.1037V30.8457L90.2787 30.3663C89.6808 29.759 89.0357 29.4553 88.3277 29.4553C87.6197 29.4553 87.0061 29.727 86.4554 30.2704C85.9048 30.8138 85.6373 31.4371 85.6373 32.1723V39.2204H85.6216ZM84.9136 38.6451H85.0552V32.1563C85.0552 31.7727 85.1181 31.4211 85.244 31.0855L85.0552 31.4371V29.0557H84.9136V38.6451ZM88.4693 28.816C87.8242 28.816 87.2421 28.9758 86.7229 29.2795C86.2352 29.5672 85.8733 29.9188 85.6216 30.3503C85.7474 30.1745 85.8733 30.0147 86.0306 29.8549C86.6757 29.1996 87.4466 28.864 88.312 28.864C88.9728 28.864 89.6021 29.0877 90.1843 29.5192V29.4073C89.6336 29.0238 89.0672 28.816 88.4693 28.816Z" fill="white"/>
<path d="M85.7156 39.3163H84.2524V28.4005H85.7156V29.1996C85.9202 29.0078 86.1405 28.848 86.3922 28.7041C87.6351 27.9689 89.3029 27.905 90.6874 28.9598L90.8447 29.0717V31.0855L90.1997 30.4302C89.6175 29.8389 89.0039 29.5512 88.3117 29.5512C87.6194 29.5512 87.0373 29.8069 86.5023 30.3503C85.9674 30.8777 85.7156 31.485 85.7156 32.1723V39.3163Z" fill="white"/>
<path d="M85.9989 39.604H83.9692V28.1128H85.9989V28.6082C86.0775 28.5443 86.1719 28.4963 86.2506 28.4484C87.7295 27.5854 89.4917 27.6812 90.8605 28.7201L91.128 28.9279V31.7727L90.0109 30.638C89.4759 30.0946 88.9253 29.8389 88.3274 29.8389C87.7138 29.8389 87.1946 30.0786 86.7069 30.5421C86.2349 31.0215 85.9989 31.549 85.9989 32.1723V39.604ZM84.5356 39.0286H85.4324V32.1563C85.4324 31.3731 85.7156 30.7179 86.2978 30.1265C86.8799 29.5352 87.5407 29.2475 88.3117 29.2475C89.0826 29.2475 89.7591 29.5672 90.4042 30.2064L90.5616 30.3663V29.1836L90.5301 29.1516C89.3501 28.2566 87.8239 28.1767 86.5338 28.9279C86.2978 29.0717 86.0933 29.2155 85.9045 29.3913L85.4324 29.8229V28.6722H84.5356V39.0286Z" fill="white"/>
<path d="M98.5863 38.4373V39.0766C97.5322 39.0766 96.6354 38.725 95.8959 38.0058C95.1564 37.2866 94.7788 36.3756 94.7788 35.2569V24.6926H95.4868V28.8H98.5548V29.4393H95.4868V35.2569C95.4868 36.1678 95.7857 36.935 96.3836 37.5423C96.9972 38.1337 97.721 38.4373 98.5863 38.4373Z" fill="white"/>
<path d="M98.8694 39.3643H98.5862C97.4691 39.3643 96.4936 38.9807 95.707 38.2136C94.9046 37.4464 94.5112 36.4555 94.5112 35.2568V24.4049H95.7856V28.5123H98.8537V29.711H95.7856V35.2409C95.7856 36.0879 96.0531 36.7592 96.6038 37.3186C97.1545 37.862 97.7995 38.1337 98.5862 38.1337H98.8694V39.3643ZM95.0619 24.9803V35.2568C95.0619 36.2957 95.3923 37.1268 96.0846 37.798C96.7139 38.4054 97.4376 38.725 98.303 38.7889V38.725C97.4848 38.6611 96.7768 38.3414 96.1947 37.7501C95.5496 37.0948 95.2035 36.2637 95.2035 35.2728V29.1676H98.2715V29.0877H95.2035V24.9803H95.0619Z" fill="white"/>
<path d="M98.9636 39.4602H98.586C97.4374 39.4602 96.4462 39.0606 95.6438 38.2775C94.8257 37.4944 94.4009 36.4715 94.4009 35.2569V24.309H95.8641V28.4165H98.9321V29.8069H95.8641V35.2409C95.8641 36.056 96.1158 36.7112 96.6508 37.2546C97.1857 37.782 97.815 38.0537 98.5702 38.0537H98.9478V39.4602H98.9636Z" fill="white"/>
<path d="M99.2468 39.7479H98.586C97.3588 39.7479 96.3046 39.3323 95.4393 38.4853C94.5739 37.6382 94.1177 36.5514 94.1177 35.2568V24.0213H96.1473V28.1288H99.2153V30.0946H96.1473V35.2409C96.1473 35.976 96.3833 36.5674 96.8553 37.0469C97.3273 37.5263 97.8937 37.7501 98.586 37.7501H99.2468V39.7479ZM94.6841 24.5967V35.2568C94.6841 36.3916 95.0617 37.3345 95.8169 38.0697C96.5721 38.8049 97.5004 39.1725 98.5702 39.1725H98.6646V38.3414H98.5702C97.7206 38.3414 97.0284 38.0537 96.4462 37.4624C95.8641 36.8711 95.5809 36.1519 95.5809 35.2568V29.5352H98.6489V28.7201H95.5809V24.6127H94.6841V24.5967Z" fill="white"/>
<path d="M111.44 39.1885H111.189C109.662 39.1885 108.246 38.7889 106.925 37.9738C105.603 37.1587 104.565 36.0879 103.81 34.7294C103.054 33.3869 102.661 31.9485 102.661 30.4302C102.661 28.0329 103.511 25.9871 105.21 24.2611C106.909 22.535 108.954 21.6719 111.315 21.6719C112.904 21.6719 114.398 22.0875 115.83 22.9345V23.7656C114.445 22.8067 112.935 22.3272 111.315 22.3272C109.143 22.3272 107.271 23.1263 105.713 24.7086C104.156 26.2908 103.385 28.1927 103.385 30.4142C103.385 32.6358 104.156 34.5376 105.713 36.1359C107.271 37.7341 109.128 38.5332 111.315 38.5332C112.935 38.5332 114.43 38.0537 115.83 37.0948V37.9259C114.493 38.7729 113.029 39.1885 111.44 39.1885Z" fill="white"/>
<path d="M111.44 39.4761H111.189C109.615 39.4761 108.136 39.0446 106.783 38.2135C105.43 37.3825 104.345 36.2637 103.558 34.8733C102.771 33.4828 102.378 31.9965 102.378 30.4302C102.378 27.9689 103.259 25.8273 105.021 24.0533C106.768 22.2793 108.892 21.3842 111.33 21.3842C112.951 21.3842 114.524 21.8158 115.987 22.6788L116.129 22.7587V24.293L115.688 23.9894C114.351 23.0624 112.888 22.5989 111.33 22.5989C109.238 22.5989 107.428 23.366 105.934 24.9003C104.439 26.4187 103.684 28.2726 103.684 30.4142C103.684 32.5399 104.439 34.4098 105.934 35.9281C107.428 37.4624 109.238 38.2295 111.33 38.2295C112.888 38.2295 114.351 37.766 115.688 36.8391L116.129 36.5354V38.0697L115.987 38.1496C114.603 39.0286 113.077 39.4761 111.44 39.4761ZM111.33 21.9596C109.049 21.9596 107.066 22.8067 105.414 24.4528C103.778 26.115 102.944 28.1128 102.944 30.4142C102.944 31.8846 103.322 33.275 104.046 34.5696C104.785 35.8642 105.792 36.919 107.066 37.7021C108.325 38.4852 109.725 38.8848 111.189 38.8848H111.44C112.919 38.8848 114.304 38.5012 115.563 37.7501V37.6062C114.257 38.4053 112.825 38.8049 111.33 38.8049C109.08 38.8049 107.129 37.9738 105.54 36.3276C103.936 34.6815 103.133 32.6997 103.133 30.3982C103.133 28.0968 103.951 26.115 105.556 24.4848C107.161 22.8546 109.112 22.0235 111.346 22.0235C112.841 22.0235 114.257 22.4231 115.578 23.2382V23.0943C114.225 22.3432 112.809 21.9596 111.33 21.9596Z" fill="white"/>
<path d="M111.44 39.572H111.188C109.599 39.572 108.105 39.1405 106.736 38.2934C105.367 37.4464 104.281 36.3116 103.479 34.9212C102.692 33.5307 102.283 32.0124 102.283 30.4302C102.283 27.9369 103.18 25.7793 104.942 23.9893C106.704 22.1993 108.86 21.2883 111.314 21.2883C112.95 21.2883 114.54 21.7358 116.018 22.5989L116.207 22.7108V24.4848L115.625 24.0852C114.304 23.1742 112.856 22.7108 111.33 22.7108C109.269 22.7108 107.475 23.4779 105.996 24.9802C104.517 26.4826 103.778 28.3205 103.778 30.4142C103.778 32.5239 104.533 34.3458 105.996 35.8641C107.475 37.3825 109.269 38.1496 111.33 38.1496C112.856 38.1496 114.304 37.6861 115.625 36.7751L116.207 36.3756V38.1496L116.034 38.2615C114.634 39.1245 113.092 39.572 111.44 39.572Z" fill="white"/>
<path d="M111.44 39.8597H111.188C109.552 39.8597 107.994 39.4122 106.578 38.5492C105.162 37.6861 104.045 36.5034 103.227 35.065C102.409 33.6266 102 32.0604 102 30.4302C102 27.873 102.928 25.6355 104.753 23.7816C106.578 21.9436 108.781 21.0007 111.33 21.0007C113.029 21.0007 114.65 21.4642 116.176 22.3592L116.506 22.5509V25.0282L115.484 24.309C114.209 23.43 112.809 22.9825 111.346 22.9825C109.363 22.9825 107.633 23.7177 106.217 25.172C104.801 26.6264 104.077 28.3845 104.077 30.4142C104.077 32.444 104.801 34.202 106.217 35.6724C107.633 37.1268 109.363 37.8619 111.346 37.8619C112.825 37.8619 114.209 37.4144 115.484 36.5354L116.506 35.8162V38.2935L116.192 38.4852C114.744 39.3962 113.139 39.8597 111.44 39.8597ZM111.33 21.576C108.938 21.576 106.862 22.4551 105.162 24.1811C103.447 25.9072 102.582 28.0169 102.582 30.4142C102.582 31.9485 102.975 33.4029 103.731 34.7614C104.502 36.1199 105.556 37.2226 106.877 38.0377C108.199 38.8528 109.662 39.2684 111.188 39.2684H111.44C113.029 39.2684 114.524 38.8369 115.893 37.9898L115.94 37.9578V36.887L115.798 36.9829C114.429 37.9259 112.935 38.4053 111.346 38.4053C109.206 38.4053 107.349 37.6062 105.807 36.04C104.281 34.4737 103.495 32.5718 103.495 30.3822C103.495 28.1927 104.266 26.3068 105.807 24.7405C107.334 23.1743 109.206 22.3911 111.346 22.3911C112.935 22.3911 114.429 22.8706 115.798 23.8135L115.94 23.9094V22.8386L115.893 22.8067C114.461 22.0076 112.919 21.576 111.33 21.576Z" fill="white"/>
<path d="M122.123 37.5742C121.101 36.5034 120.597 35.2408 120.597 33.8184C120.597 32.396 121.116 31.1494 122.155 30.1105C123.193 29.0717 124.436 28.5443 125.899 28.5443C127.363 28.5443 128.605 29.0717 129.628 30.1105C130.651 31.1494 131.17 32.396 131.17 33.8344C131.17 35.2728 130.667 36.5194 129.66 37.5902C128.653 38.661 127.425 39.1884 125.994 39.1884H125.789C124.373 39.1884 123.146 38.645 122.123 37.5742ZM130.462 33.8663C130.462 32.5878 130.006 31.501 129.125 30.558C128.228 29.631 127.158 29.1516 125.915 29.1516C124.672 29.1516 123.587 29.6151 122.69 30.558C121.777 31.501 121.321 32.6037 121.321 33.8663C121.321 35.1289 121.777 36.2317 122.69 37.1427C123.602 38.0697 124.688 38.5332 125.931 38.5332C127.189 38.5332 128.259 38.0697 129.14 37.1427C130.022 36.2477 130.462 35.1449 130.462 33.8663Z" fill="white"/>
<path d="M125.994 39.4761H125.789C124.295 39.4761 122.989 38.9008 121.919 37.782C120.849 36.6632 120.314 35.3207 120.314 33.8184C120.314 32.3161 120.865 31.0055 121.95 29.9028C123.036 28.8 124.357 28.2566 125.899 28.2566C127.425 28.2566 128.747 28.816 129.833 29.9028C130.918 31.0055 131.453 32.3161 131.453 33.8344C131.453 35.3367 130.918 36.6792 129.864 37.782C128.81 38.9008 127.504 39.4761 125.994 39.4761ZM125.899 28.816C124.531 28.816 123.335 29.3114 122.359 30.3023C121.384 31.2932 120.88 32.4759 120.88 33.8184C120.88 35.1609 121.368 36.3596 122.328 37.3824C123.303 38.4053 124.436 38.9167 125.789 38.9167H125.994C127.363 38.9167 128.495 38.4213 129.455 37.3984C130.399 36.3916 130.887 35.1929 130.887 33.8344C130.887 32.4759 130.399 31.2932 129.424 30.3183C128.464 29.3274 127.268 28.816 125.899 28.816ZM125.915 38.8368C124.593 38.8368 123.429 38.3414 122.469 37.3665C121.51 36.3916 121.022 35.2089 121.022 33.8823C121.022 32.5398 121.51 31.3731 122.469 30.3822C123.429 29.3913 124.593 28.8799 125.899 28.8799C127.221 28.8799 128.369 29.3753 129.313 30.3662C130.257 31.3571 130.745 32.5239 130.745 33.8664C130.745 35.2089 130.273 36.3916 129.329 37.3665C128.385 38.3414 127.237 38.8368 125.915 38.8368ZM125.899 29.4553C124.719 29.4553 123.728 29.8868 122.863 30.7818C121.997 31.6768 121.573 32.6837 121.573 33.8823C121.573 35.081 121.997 36.0879 122.863 36.9669C123.728 37.8459 124.719 38.2775 125.899 38.2775C127.079 38.2775 128.071 37.8459 128.904 36.9829C129.754 36.1039 130.163 35.097 130.163 33.8823C130.163 32.6677 129.754 31.6608 128.904 30.7818C128.071 29.8868 127.079 29.4553 125.899 29.4553Z" fill="white"/>
<path d="M125.993 39.572H125.789C124.263 39.572 122.941 38.9967 121.855 37.8459C120.77 36.6952 120.219 35.3527 120.219 33.8184C120.219 32.2841 120.786 30.9576 121.887 29.8388C122.988 28.7201 124.341 28.1607 125.899 28.1607C127.457 28.1607 128.794 28.7201 129.895 29.8388C130.997 30.9576 131.547 32.3001 131.547 33.8344C131.547 35.3687 130.997 36.7112 129.927 37.8619C128.857 38.9967 127.535 39.572 125.993 39.572ZM125.899 29.5512C124.75 29.5512 123.775 29.9827 122.941 30.8457C122.092 31.7247 121.682 32.7156 121.682 33.8823C121.682 35.0491 122.092 36.0399 122.941 36.903C123.791 37.766 124.766 38.1816 125.915 38.1816C127.063 38.1816 128.039 37.766 128.857 36.903C129.675 36.0399 130.084 35.0491 130.084 33.8823C130.084 32.7156 129.675 31.7088 128.841 30.8457C128.023 29.9667 127.048 29.5512 125.899 29.5512Z" fill="white"/>
<path d="M125.993 39.8597H125.789C124.184 39.8597 122.8 39.2524 121.651 38.0377C120.518 36.8391 119.936 35.4166 119.936 33.8184C119.936 32.2042 120.518 30.7978 121.682 29.6311C122.847 28.4644 124.263 27.873 125.883 27.873C127.504 27.873 128.92 28.4644 130.084 29.6311C131.233 30.7978 131.815 32.2202 131.815 33.8344C131.815 35.4486 131.248 36.855 130.116 38.0537C128.998 39.2524 127.614 39.8597 125.993 39.8597ZM125.899 28.4324C124.42 28.4324 123.146 28.9758 122.092 30.0306C121.037 31.0854 120.502 32.364 120.502 33.8024C120.502 35.2568 121.022 36.5354 122.06 37.6222C123.098 38.709 124.357 39.2684 125.789 39.2684H125.993C127.457 39.2684 128.7 38.725 129.722 37.6382C130.745 36.5514 131.264 35.2728 131.264 33.8184C131.264 32.364 130.729 31.0854 129.691 30.0306C128.652 28.9758 127.378 28.4324 125.899 28.4324ZM125.915 38.4533C124.672 38.4533 123.633 38.0058 122.737 37.0948C121.84 36.1838 121.399 35.129 121.399 33.8823C121.399 32.6357 121.84 31.5809 122.737 30.6379C123.633 29.711 124.672 29.2635 125.899 29.2635C127.126 29.2635 128.149 29.711 129.046 30.6379C129.927 31.5649 130.367 32.6197 130.367 33.8823C130.367 35.1449 129.943 36.1998 129.061 37.1108C128.18 38.0217 127.158 38.4533 125.915 38.4533ZM125.899 29.8388C124.829 29.8388 123.932 30.2384 123.13 31.0535C122.343 31.8686 121.95 32.7955 121.95 33.8983C121.95 34.9851 122.328 35.9121 123.13 36.7112C123.917 37.5103 124.829 37.9099 125.915 37.9099C126.985 37.9099 127.881 37.5263 128.652 36.7272C129.423 35.9281 129.801 35.0011 129.801 33.8983C129.801 32.7955 129.423 31.8686 128.637 31.0535C127.866 30.2224 126.969 29.8388 125.899 29.8388Z" fill="white"/>
<path d="M145.896 22.0076V38.9328H145.188V36.4715C144.748 37.3026 144.103 37.9578 143.253 38.4533C142.403 38.9487 141.538 39.1885 140.657 39.1885C139.194 39.1885 137.951 38.6611 136.912 37.6222C135.89 36.5834 135.371 35.3208 135.371 33.8664C135.371 32.412 135.89 31.1494 136.912 30.1106C137.935 29.0717 139.194 28.5443 140.657 28.5443C141.57 28.5443 142.466 28.8 143.316 29.2955C144.166 29.7909 144.795 30.4622 145.188 31.2773V22.0235H145.896V22.0076ZM136.079 33.8664C136.079 35.145 136.519 36.2318 137.416 37.1587C138.297 38.0857 139.367 38.5492 140.626 38.5492C141.884 38.5492 142.954 38.0857 143.867 37.1587C144.779 36.2318 145.235 35.145 145.235 33.8824C145.235 32.6198 144.779 31.517 143.867 30.574C142.954 29.6311 141.884 29.1676 140.641 29.1676C139.398 29.1676 138.328 29.6311 137.432 30.574C136.535 31.501 136.079 32.6038 136.079 33.8664Z" fill="white"/>
<path d="M140.657 39.4762C139.115 39.4762 137.794 38.9168 136.708 37.83C135.622 36.7272 135.087 35.4007 135.087 33.8664C135.087 32.3321 135.638 31.0056 136.708 29.9028C137.794 28.8 139.115 28.2566 140.657 28.2566C141.617 28.2566 142.561 28.5123 143.458 29.0398C144.04 29.3754 144.527 29.7909 144.905 30.2864V21.7359H146.179V39.2364H144.905V37.4304C144.496 37.9419 143.993 38.3734 143.395 38.709C142.514 39.2204 141.585 39.4762 140.657 39.4762ZM140.657 28.816C139.272 28.816 138.077 29.3114 137.117 30.3023C136.126 31.2932 135.654 32.46 135.654 33.8504C135.654 35.2409 136.126 36.4076 137.117 37.3985C138.092 38.3894 139.272 38.8848 140.657 38.8848C141.491 38.8848 142.325 38.6451 143.111 38.1816C143.898 37.7181 144.512 37.0948 144.937 36.3117L145.471 35.3208V38.6131H145.613V22.2952H145.471V32.4919L144.937 31.3891C144.559 30.622 143.977 29.9987 143.174 29.5192C142.372 29.0557 141.522 28.816 140.657 28.816ZM140.626 38.8369C139.304 38.8369 138.155 38.3414 137.211 37.3665C136.267 36.3916 135.795 35.2089 135.795 33.8664C135.795 32.5239 136.267 31.3412 137.227 30.3663C138.171 29.3754 139.32 28.8799 140.641 28.8799C141.963 28.8799 143.111 29.3754 144.071 30.3823C145.031 31.3732 145.519 32.5558 145.519 33.8824C145.519 35.2249 145.031 36.3916 144.071 37.3665C143.111 38.3414 141.947 38.8369 140.626 38.8369ZM140.641 29.4553C139.461 29.4553 138.486 29.8868 137.636 30.7658C136.787 31.6449 136.378 32.6677 136.378 33.8664C136.378 35.0651 136.787 36.0879 137.636 36.9669C138.47 37.846 139.461 38.2615 140.641 38.2615C141.806 38.2615 142.828 37.83 143.678 36.951C144.543 36.0719 144.968 35.0651 144.968 33.8664C144.968 32.6837 144.543 31.6449 143.678 30.7658C142.797 29.8868 141.806 29.4553 140.641 29.4553Z" fill="white"/>
<path d="M140.657 39.572C139.1 39.572 137.746 39.0127 136.645 37.8939C135.544 36.7751 134.993 35.4326 134.993 33.8664C134.993 32.3161 135.544 30.9576 136.645 29.8388C137.746 28.7201 139.084 28.1607 140.657 28.1607C141.633 28.1607 142.592 28.4324 143.505 28.9598C144.024 29.2635 144.449 29.6151 144.827 30.0306V21.64H146.29V39.3163H144.827V37.6701C144.449 38.1017 143.977 38.4693 143.458 38.7729C142.545 39.3003 141.601 39.572 140.657 39.572ZM140.641 29.5512C139.493 29.5512 138.533 29.9667 137.699 30.8297C136.865 31.6928 136.456 32.6837 136.456 33.8664C136.456 35.0491 136.85 36.04 137.684 36.887C138.502 37.7501 139.461 38.1656 140.626 38.1656C141.79 38.1656 142.765 37.7501 143.599 36.887C144.449 36.024 144.858 35.0491 144.858 33.8664C144.858 32.6997 144.449 31.7088 143.599 30.8297C142.75 29.9667 141.79 29.5512 140.641 29.5512ZM145.519 34.8253C145.487 34.9532 145.472 35.081 145.424 35.2089L145.519 35.0491V34.8253ZM145.487 32.7476C145.503 32.8115 145.519 32.8755 145.519 32.9394V32.8275L145.487 32.7476Z" fill="white"/>
<path d="M140.657 39.8597C139.021 39.8597 137.605 39.2684 136.456 38.1017C135.308 36.935 134.726 35.5126 134.726 33.8664C134.726 32.2362 135.308 30.8138 136.456 29.6311C137.605 28.4644 139.021 27.8731 140.657 27.8731C141.68 27.8731 142.687 28.1607 143.646 28.7041C143.977 28.8959 144.276 29.1037 144.543 29.3434V21.3523H146.573V39.62H144.543V38.3574C144.26 38.6131 143.945 38.8369 143.599 39.0446C142.64 39.5721 141.648 39.8597 140.657 39.8597ZM140.657 28.4324C139.178 28.4324 137.888 28.9758 136.85 30.0307C135.811 31.0855 135.276 32.38 135.276 33.8504C135.276 35.3208 135.811 36.6153 136.85 37.6702C137.888 38.725 139.178 39.2684 140.657 39.2684C141.554 39.2684 142.451 39.0127 143.3 38.5172C143.804 38.2295 144.244 37.8779 144.606 37.4624L145.094 36.903V39.0127H145.991V21.9117H145.094V30.7658L144.606 30.2065C144.26 29.8229 143.851 29.4713 143.363 29.1996C142.498 28.6881 141.585 28.4324 140.657 28.4324ZM140.626 38.4533C139.383 38.4533 138.36 38.0058 137.479 37.0948C136.598 36.1838 136.173 35.129 136.173 33.8664C136.173 32.6038 136.598 31.549 137.495 30.622C138.376 29.695 139.414 29.2475 140.641 29.2475C141.869 29.2475 142.907 29.695 143.804 30.622C144.701 31.549 145.141 32.6198 145.141 33.8664C145.141 35.113 144.701 36.1678 143.804 37.0788C142.891 38.0218 141.853 38.4533 140.626 38.4533ZM140.641 29.8389C139.571 29.8389 138.675 30.2224 137.904 31.0375C137.117 31.8526 136.739 32.7796 136.739 33.8824C136.739 34.9851 137.117 35.9121 137.888 36.7112C138.659 37.5103 139.556 37.8939 140.626 37.8939C141.711 37.8939 142.608 37.5103 143.41 36.6952C144.197 35.8961 144.59 34.9692 144.59 33.8824C144.59 32.7956 144.213 31.8686 143.41 31.0375C142.608 30.2384 141.711 29.8389 140.641 29.8389ZM144.528 37.5103L145.173 35.145C145.204 35.0171 145.236 34.9052 145.251 34.7774L145.818 34.8253L145.786 35.1929L144.528 37.5103ZM145.251 32.9874L145.22 32.8116L144.685 30.3982L145.818 32.8275V32.9394L145.251 32.9874Z" fill="white"/>
<path d="M156.202 39.2044H155.998C154.597 39.2044 153.37 38.661 152.316 37.5902C151.277 36.5194 150.758 35.2568 150.758 33.8344C150.758 32.412 151.277 31.1653 152.316 30.1265C153.354 29.0877 154.629 28.5602 156.155 28.5602C157.681 28.5602 158.987 29.1835 160.088 30.4142L153.118 37.4144C154.078 38.1975 155.006 38.5811 155.887 38.5811C156.784 38.5811 157.571 38.3733 158.279 37.9578C158.987 37.5423 159.569 36.9989 160.025 36.2956V37.4464C158.971 38.6291 157.697 39.2044 156.202 39.2044ZM155.966 29.1835C154.786 29.1835 153.748 29.647 152.835 30.574C151.923 31.501 151.466 32.5558 151.466 33.7705C151.466 34.9691 151.86 36.024 152.646 36.9349L159.113 30.4142C158.2 29.5991 157.146 29.1835 155.966 29.1835Z" fill="white"/>
<path d="M156.202 39.4921H155.998C154.519 39.4921 153.213 38.9168 152.127 37.798C151.042 36.6792 150.475 35.3367 150.475 33.8344C150.475 32.3321 151.026 31.0215 152.111 29.9188C153.197 28.816 154.55 28.2726 156.155 28.2726C157.76 28.2726 159.144 28.9279 160.293 30.2224L160.466 30.4302L153.527 37.3825C154.346 37.9898 155.132 38.2934 155.872 38.2934C156.706 38.2934 157.461 38.1017 158.122 37.7181C158.782 37.3345 159.333 36.8071 159.774 36.1518L160.293 35.3687V37.5742L160.214 37.6542C159.128 38.8688 157.775 39.4921 156.202 39.4921ZM156.155 28.8479C154.707 28.8479 153.48 29.3434 152.505 30.3343C151.529 31.3252 151.042 32.4759 151.042 33.8344C151.042 35.1769 151.545 36.3756 152.52 37.3984C153.527 38.4213 154.66 38.9327 155.998 38.9327H156.202C157.587 38.9327 158.751 38.4213 159.742 37.3505V37.1427C159.364 37.5742 158.924 37.9259 158.42 38.2295C157.681 38.661 156.831 38.8848 155.887 38.8848C154.943 38.8848 153.936 38.4693 152.93 37.6542L152.678 37.4464L159.679 30.4142C158.688 29.3594 157.539 28.8479 156.155 28.8479ZM152.646 37.3505L152.442 37.1267C151.608 36.1678 151.199 35.0491 151.199 33.7705C151.199 32.4919 151.687 31.3572 152.646 30.3822C153.606 29.4073 154.723 28.9119 155.982 28.9119C157.225 28.9119 158.342 29.3434 159.317 30.2064L159.553 30.4142L152.646 37.3505ZM155.966 29.4713C154.865 29.4713 153.889 29.9028 153.04 30.7818C152.174 31.6608 151.749 32.6357 151.749 33.7705C151.749 34.7933 152.064 35.7203 152.662 36.5034L158.688 30.4302C157.886 29.7909 156.973 29.4713 155.966 29.4713Z" fill="white"/>
<path d="M156.202 39.588H155.997C154.487 39.588 153.165 39.0127 152.048 37.8619C150.931 36.7112 150.38 35.3687 150.38 33.8344C150.38 32.3001 150.947 30.9736 152.048 29.8548C153.149 28.7361 154.534 28.1767 156.155 28.1767C157.791 28.1767 159.207 28.848 160.371 30.1585L160.607 30.4302L153.684 37.3665C154.455 37.9259 155.195 38.1976 155.887 38.1976C156.705 38.1976 157.445 38.0058 158.09 37.6222C158.735 37.2386 159.285 36.7272 159.71 36.0879L160.403 35.0491V37.5902L160.308 37.7021C159.175 38.9647 157.807 39.588 156.202 39.588ZM155.966 29.5672C154.88 29.5672 153.936 29.9827 153.102 30.8457C152.253 31.7088 151.844 32.6677 151.844 33.7705C151.844 34.7454 152.111 35.6084 152.677 36.3596L158.546 30.4302C157.775 29.8548 156.941 29.5672 155.966 29.5672Z" fill="white"/>
<path d="M156.202 39.8757H155.997C154.408 39.8757 153.024 39.2684 151.859 38.0697C150.695 36.871 150.097 35.4486 150.097 33.8344C150.097 32.2202 150.679 30.8138 151.844 29.6471C153.008 28.4803 154.455 27.889 156.155 27.889C157.869 27.889 159.348 28.5922 160.576 29.9667L161 30.4462L154.141 37.3345C154.754 37.7181 155.352 37.9259 155.903 37.9259C156.674 37.9259 157.366 37.7501 157.964 37.3984C158.577 37.0309 159.097 36.5514 159.49 35.9441L160.686 34.1381V37.7341L160.513 37.9259C159.333 39.2044 157.885 39.8757 156.202 39.8757ZM156.155 28.4644C154.613 28.4644 153.291 29.0078 152.253 30.0626C151.198 31.1174 150.664 32.396 150.664 33.8344C150.664 35.2888 151.198 36.5674 152.253 37.6542C153.307 38.741 154.565 39.3003 155.997 39.3003H156.202C157.712 39.3003 159.034 38.693 160.088 37.5103L160.119 37.4784V35.976L159.946 36.2317C159.49 36.903 158.924 37.4624 158.231 37.8619C157.539 38.2615 156.752 38.4693 155.887 38.4693C155.132 38.4693 154.329 38.1656 153.527 37.5902L153.26 37.3984L160.229 30.4142L160.167 30.3503C159.049 29.1037 157.712 28.4644 156.155 28.4644ZM152.646 36.7911L152.457 36.5194C151.859 35.7043 151.576 34.8093 151.576 33.7545C151.576 32.5718 152.017 31.5489 152.913 30.622C153.81 29.711 154.817 29.2635 155.981 29.2635C157.004 29.2635 157.901 29.5671 158.735 30.1904L159.002 30.3822L152.646 36.7911ZM155.966 29.8548C154.959 29.8548 154.093 30.2384 153.291 31.0535C152.504 31.8526 152.111 32.7476 152.111 33.7705C152.111 34.5696 152.3 35.2728 152.693 35.9121L158.09 30.4781C157.46 30.0626 156.768 29.8548 155.966 29.8548Z" fill="white"/>
<path d="M35.7152 53.6204C35.6837 53.6204 35.668 53.6044 35.668 53.5725L35.6837 47.4513C35.6837 47.4353 35.6994 47.4193 35.7152 47.4193L37.3514 47.4033C37.6661 47.4033 37.965 47.4672 38.2325 47.6431C38.5 47.8029 38.7045 48.0266 38.8619 48.2823C39.0192 48.554 39.0979 48.8577 39.0979 49.1773V51.7345C39.0979 52.0861 39.0192 52.3898 38.8461 52.6775C38.6888 52.9651 38.4685 53.1889 38.1853 53.3487C37.9178 53.5085 37.6032 53.6044 37.257 53.6044L35.7152 53.6204ZM36.7536 52.5176H37.3042C37.5245 52.5176 37.6976 52.4377 37.8549 52.2779C38.0122 52.1181 38.0752 51.9423 38.0752 51.7185V49.1454C38.0752 48.9536 38.0122 48.7938 37.8706 48.6499C37.729 48.5061 37.5717 48.4422 37.3829 48.4422L36.7693 48.4581L36.7536 52.5176Z" fill="white"/>
<path d="M43.2512 53.6204C43.2355 53.6204 43.2197 53.6044 43.2197 53.5725L43.2355 47.4513C43.2355 47.4353 43.2512 47.4193 43.2669 47.4193H46.0832C46.0989 47.4193 46.1147 47.4353 46.1147 47.4673V48.4741C46.1147 48.4901 46.0989 48.5061 46.0832 48.5061H44.2896V49.8966H46.0832C46.0989 49.8966 46.1147 49.9125 46.1147 49.9285L46.1304 50.9354C46.1304 50.9514 46.1147 50.9674 46.0989 50.9674H44.2896V52.5336H46.0989C46.1147 52.5336 46.1304 52.5496 46.1304 52.5816V53.6044C46.1304 53.6204 46.1147 53.6364 46.0989 53.6364H43.2512V53.6204Z" fill="white"/>
<path d="M51.2914 53.6204C51.2757 53.6204 51.2599 53.6044 51.2442 53.5725L50.0327 47.4513C50.0327 47.4353 50.0327 47.4193 50.0642 47.4193H51.0554C51.0711 47.4193 51.0869 47.4353 51.1026 47.4513L51.8263 51.5427L52.5343 47.4513C52.5343 47.4353 52.5501 47.4193 52.5815 47.4193H53.557C53.5885 47.4193 53.6042 47.4353 53.5885 47.4513L52.3927 53.5725C52.3927 53.6044 52.377 53.6204 52.3455 53.6204H51.2914Z" fill="white"/>
<path d="M57.5373 53.6204C57.5216 53.6204 57.5059 53.6044 57.5059 53.5725L57.5216 47.4513C57.5216 47.4353 57.5373 47.4193 57.5531 47.4193H60.3693C60.3851 47.4193 60.4008 47.4353 60.4008 47.4673V48.4741C60.4008 48.4901 60.3851 48.5061 60.3693 48.5061H58.5757V49.8966H60.3693C60.3851 49.8966 60.4008 49.9125 60.4008 49.9285L60.4165 50.9354C60.4165 50.9514 60.4008 50.9674 60.3851 50.9674H58.5757V52.5336H60.3851C60.4008 52.5336 60.4165 52.5496 60.4165 52.5816V53.6044C60.4165 53.6204 60.4008 53.6364 60.3851 53.6364H57.5373V53.6204Z" fill="white"/>
<path d="M64.6174 53.6204C64.6017 53.6204 64.5859 53.6044 64.5859 53.5725L64.6017 47.4513C64.6017 47.4193 64.6174 47.4033 64.6489 47.4033H65.6243C65.6558 47.4033 65.6715 47.4193 65.6715 47.4513L65.6558 52.5176H67.4652C67.4966 52.5176 67.5124 52.5336 67.5124 52.5656V53.5725C67.5124 53.6044 67.4966 53.6204 67.4652 53.6204H64.6174Z" fill="white"/>
<path d="M72.9719 53.7163C72.6572 53.7163 72.374 53.6364 72.1066 53.4766C71.8391 53.3168 71.6345 53.093 71.4772 52.8213C71.3199 52.5496 71.2412 52.246 71.2412 51.9263L71.2569 49.0975C71.2569 48.7778 71.3356 48.4741 71.4929 48.2024C71.6503 47.9307 71.8548 47.723 72.1223 47.5632C72.3898 47.4033 72.673 47.3234 72.9876 47.3234C73.3023 47.3234 73.5855 47.4033 73.853 47.5632C74.1047 47.723 74.3092 47.9307 74.4666 48.2024C74.6239 48.4741 74.7026 48.7618 74.7026 49.0975L74.7183 51.9263C74.7183 52.246 74.6396 52.5496 74.4823 52.8213C74.325 53.093 74.1204 53.3168 73.853 53.4766C73.5698 53.6204 73.2866 53.7163 72.9719 53.7163ZM72.9719 52.6295C73.145 52.6295 73.3023 52.5496 73.4282 52.4058C73.554 52.2619 73.6327 52.1021 73.6327 51.9103L73.617 49.0815C73.617 48.8897 73.554 48.7139 73.4282 48.586C73.3023 48.4422 73.145 48.3783 72.9562 48.3783C72.7674 48.3783 72.6258 48.4422 72.4842 48.586C72.3583 48.7139 72.2954 48.8897 72.2954 49.0975V51.9263C72.2954 52.1181 72.3583 52.2939 72.4842 52.4218C72.6415 52.5656 72.7831 52.6295 72.9719 52.6295Z" fill="white"/>
<path d="M78.7933 53.6204C78.7618 53.6204 78.7461 53.6044 78.7461 53.5725L78.7618 47.4513C78.7618 47.4353 78.7776 47.4193 78.7933 47.4193H80.4768C81.0117 47.4193 81.4365 47.5791 81.7512 47.9148C82.0658 48.2504 82.2232 48.6979 82.2232 49.2733C82.2232 49.6888 82.1445 50.0564 81.9714 50.376C81.8141 50.6797 81.5938 50.9194 81.3264 51.0952C81.0589 51.255 80.7757 51.3509 80.461 51.3509H79.8002V53.6044C79.8002 53.6364 79.7845 53.6524 79.753 53.6524H78.7933V53.6204ZM79.8317 50.2482H80.4925C80.6813 50.2482 80.8386 50.1523 80.9802 49.9765C81.1218 49.8007 81.1848 49.5609 81.1848 49.2733C81.1848 49.0335 81.1218 48.8577 80.996 48.6979C80.8701 48.554 80.697 48.4741 80.4925 48.4741L79.8317 48.4901V50.2482Z" fill="white"/>
<path d="M86.2668 53.6204C86.2511 53.6204 86.2354 53.6044 86.2354 53.5725L86.2511 47.4513C86.2511 47.4353 86.2668 47.4193 86.2825 47.4193H87.3524C87.3682 47.4193 87.3996 47.4353 87.4154 47.4513L88.2178 48.634L89.0202 47.4513C89.0359 47.4353 89.0516 47.4193 89.0831 47.4193H90.1687C90.1844 47.4193 90.2002 47.4353 90.2002 47.4513L90.2159 53.5725C90.2159 53.6044 90.2002 53.6204 90.1844 53.6204H89.1932C89.1775 53.6204 89.1618 53.6044 89.1618 53.5725L89.146 49.0175L88.2178 50.376L87.3052 49.0175L87.2895 53.5725C87.2895 53.6044 87.2738 53.6204 87.258 53.6204H86.2668Z" fill="white"/>
<path d="M94.385 53.6204C94.3692 53.6204 94.3535 53.6044 94.3535 53.5725L94.3692 47.4513C94.3692 47.4353 94.385 47.4193 94.4007 47.4193H97.217C97.2327 47.4193 97.2484 47.4353 97.2484 47.4673V48.4741C97.2484 48.4901 97.2327 48.5061 97.217 48.5061H95.4234V49.8966H97.217C97.2327 49.8966 97.2484 49.9125 97.2484 49.9285L97.2642 50.9354C97.2642 50.9514 97.2484 50.9674 97.2327 50.9674H95.4234V52.5336H97.2327C97.2484 52.5336 97.2642 52.5496 97.2642 52.5816V53.6044C97.2642 53.6204 97.2484 53.6364 97.2327 53.6364H94.385V53.6204Z" fill="white"/>
<path d="M101.512 53.6204C101.465 53.6204 101.449 53.6044 101.449 53.5565L101.434 47.4832C101.434 47.4353 101.449 47.4193 101.497 47.4193H102.283L103.762 50.9354L103.715 47.4992C103.715 47.4513 103.746 47.4353 103.794 47.4353H104.659C104.69 47.4353 104.706 47.4513 104.706 47.4992L104.722 53.5885C104.722 53.6204 104.706 53.6364 104.675 53.6364H103.904L102.378 50.36L102.441 53.5725C102.441 53.6204 102.409 53.6364 102.362 53.6364H101.512V53.6204Z" fill="white"/>
<path d="M109.788 53.6204C109.772 53.6204 109.757 53.6044 109.757 53.5725V48.4901H108.608C108.577 48.4901 108.561 48.4741 108.561 48.4422L108.577 47.4353C108.577 47.4193 108.592 47.4033 108.608 47.4033H111.944C111.975 47.4033 111.991 47.4193 111.991 47.4353V48.4422C111.991 48.4741 111.975 48.4901 111.959 48.4901H110.811L110.827 53.5725C110.827 53.6044 110.811 53.6204 110.795 53.6204H109.788Z" fill="white"/>
<path d="M122.013 53.7163C121.698 53.7163 121.415 53.6364 121.148 53.4766C120.88 53.3168 120.676 53.093 120.518 52.8213C120.361 52.5496 120.282 52.246 120.282 51.9263V51.5108C120.282 51.4788 120.298 51.4628 120.329 51.4628H121.321C121.336 51.4628 121.352 51.4788 121.352 51.5108V51.9263C121.352 52.1181 121.415 52.2939 121.541 52.4218C121.667 52.5656 121.824 52.6295 122.013 52.6295C122.202 52.6295 122.343 52.5656 122.485 52.4218C122.611 52.2779 122.674 52.1181 122.674 51.9263C122.674 51.7026 122.532 51.5108 122.249 51.351C122.155 51.303 122.013 51.2071 121.808 51.0952C121.604 50.9834 121.415 50.8715 121.242 50.7756C120.927 50.5838 120.676 50.3441 120.534 50.0564C120.377 49.7687 120.298 49.4491 120.298 49.0815C120.298 48.7458 120.377 48.4422 120.534 48.1865C120.691 47.9148 120.896 47.707 121.163 47.5632C121.431 47.4033 121.714 47.3234 122.013 47.3234C122.328 47.3234 122.611 47.4033 122.863 47.5632C123.13 47.723 123.335 47.9307 123.492 48.2024C123.649 48.4741 123.728 48.7618 123.728 49.0975V49.8326C123.728 49.8486 123.712 49.8646 123.696 49.8646H122.705C122.689 49.8646 122.674 49.8486 122.674 49.8326L122.658 49.0975C122.658 48.8897 122.595 48.7139 122.469 48.586C122.343 48.4582 122.186 48.3942 122.013 48.3942C121.824 48.3942 121.683 48.4582 121.541 48.602C121.415 48.7458 121.352 48.9057 121.352 49.0975C121.352 49.2892 121.399 49.4491 121.478 49.5929C121.557 49.7208 121.714 49.8486 121.919 49.9605C121.95 49.9765 121.997 50.0084 122.092 50.0564C122.17 50.1043 122.265 50.1523 122.375 50.2162C122.469 50.2801 122.564 50.3281 122.642 50.3601C122.721 50.408 122.768 50.424 122.784 50.44C123.083 50.5998 123.303 50.8076 123.476 51.0473C123.649 51.287 123.728 51.5907 123.728 51.9423C123.728 52.2779 123.649 52.5816 123.492 52.8533C123.335 53.125 123.13 53.3328 122.863 53.4926C122.611 53.6364 122.328 53.7163 122.013 53.7163Z" fill="white"/>
<path d="M129.361 53.7163C129.046 53.7163 128.747 53.6364 128.479 53.4766C128.212 53.3168 128.007 53.093 127.866 52.8213C127.709 52.5496 127.63 52.246 127.63 51.9103L127.646 49.1294C127.646 48.8098 127.724 48.5061 127.866 48.2344C128.007 47.9627 128.212 47.739 128.479 47.5791C128.747 47.4193 129.03 47.3394 129.361 47.3394C129.675 47.3394 129.974 47.4193 130.226 47.5791C130.478 47.739 130.682 47.9627 130.84 48.2184C130.997 48.4901 131.076 48.7938 131.076 49.1294V49.545C131.06 49.545 131.06 49.545 131.028 49.545H130.053C130.037 49.545 130.021 49.529 130.021 49.513V49.0975C130.021 48.9057 129.958 48.7299 129.833 48.586C129.707 48.4422 129.549 48.3783 129.361 48.3783C129.156 48.3783 128.983 48.4582 128.873 48.602C128.763 48.7459 128.7 48.9217 128.7 49.1134V51.8944C128.7 52.1181 128.763 52.2939 128.889 52.4218C129.014 52.5656 129.172 52.6295 129.345 52.6295C129.534 52.6295 129.691 52.5496 129.817 52.4058C129.943 52.246 130.006 52.0861 130.006 51.8944V51.4788C130.006 51.4628 130.021 51.4468 130.037 51.4468H131.028C131.044 51.4468 131.06 51.4628 131.06 51.4788V51.8944C131.06 52.23 130.981 52.5336 130.824 52.8053C130.666 53.077 130.462 53.3008 130.21 53.4606C129.974 53.6204 129.675 53.7163 129.361 53.7163Z" fill="white"/>
<path d="M135.15 53.6204C135.134 53.6204 135.119 53.6044 135.119 53.5725L135.134 47.4513C135.134 47.4353 135.15 47.4193 135.182 47.4193H136.157C136.189 47.4193 136.204 47.4353 136.204 47.4513L136.189 49.8806H137.51V47.4513C137.51 47.4353 137.526 47.4193 137.542 47.4193H138.517C138.549 47.4193 138.564 47.4353 138.564 47.4513L138.58 53.5725C138.58 53.6044 138.564 53.6204 138.533 53.6204H137.542C137.51 53.6204 137.494 53.6044 137.494 53.5725V50.9514H136.173V53.5725C136.173 53.6044 136.157 53.6204 136.141 53.6204H135.15Z" fill="white"/>
<path d="M144.307 53.7163C143.993 53.7163 143.709 53.6364 143.442 53.4766C143.175 53.3168 142.97 53.093 142.813 52.8213C142.655 52.5496 142.577 52.246 142.577 51.9263L142.592 49.0975C142.592 48.7778 142.671 48.4741 142.828 48.2024C142.986 47.9307 143.19 47.723 143.458 47.5632C143.725 47.4033 144.008 47.3234 144.323 47.3234C144.638 47.3234 144.921 47.4033 145.188 47.5632C145.44 47.723 145.645 47.9307 145.802 48.2024C145.959 48.4741 146.038 48.7618 146.038 49.0975L146.054 51.9263C146.054 52.246 145.975 52.5496 145.818 52.8213C145.66 53.093 145.456 53.3168 145.188 53.4766C144.905 53.6204 144.622 53.7163 144.307 53.7163ZM144.307 52.6295C144.48 52.6295 144.638 52.5496 144.764 52.4058C144.889 52.2619 144.968 52.1021 144.968 51.9103L144.952 49.0815C144.952 48.8897 144.889 48.7139 144.764 48.586C144.638 48.4422 144.48 48.3783 144.292 48.3783C144.103 48.3783 143.961 48.4422 143.82 48.586C143.678 48.7299 143.631 48.8897 143.631 49.0975V51.9263C143.631 52.1181 143.694 52.2939 143.82 52.4218C143.977 52.5656 144.119 52.6295 144.307 52.6295Z" fill="white"/>
<path d="M151.717 53.7163C151.403 53.7163 151.12 53.6364 150.852 53.4766C150.585 53.3168 150.38 53.093 150.223 52.8213C150.065 52.5496 149.987 52.246 149.987 51.9263L150.003 49.0975C150.003 48.7778 150.081 48.4741 150.239 48.2024C150.396 47.9307 150.6 47.723 150.868 47.5632C151.135 47.4033 151.419 47.3234 151.733 47.3234C152.048 47.3234 152.331 47.4033 152.599 47.5632C152.85 47.723 153.055 47.9307 153.212 48.2024C153.369 48.4741 153.448 48.7618 153.448 49.0975L153.464 51.9263C153.464 52.246 153.385 52.5496 153.228 52.8213C153.071 53.093 152.866 53.3168 152.599 53.4766C152.315 53.6204 152.032 53.7163 151.717 53.7163ZM151.717 52.6295C151.891 52.6295 152.048 52.5496 152.174 52.4058C152.3 52.2619 152.378 52.1021 152.378 51.9103L152.363 49.0815C152.363 48.8897 152.3 48.7139 152.174 48.586C152.048 48.4422 151.891 48.3783 151.702 48.3783C151.513 48.3783 151.371 48.4422 151.23 48.586C151.088 48.7299 151.041 48.8897 151.041 49.0975V51.9263C151.041 52.1181 151.104 52.2939 151.23 52.4218C151.387 52.5656 151.529 52.6295 151.717 52.6295Z" fill="white"/>
<path d="M157.539 53.6204C157.523 53.6204 157.507 53.6044 157.507 53.5725L157.523 47.4513C157.523 47.4193 157.539 47.4033 157.57 47.4033H158.546C158.577 47.4033 158.593 47.4193 158.593 47.4513L158.577 52.5176H160.387C160.418 52.5176 160.434 52.5336 160.434 52.5656V53.5725C160.434 53.6044 160.418 53.6204 160.387 53.6204H157.539Z" fill="white"/>
</g>
<defs>
<clipPath id="clip0">
<rect width="161" height="72" fill="white"/>
</clipPath>
</defs>
</svg>
