<svg width="19" height="17" viewBox="0 0 19 17" fill="none" xmlns="http://www.w3.org/2000/svg">
<path d="M3.87475 15.7197C2.5135 14.2453 1.67155 12.2083 1.67155 9.95834C1.67155 5.45847 5.03927 1.81061 9.19355 1.81061C13.3478 1.81061 16.7155 5.45847 16.7155 9.95834C16.7155 12.2083 15.8736 14.2452 14.5124 15.7196L15.6944 16.9999C17.3581 15.1978 18.3871 12.7082 18.3871 9.95834C18.3871 4.4585 14.271 0 9.19355 0C4.11609 0 0 4.4585 0 9.95834C0 12.7083 1.02904 15.1979 2.69278 17L3.87475 15.7197Z" fill="#8CC84B"/>
<path d="M13.3305 14.4393C14.3892 13.2925 15.044 11.7083 15.044 9.95834C15.044 6.45844 12.4247 3.62121 9.19355 3.62121C5.96244 3.62121 3.34311 6.45844 3.34311 9.95834C3.34311 11.7083 3.99796 13.2926 5.05671 14.4394L6.23868 13.1591C5.48242 12.34 5.01466 11.2083 5.01466 9.95834C5.01466 7.45841 6.88561 5.43182 9.19355 5.43182C11.5015 5.43182 13.3724 7.45841 13.3724 9.95834C13.3724 11.2083 12.9047 12.3399 12.1485 13.159L13.3305 14.4393Z" fill="#8CC84B"/>
<path d="M10.9665 11.8788C11.4202 11.3873 11.7009 10.7083 11.7009 9.95834C11.7009 8.45838 10.5783 7.24243 9.19355 7.24243C7.80879 7.24243 6.68622 8.45838 6.68622 9.95834C6.68622 10.7083 6.96688 11.3873 7.42065 11.8788L8.60262 10.5985C8.45134 10.4347 8.35777 10.2084 8.35777 9.95834C8.35777 9.45835 8.73196 9.05303 9.19355 9.05303C9.65513 9.05303 10.0293 9.45835 10.0293 9.95834C10.0293 10.2083 9.93578 10.4346 9.78455 10.5985L10.9665 11.8788Z" fill="#8CC84B"/>
</svg>
