<svg width="73" height="66" viewBox="0 0 73 66" fill="none" xmlns="http://www.w3.org/2000/svg">
<path d="M72.0107 32.5617C72.0107 27.7184 66.1045 23.1285 57.0494 20.2822C59.139 10.8042 58.2103 3.26362 54.118 0.849436C53.1748 0.283145 52.0719 0.0149022 50.8675 0.0149022V3.33814C51.535 3.33814 52.0719 3.47226 52.5218 3.7256C54.4953 4.88798 55.3515 9.31399 54.684 15.0067C54.5244 16.4075 54.2632 17.8829 53.9439 19.388C51.0997 18.6727 47.9942 18.1213 44.7291 17.7636C42.7701 15.0067 40.7385 12.5031 38.6923 10.3125C43.4231 5.79703 47.8636 3.32323 50.882 3.32323V0C46.8913 0 41.6672 2.92087 36.385 7.98768C31.1028 2.95067 25.8787 0.0596098 21.8881 0.0596098V3.38284C24.8919 3.38284 29.3469 5.84174 34.0777 10.3274C32.0461 12.518 30.0145 15.0067 28.0845 17.7636C24.8049 18.1213 21.6994 18.6727 18.8552 19.4029C18.5214 17.9127 18.2747 16.4671 18.1006 15.0812C17.4185 9.3885 18.2602 4.9625 20.2192 3.78521C20.6546 3.51696 21.2205 3.39775 21.8881 3.39775V0.0745119C20.6691 0.0745119 19.5662 0.342755 18.6085 0.909045C14.5307 3.32323 13.6165 10.8489 15.7207 20.2971C6.69453 23.1583 0.817383 27.7333 0.817383 32.5617C0.817383 37.405 6.72355 41.9949 15.7787 44.8413C13.6891 54.3192 14.6178 61.8598 18.71 64.274C19.6533 64.8403 20.7562 65.1085 21.9751 65.1085C25.9658 65.1085 31.1899 62.1877 36.4721 57.1209C41.7543 62.1579 46.9784 65.0489 50.969 65.0489C52.188 65.0489 53.2909 64.7807 54.2486 64.2144C58.3264 61.8002 59.2406 54.2745 57.1364 44.8264C66.1335 41.98 72.0107 37.3901 72.0107 32.5617ZM53.1167 22.6218C52.5798 24.5442 51.9123 26.5262 51.1577 28.5083C50.5627 27.3161 49.9387 26.1239 49.2567 24.9317C48.5892 23.7395 47.8781 22.5771 47.167 21.4445C49.2277 21.7575 51.2157 22.1449 53.1167 22.6218ZM46.4705 38.4929C45.3386 40.5047 44.1777 42.4122 42.9732 44.1856C40.811 44.3793 38.6198 44.4836 36.414 44.4836C34.2228 44.4836 32.0316 44.3793 29.8839 44.2005C28.6794 42.4271 27.504 40.5345 26.3721 38.5376C25.2692 36.5854 24.2679 34.6033 23.3537 32.6064C24.2534 30.6095 25.2692 28.6126 26.3576 26.6604C27.4895 24.6485 28.6504 22.741 29.8548 20.9677C32.0171 20.7739 34.2083 20.6696 36.414 20.6696C38.6053 20.6696 40.7965 20.7739 42.9442 20.9528C44.1487 22.7261 45.3241 24.6187 46.456 26.6157C47.5589 28.5679 48.5601 30.5499 49.4744 32.5468C48.5601 34.5437 47.5589 36.5407 46.4705 38.4929ZM51.1577 36.5556C51.9413 38.5525 52.6088 40.5494 53.1603 42.4867C51.2593 42.9636 49.2567 43.3659 47.1816 43.6789C47.8926 42.5314 48.6037 41.3541 49.2712 40.147C49.9387 38.9548 50.5627 37.7477 51.1577 36.5556ZM36.4431 52.4564C35.0935 51.0258 33.7439 49.4312 32.4089 47.6876C33.7149 47.7473 35.05 47.792 36.3995 47.792C37.7636 47.792 39.1132 47.7622 40.4337 47.6876C39.1277 49.4312 37.7781 51.0258 36.4431 52.4564ZM25.6465 43.6789C23.5859 43.3659 21.5978 42.9785 19.6968 42.5016C20.2337 40.5792 20.9013 38.5972 21.6559 36.6152C22.2508 37.8074 22.8748 38.9995 23.5569 40.1917C24.2389 41.3839 24.9355 42.5463 25.6465 43.6789ZM36.3705 12.667C37.7201 14.0977 39.0696 15.6922 40.4047 17.4358C39.0987 17.3762 37.7636 17.3315 36.414 17.3315C35.05 17.3315 33.7004 17.3613 32.3799 17.4358C33.6859 15.6922 35.0354 14.0977 36.3705 12.667ZM25.632 21.4445C24.9209 22.592 24.2099 23.7693 23.5424 24.9764C22.8748 26.1686 22.2508 27.3608 21.6559 28.553C20.8722 26.5561 20.2047 24.5591 19.6533 22.6218C21.5543 22.1599 23.5569 21.7575 25.632 21.4445ZM12.4991 40.1023C7.36206 37.8521 4.03893 34.9014 4.03893 32.5617C4.03893 30.222 7.36206 27.2565 12.4991 25.0211C13.7471 24.4697 15.1112 23.9779 16.5188 23.516C17.346 26.4368 18.4343 29.4769 19.7839 32.5915C18.4488 35.6912 17.375 38.7164 16.5623 41.6224C15.1257 41.1604 13.7616 40.6537 12.4991 40.1023ZM20.3063 61.3978C18.3327 60.2355 17.4766 55.8094 18.1441 50.1167C18.3037 48.7159 18.5649 47.2406 18.8842 45.7354C21.7284 46.4507 24.8339 47.0021 28.099 47.3598C30.058 50.1167 32.0896 52.6203 34.1357 54.811C29.405 59.3264 24.9645 61.8002 21.9461 61.8002C21.2931 61.7853 20.7416 61.6512 20.3063 61.3978ZM54.7275 50.0422C55.4096 55.7349 54.5679 60.1609 52.6088 61.3382C52.1735 61.6065 51.6075 61.7257 50.94 61.7257C47.9361 61.7257 43.4811 59.2668 38.7504 54.7812C40.782 52.5905 42.8136 50.1018 44.7436 47.3449C48.0232 46.9872 51.1287 46.4358 53.9729 45.7056C54.3067 47.2108 54.5679 48.6563 54.7275 50.0422ZM60.3144 40.1023C59.0665 40.6537 57.7024 41.1455 56.2948 41.6075C55.4676 38.6866 54.3792 35.6465 53.0297 32.5319C54.3647 29.4322 55.4386 26.407 56.2512 23.5011C57.6879 23.963 59.0519 24.4697 60.329 25.0211C65.466 27.2714 68.7891 30.222 68.7891 32.5617C68.7746 34.9014 65.4515 37.867 60.3144 40.1023Z" fill="#FFDA3A"/>
<path d="M36.3994 39.3721C40.062 39.3721 43.0311 36.323 43.0311 32.5617C43.0311 28.8005 40.062 25.7513 36.3994 25.7513C32.7368 25.7513 29.7676 28.8005 29.7676 32.5617C29.7676 36.323 32.7368 39.3721 36.3994 39.3721Z" fill="#FFDA3A"/>
</svg>
