<svg width="25" height="14" viewBox="0 0 25 14" fill="none" xmlns="http://www.w3.org/2000/svg">
<path fill-rule="evenodd" clip-rule="evenodd" d="M2.86891 3V11C2.86891 11.5523 3.31977 12 3.87593 12H17.5918C17.8858 12 18.1651 11.8724 18.3564 11.6508L21.8091 7.65079C22.1323 7.2763 22.1323 6.7237 21.8091 6.34921L18.3564 2.34921C18.1651 2.12756 17.8858 2 17.5918 2H3.87594C3.31977 2 2.86891 2.44772 2.86891 3ZM0.854858 3V11C0.854858 12.6569 2.20744 14 3.87593 14H17.5918C18.4737 14 19.3116 13.6173 19.8856 12.9524L23.3382 8.95237C24.308 7.8289 24.308 6.1711 23.3382 5.04763L19.8856 1.04763C19.3116 0.382688 18.4737 0 17.5918 0H3.87594C2.20744 0 0.854858 1.34315 0.854858 3Z" fill="#FFDA3A"/>
<path fill-rule="evenodd" clip-rule="evenodd" d="M15.9602 8C16.5164 8 16.9673 7.55228 16.9673 7C16.9673 6.44772 16.5164 6 15.9602 6C15.4041 6 14.9532 6.44772 14.9532 7C14.9532 7.55228 15.4041 8 15.9602 8ZM15.9602 10C17.6287 10 18.9813 8.65685 18.9813 7C18.9813 5.34315 17.6287 4 15.9602 4C14.2917 4 12.9392 5.34315 12.9392 7C12.9392 8.65685 14.2917 10 15.9602 10Z" fill="#FFDA3A"/>
</svg>
