<svg width="21" height="21" viewBox="0 0 21 21" fill="none" xmlns="http://www.w3.org/2000/svg">
<path d="M19.9994 15.2252V18.0854C20.0005 18.3509 19.946 18.6138 19.8394 18.8571C19.7328 19.1004 19.5765 19.3188 19.3804 19.4983C19.1844 19.6778 18.9529 19.8144 18.7009 19.8995C18.4489 19.9846 18.1818 20.0162 17.9168 19.9923C14.9772 19.6735 12.1534 18.671 9.67246 17.0653C7.36425 15.6014 5.4073 13.6484 3.94057 11.3447C2.32607 8.85744 1.32133 6.02557 1.00775 3.07855C0.983881 2.8149 1.01528 2.54917 1.09994 2.2983C1.18461 2.04742 1.32069 1.81688 1.49952 1.62136C1.67835 1.42585 1.89601 1.26963 2.13865 1.16267C2.38128 1.05571 2.64358 1.00034 2.90883 1.00009H5.77477C6.2384 0.995538 6.68786 1.15939 7.03938 1.4611C7.39091 1.76282 7.62052 2.18181 7.6854 2.63998C7.80637 3.55533 8.0307 4.45408 8.35413 5.31909C8.48266 5.66035 8.51047 6.03122 8.43428 6.38777C8.35809 6.74431 8.18108 7.07159 7.92423 7.33082L6.71098 8.54166C8.07093 10.9286 10.0512 12.9049 12.4429 14.2622L13.6561 13.0513C13.9159 12.795 14.2438 12.6184 14.601 12.5423C14.9583 12.4663 15.3299 12.494 15.6718 12.6223C16.5386 12.9451 17.4391 13.169 18.3563 13.2897C18.8203 13.355 19.2441 13.5883 19.5471 13.9452C19.8501 14.302 20.011 14.7576 19.9994 15.2252Z" stroke="#D1D1D1" stroke-width="2" stroke-linecap="round" stroke-linejoin="round"/>
</svg>
