<svg width="21" height="20" viewBox="0 0 21 20" fill="none" xmlns="http://www.w3.org/2000/svg">
<path d="M7.09864 5H9.11762V10H14.1651V12H7.09864V5Z" fill="#FFDA3A"/>
<path fill-rule="evenodd" clip-rule="evenodd" d="M20.222 10C20.222 15.5228 15.7024 20 10.1271 20C4.55186 20 0.0322266 15.5228 0.0322266 10C0.0322266 4.47715 4.55186 0 10.1271 0C15.7024 0 20.222 4.47715 20.222 10ZM18.203 10C18.203 14.4183 14.5873 18 10.1271 18C5.66691 18 2.0512 14.4183 2.0512 10C2.0512 5.58172 5.66691 2 10.1271 2C14.5873 2 18.203 5.58172 18.203 10Z" fill="#FFDA3A"/>
</svg>
