<svg width="19" height="18" viewBox="0 0 19 18" fill="none" xmlns="http://www.w3.org/2000/svg">
<path fill-rule="evenodd" clip-rule="evenodd" d="M5.51613 8C7.54711 8 9.19355 6.20914 9.19355 4C9.19355 1.79086 7.54711 0 5.51613 0C3.48515 0 1.83871 1.79086 1.83871 4C1.83871 6.20914 3.48515 8 5.51613 8ZM5.51613 6C6.53162 6 7.35484 5.10457 7.35484 4C7.35484 2.89543 6.53162 2 5.51613 2C4.50064 2 3.67742 2.89543 3.67742 4C3.67742 5.10457 4.50064 6 5.51613 6Z" fill="#FFDA3A"/>
<path d="M8.27419 11C8.78194 11 9.19355 11.4477 9.19355 12V18H11.0323V12C11.0323 10.3431 9.79743 9 8.27419 9H2.75806C1.23483 9 0 10.3431 0 12V18H1.83871V12C1.83871 11.4477 2.25032 11 2.75806 11H8.27419Z" fill="#FFDA3A"/>
<path d="M18.3871 8H12.871V10H18.3871V8Z" fill="#FFDA3A"/>
<path d="M12.871 12H18.3871V14H12.871V12Z" fill="#FFDA3A"/>
<path d="M18.3871 4H12.871V6H18.3871V4Z" fill="#FFDA3A"/>
</svg>
